<svg id="my-svg" width="100%" xmlns="http://www.w3.org/2000/svg" xmlns:xlink="http://www.w3.org/1999/xlink" class="erDiagram" style="max-width: 2349.44px; background-color: white;" viewBox="0 0 2349.4375 358" role="graphics-document document" aria-roledescription="er"><style>#my-svg{font-family:"trebuchet ms",verdana,arial,sans-serif;font-size:16px;fill:#333;}@keyframes edge-animation-frame{from{stroke-dashoffset:0;}}@keyframes dash{to{stroke-dashoffset:0;}}#my-svg .edge-animation-slow{stroke-dasharray:9,5!important;stroke-dashoffset:900;animation:dash 50s linear infinite;stroke-linecap:round;}#my-svg .edge-animation-fast{stroke-dasharray:9,5!important;stroke-dashoffset:900;animation:dash 20s linear infinite;stroke-linecap:round;}#my-svg .error-icon{fill:#552222;}#my-svg .error-text{fill:#552222;stroke:#552222;}#my-svg .edge-thickness-normal{stroke-width:1px;}#my-svg .edge-thickness-thick{stroke-width:3.5px;}#my-svg .edge-pattern-solid{stroke-dasharray:0;}#my-svg .edge-thickness-invisible{stroke-width:0;fill:none;}#my-svg .edge-pattern-dashed{stroke-dasharray:3;}#my-svg .edge-pattern-dotted{stroke-dasharray:2;}#my-svg .marker{fill:#333333;stroke:#333333;}#my-svg .marker.cross{stroke:#333333;}#my-svg svg{font-family:"trebuchet ms",verdana,arial,sans-serif;font-size:16px;}#my-svg p{margin:0;}#my-svg .entityBox{fill:#ECECFF;stroke:#9370DB;}#my-svg .relationshipLabelBox{fill:hsl(80, 100%, 96.2745098039%);opacity:0.7;background-color:hsl(80, 100%, 96.2745098039%);}#my-svg .relationshipLabelBox rect{opacity:0.5;}#my-svg .labelBkg{background-color:rgba(248.6666666666, 255, 235.9999999999, 0.5);}#my-svg .edgeLabel .label{fill:#9370DB;font-size:14px;}#my-svg .label{font-family:"trebuchet ms",verdana,arial,sans-serif;color:#333;}#my-svg .edge-pattern-dashed{stroke-dasharray:8,8;}#my-svg .node rect,#my-svg .node circle,#my-svg .node ellipse,#my-svg .node polygon{fill:#ECECFF;stroke:#9370DB;stroke-width:1px;}#my-svg .relationshipLine{stroke:#333333;stroke-width:1;fill:none;}#my-svg .marker{fill:none!important;stroke:#333333!important;stroke-width:1;}#my-svg :root{--mermaid-font-family:"trebuchet ms",verdana,arial,sans-serif;}</style><g><defs><marker id="my-svg_er-onlyOneStart" class="marker onlyOne er" refX="0" refY="9" markerWidth="18" markerHeight="18" orient="auto"><path d="M9,0 L9,18 M15,0 L15,18"/></marker></defs><defs><marker id="my-svg_er-onlyOneEnd" class="marker onlyOne er" refX="18" refY="9" markerWidth="18" markerHeight="18" orient="auto"><path d="M3,0 L3,18 M9,0 L9,18"/></marker></defs><defs><marker id="my-svg_er-zeroOrOneStart" class="marker zeroOrOne er" refX="0" refY="9" markerWidth="30" markerHeight="18" orient="auto"><circle fill="white" cx="21" cy="9" r="6"/><path d="M9,0 L9,18"/></marker></defs><defs><marker id="my-svg_er-zeroOrOneEnd" class="marker zeroOrOne er" refX="30" refY="9" markerWidth="30" markerHeight="18" orient="auto"><circle fill="white" cx="9" cy="9" r="6"/><path d="M21,0 L21,18"/></marker></defs><defs><marker id="my-svg_er-oneOrMoreStart" class="marker oneOrMore er" refX="18" refY="18" markerWidth="45" markerHeight="36" orient="auto"><path d="M0,18 Q 18,0 36,18 Q 18,36 0,18 M42,9 L42,27"/></marker></defs><defs><marker id="my-svg_er-oneOrMoreEnd" class="marker oneOrMore er" refX="27" refY="18" markerWidth="45" markerHeight="36" orient="auto"><path d="M3,9 L3,27 M9,18 Q27,0 45,18 Q27,36 9,18"/></marker></defs><defs><marker id="my-svg_er-zeroOrMoreStart" class="marker zeroOrMore er" refX="18" refY="18" markerWidth="57" markerHeight="36" orient="auto"><circle fill="white" cx="48" cy="18" r="6"/><path d="M0,18 Q18,0 36,18 Q18,36 0,18"/></marker></defs><defs><marker id="my-svg_er-zeroOrMoreEnd" class="marker zeroOrMore er" refX="39" refY="18" markerWidth="57" markerHeight="36" orient="auto"><circle fill="white" cx="9" cy="18" r="6"/><path d="M21,18 Q39,0 57,18 Q39,36 21,18"/></marker></defs><g class="root"><g class="clusters"/><g class="edgePaths"/><g class="edgeLabels"/><g class="nodes"><g class="node default" id="entity-RawGcmed-0" transform="translate(89.921875, 179)"><g style=""><path d="M-81.921875 -64.125 L81.921875 -64.125 L81.921875 64.125 L-81.921875 64.125" stroke="none" stroke-width="0" fill="#ECECFF"/><path d="M-81.921875 -64.125 C-29.03459485027225 -64.125, 23.8526852994555 -64.125, 81.921875 -64.125 M-81.921875 -64.125 C-20.332914522609173 -64.125, 41.256045954781655 -64.125, 81.921875 -64.125 M81.921875 -64.125 C81.921875 -30.966021381202573, 81.921875 2.192957237594854, 81.921875 64.125 M81.921875 -64.125 C81.921875 -25.511812577952888, 81.921875 13.101374844094224, 81.921875 64.125 M81.921875 64.125 C31.98156706760465 64.125, -17.9587408647907 64.125, -81.921875 64.125 M81.921875 64.125 C45.288910988189706 64.125, 8.655946976379411 64.125, -81.921875 64.125 M-81.921875 64.125 C-81.921875 29.671735084891075, -81.921875 -4.781529830217849, -81.921875 -64.125 M-81.921875 64.125 C-81.921875 24.40983505384108, -81.921875 -15.305329892317843, -81.921875 -64.125" stroke="#9370DB" stroke-width="1.3" fill="none" stroke-dasharray="0 0"/></g><g style="" class="row-rect-odd"><path d="M-81.921875 -21.375 L81.921875 -21.375 L81.921875 21.375 L-81.921875 21.375" stroke="none" stroke-width="0" fill="hsl(240, 100%, 100%)"/><path d="M-81.921875 -21.375 C-36.00096890122376 -21.375, 9.919937197552485 -21.375, 81.921875 -21.375 M-81.921875 -21.375 C-31.412477015002253 -21.375, 19.096920969995494 -21.375, 81.921875 -21.375 M81.921875 -21.375 C81.921875 -7.644677354441692, 81.921875 6.085645291116617, 81.921875 21.375 M81.921875 -21.375 C81.921875 -11.9349056448348, 81.921875 -2.494811289669599, 81.921875 21.375 M81.921875 21.375 C35.367844326750976 21.375, -11.186186346498047 21.375, -81.921875 21.375 M81.921875 21.375 C19.35101804740919 21.375, -43.21983890518162 21.375, -81.921875 21.375 M-81.921875 21.375 C-81.921875 11.709070135196576, -81.921875 2.0431402703931525, -81.921875 -21.375 M-81.921875 21.375 C-81.921875 9.349161150498633, -81.921875 -2.6766776990027346, -81.921875 -21.375" stroke="#9370DB" stroke-width="1.3" fill="none" stroke-dasharray="0 0"/></g><g style="" class="row-rect-even"><path d="M-81.921875 21.375 L81.921875 21.375 L81.921875 64.125 L-81.921875 64.125" stroke="none" stroke-width="0" fill="hsl(240, 100%, 97.2745098039%)"/><path d="M-81.921875 21.375 C-44.168164734969224 21.375, -6.414454469938448 21.375, 81.921875 21.375 M-81.921875 21.375 C-45.90383695440123 21.375, -9.885798908802457 21.375, 81.921875 21.375 M81.921875 21.375 C81.921875 37.852136392900036, 81.921875 54.32927278580008, 81.921875 64.125 M81.921875 21.375 C81.921875 35.41761489753533, 81.921875 49.46022979507066, 81.921875 64.125 M81.921875 64.125 C41.5086226639244 64.125, 1.0953703278487978 64.125, -81.921875 64.125 M81.921875 64.125 C16.825392358652266 64.125, -48.27109028269547 64.125, -81.921875 64.125 M-81.921875 64.125 C-81.921875 48.870081343213265, -81.921875 33.61516268642653, -81.921875 21.375 M-81.921875 64.125 C-81.921875 55.026861922963164, -81.921875 45.92872384592633, -81.921875 21.375" stroke="#9370DB" stroke-width="1.3" fill="none" stroke-dasharray="0 0"/></g><g class="label name" transform="translate(-41.7890625, -54.75)" style=""><foreignObject width="83.578125" height="24"><div xmlns="http://www.w3.org/1999/xhtml" style="display: table-cell; white-space: nowrap; line-height: 1.5; max-width: 176px; text-align: start;"><span class="nodeLabel"><p>RawGcmed</p></span></div></foreignObject></g><g class="label attribute-type" transform="translate(-69.421875, -12)" style=""><foreignObject width="39.125" height="24"><div xmlns="http://www.w3.org/1999/xhtml" style="display: table-cell; white-space: nowrap; line-height: 1.5; max-width: 136px; text-align: start;"><span class="nodeLabel"><p>string</p></span></div></foreignObject></g><g class="label attribute-name" transform="translate(-5.296875, -12)" style=""><foreignObject width="74.71875" height="24"><div xmlns="http://www.w3.org/1999/xhtml" style="display: table-cell; white-space: nowrap; line-height: 1.5; max-width: 170px; text-align: start;"><span class="nodeLabel"><p>_gcBucket</p></span></div></foreignObject></g><g class="label attribute-keys" transform="translate(94.421875, -12)" style=""><foreignObject width="0" height="0"><div xmlns="http://www.w3.org/1999/xhtml" style="display: table-cell; white-space: nowrap; line-height: 1.5; max-width: 100px; text-align: start;"><span class="nodeLabel"></span></div></foreignObject></g><g class="label attribute-comment" transform="translate(94.421875, -12)" style=""><foreignObject width="0" height="0"><div xmlns="http://www.w3.org/1999/xhtml" style="display: table-cell; white-space: nowrap; line-height: 1.5; max-width: 100px; text-align: start;"><span class="nodeLabel"></span></div></foreignObject></g><g class="label attribute-type" transform="translate(-69.421875, 30.75)" style=""><foreignObject width="30.25" height="24"><div xmlns="http://www.w3.org/1999/xhtml" style="display: table-cell; white-space: nowrap; line-height: 1.5; max-width: 130px; text-align: start;"><span class="nodeLabel"><p>float</p></span></div></foreignObject></g><g class="label attribute-name" transform="translate(-5.296875, 30.75)" style=""><foreignObject width="52.484375" height="24"><div xmlns="http://www.w3.org/1999/xhtml" style="display: table-cell; white-space: nowrap; line-height: 1.5; max-width: 147px; text-align: start;"><span class="nodeLabel"><p>median</p></span></div></foreignObject></g><g class="label attribute-keys" transform="translate(94.421875, 30.75)" style=""><foreignObject width="0" height="0"><div xmlns="http://www.w3.org/1999/xhtml" style="display: table-cell; white-space: nowrap; line-height: 1.5; max-width: 100px; text-align: start;"><span class="nodeLabel"></span></div></foreignObject></g><g class="label attribute-comment" transform="translate(94.421875, 30.75)" style=""><foreignObject width="0" height="0"><div xmlns="http://www.w3.org/1999/xhtml" style="display: table-cell; white-space: nowrap; line-height: 1.5; max-width: 100px; text-align: start;"><span class="nodeLabel"></span></div></foreignObject></g><g class="divider"><path d="M-81.921875 -21.375 C-45.374960508580074 -21.375, -8.828046017160148 -21.375, 81.921875 -21.375 M-81.921875 -21.375 C-23.5862396881571 -21.375, 34.7493956236858 -21.375, 81.921875 -21.375" stroke="#9370DB" stroke-width="1.3" fill="none" stroke-dasharray="0 0"/></g><g class="divider"><path d="M-17.796875 -21.375 C-17.796875 -3.4089426128888576, -17.796875 14.557114774222285, -17.796875 64.125 M-17.796875 -21.375 C-17.796875 3.9939044321023545, -17.796875 29.36280886420471, -17.796875 64.125" stroke="#9370DB" stroke-width="1.3" fill="none" stroke-dasharray="0 0"/></g><g class="divider"><path d="M-81.921875 -21.375 C-37.547964902996895 -21.375, 6.825945194006209 -21.375, 81.921875 -21.375 M-81.921875 -21.375 C-32.65705553147677 -21.375, 16.607763937046457 -21.375, 81.921875 -21.375" stroke="#9370DB" stroke-width="1.3" fill="none" stroke-dasharray="0 0"/></g></g><g class="node default" id="entity-TidyGcmed-1" transform="translate(392.875, 179)"><g style=""><path d="M-81.03125 -64.125 L81.03125 -64.125 L81.03125 64.125 L-81.03125 64.125" stroke="none" stroke-width="0" fill="#ECECFF"/><path d="M-81.03125 -64.125 C-20.64151577994879 -64.125, 39.74821844010242 -64.125, 81.03125 -64.125 M-81.03125 -64.125 C-46.072733952121986 -64.125, -11.114217904243972 -64.125, 81.03125 -64.125 M81.03125 -64.125 C81.03125 -30.167124619440962, 81.03125 3.790750761118076, 81.03125 64.125 M81.03125 -64.125 C81.03125 -32.822319560791215, 81.03125 -1.5196391215824363, 81.03125 64.125 M81.03125 64.125 C43.37797247570767 64.125, 5.724694951415344 64.125, -81.03125 64.125 M81.03125 64.125 C41.023197797330226 64.125, 1.0151455946604528 64.125, -81.03125 64.125 M-81.03125 64.125 C-81.03125 24.54069197474962, -81.03125 -15.04361605050076, -81.03125 -64.125 M-81.03125 64.125 C-81.03125 25.23904206432202, -81.03125 -13.646915871355958, -81.03125 -64.125" stroke="#9370DB" stroke-width="1.3" fill="none" stroke-dasharray="0 0"/></g><g style="" class="row-rect-odd"><path d="M-81.03125 -21.375 L81.03125 -21.375 L81.03125 21.375 L-81.03125 21.375" stroke="none" stroke-width="0" fill="hsl(240, 100%, 100%)"/><path d="M-81.03125 -21.375 C-27.635220022461922 -21.375, 25.760809955076155 -21.375, 81.03125 -21.375 M-81.03125 -21.375 C-38.53165771452884 -21.375, 3.967934570942319 -21.375, 81.03125 -21.375 M81.03125 -21.375 C81.03125 -5.599116662332266, 81.03125 10.176766675335468, 81.03125 21.375 M81.03125 -21.375 C81.03125 -4.523328226997965, 81.03125 12.32834354600407, 81.03125 21.375 M81.03125 21.375 C44.72069045131799 21.375, 8.410130902635984 21.375, -81.03125 21.375 M81.03125 21.375 C19.266337655473485 21.375, -42.49857468905303 21.375, -81.03125 21.375 M-81.03125 21.375 C-81.03125 9.063230784422766, -81.03125 -3.2485384311544685, -81.03125 -21.375 M-81.03125 21.375 C-81.03125 6.70341450005613, -81.03125 -7.9681709998877395, -81.03125 -21.375" stroke="#9370DB" stroke-width="1.3" fill="none" stroke-dasharray="0 0"/></g><g style="" class="row-rect-even"><path d="M-81.03125 21.375 L81.03125 21.375 L81.03125 64.125 L-81.03125 64.125" stroke="none" stroke-width="0" fill="hsl(240, 100%, 97.2745098039%)"/><path d="M-81.03125 21.375 C-22.662827499597135 21.375, 35.70559500080573 21.375, 81.03125 21.375 M-81.03125 21.375 C-38.26637740435833 21.375, 4.4984951912833395 21.375, 81.03125 21.375 M81.03125 21.375 C81.03125 30.473762973071942, 81.03125 39.572525946143884, 81.03125 64.125 M81.03125 21.375 C81.03125 34.38267792644647, 81.03125 47.39035585289294, 81.03125 64.125 M81.03125 64.125 C42.0984648195135 64.125, 3.1656796390270046 64.125, -81.03125 64.125 M81.03125 64.125 C35.793729574882875 64.125, -9.443790850234251 64.125, -81.03125 64.125 M-81.03125 64.125 C-81.03125 48.2058808993945, -81.03125 32.286761798789, -81.03125 21.375 M-81.03125 64.125 C-81.03125 53.870841932353, -81.03125 43.616683864706005, -81.03125 21.375" stroke="#9370DB" stroke-width="1.3" fill="none" stroke-dasharray="0 0"/></g><g class="label name" transform="translate(-40.6015625, -54.75)" style=""><foreignObject width="81.203125" height="24"><div xmlns="http://www.w3.org/1999/xhtml" style="display: table-cell; white-space: nowrap; line-height: 1.5; max-width: 176px; text-align: start;"><span class="nodeLabel"><p>TidyGcmed</p></span></div></foreignObject></g><g class="label attribute-type" transform="translate(-68.53125, -12)" style=""><foreignObject width="39.125" height="24"><div xmlns="http://www.w3.org/1999/xhtml" style="display: table-cell; white-space: nowrap; line-height: 1.5; max-width: 136px; text-align: start;"><span class="nodeLabel"><p>string</p></span></div></foreignObject></g><g class="label attribute-name" transform="translate(-4.40625, -12)" style=""><foreignObject width="72.9375" height="24"><div xmlns="http://www.w3.org/1999/xhtml" style="display: table-cell; white-space: nowrap; line-height: 1.5; max-width: 166px; text-align: start;"><span class="nodeLabel"><p>gc_bucket</p></span></div></foreignObject></g><g class="label attribute-keys" transform="translate(93.53125, -12)" style=""><foreignObject width="0" height="0"><div xmlns="http://www.w3.org/1999/xhtml" style="display: table-cell; white-space: nowrap; line-height: 1.5; max-width: 100px; text-align: start;"><span class="nodeLabel"></span></div></foreignObject></g><g class="label attribute-comment" transform="translate(93.53125, -12)" style=""><foreignObject width="0" height="0"><div xmlns="http://www.w3.org/1999/xhtml" style="display: table-cell; white-space: nowrap; line-height: 1.5; max-width: 100px; text-align: start;"><span class="nodeLabel"></span></div></foreignObject></g><g class="label attribute-type" transform="translate(-68.53125, 30.75)" style=""><foreignObject width="30.25" height="24"><div xmlns="http://www.w3.org/1999/xhtml" style="display: table-cell; white-space: nowrap; line-height: 1.5; max-width: 130px; text-align: start;"><span class="nodeLabel"><p>float</p></span></div></foreignObject></g><g class="label attribute-name" transform="translate(-4.40625, 30.75)" style=""><foreignObject width="52.484375" height="24"><div xmlns="http://www.w3.org/1999/xhtml" style="display: table-cell; white-space: nowrap; line-height: 1.5; max-width: 147px; text-align: start;"><span class="nodeLabel"><p>median</p></span></div></foreignObject></g><g class="label attribute-keys" transform="translate(93.53125, 30.75)" style=""><foreignObject width="0" height="0"><div xmlns="http://www.w3.org/1999/xhtml" style="display: table-cell; white-space: nowrap; line-height: 1.5; max-width: 100px; text-align: start;"><span class="nodeLabel"></span></div></foreignObject></g><g class="label attribute-comment" transform="translate(93.53125, 30.75)" style=""><foreignObject width="0" height="0"><div xmlns="http://www.w3.org/1999/xhtml" style="display: table-cell; white-space: nowrap; line-height: 1.5; max-width: 100px; text-align: start;"><span class="nodeLabel"></span></div></foreignObject></g><g class="divider"><path d="M-81.03125 -21.375 C-40.727163570061826 -21.375, -0.4230771401236524 -21.375, 81.03125 -21.375 M-81.03125 -21.375 C-34.166953143283145 -21.375, 12.69734371343371 -21.375, 81.03125 -21.375" stroke="#9370DB" stroke-width="1.3" fill="none" stroke-dasharray="0 0"/></g><g class="divider"><path d="M-16.90625 -21.375 C-16.90625 -2.168084291209464, -16.90625 17.038831417581072, -16.90625 64.125 M-16.90625 -21.375 C-16.90625 -0.4617534688217013, -16.90625 20.451493062356597, -16.90625 64.125" stroke="#9370DB" stroke-width="1.3" fill="none" stroke-dasharray="0 0"/></g><g class="divider"><path d="M-81.03125 -21.375 C-24.063315732789185 -21.375, 32.90461853442163 -21.375, 81.03125 -21.375 M-81.03125 -21.375 C-16.448875225890944 -21.375, 48.13349954821811 -21.375, 81.03125 -21.375" stroke="#9370DB" stroke-width="1.3" fill="none" stroke-dasharray="0 0"/></g></g><g class="node default" id="entity-RawRatiomed-2" transform="translate(704.7109375, 179)"><g style=""><path d="M-90.8046875 -85.5 L90.8046875 -85.5 L90.8046875 85.5 L-90.8046875 85.5" stroke="none" stroke-width="0" fill="#ECECFF"/><path d="M-90.8046875 -85.5 C-32.81224670634745 -85.5, 25.180194087305097 -85.5, 90.8046875 -85.5 M-90.8046875 -85.5 C-33.09854238805551 -85.5, 24.607602723888974 -85.5, 90.8046875 -85.5 M90.8046875 -85.5 C90.8046875 -29.320962496778264, 90.8046875 26.85807500644347, 90.8046875 85.5 M90.8046875 -85.5 C90.8046875 -40.137358712813686, 90.8046875 5.225282574372628, 90.8046875 85.5 M90.8046875 85.5 C20.253727617727137 85.5, -50.29723226454573 85.5, -90.8046875 85.5 M90.8046875 85.5 C48.42796698522089 85.5, 6.051246470441782 85.5, -90.8046875 85.5 M-90.8046875 85.5 C-90.8046875 18.56885407002987, -90.8046875 -48.36229185994026, -90.8046875 -85.5 M-90.8046875 85.5 C-90.8046875 19.02931972469706, -90.8046875 -47.44136055060588, -90.8046875 -85.5" stroke="#9370DB" stroke-width="1.3" fill="none" stroke-dasharray="0 0"/></g><g style="" class="row-rect-odd"><path d="M-90.8046875 -42.75 L90.8046875 -42.75 L90.8046875 0 L-90.8046875 0" stroke="none" stroke-width="0" fill="hsl(240, 100%, 100%)"/><path d="M-90.8046875 -42.75 C-28.300010907238743 -42.75, 34.204665685522514 -42.75, 90.8046875 -42.75 M-90.8046875 -42.75 C-46.347019084683865 -42.75, -1.8893506693677296 -42.75, 90.8046875 -42.75 M90.8046875 -42.75 C90.8046875 -26.957680379310908, 90.8046875 -11.16536075862182, 90.8046875 0 M90.8046875 -42.75 C90.8046875 -32.959675891923155, 90.8046875 -23.169351783846306, 90.8046875 0 M90.8046875 0 C23.662188863240985 0, -43.48030977351803 0, -90.8046875 0 M90.8046875 0 C25.647980272197017 0, -39.508726955605965 0, -90.8046875 0 M-90.8046875 0 C-90.8046875 -16.85003113750689, -90.8046875 -33.70006227501378, -90.8046875 -42.75 M-90.8046875 0 C-90.8046875 -9.86746476452719, -90.8046875 -19.73492952905438, -90.8046875 -42.75" stroke="#9370DB" stroke-width="1.3" fill="none" stroke-dasharray="0 0"/></g><g style="" class="row-rect-even"><path d="M-90.8046875 0 L90.8046875 0 L90.8046875 42.75 L-90.8046875 42.75" stroke="none" stroke-width="0" fill="hsl(240, 100%, 97.2745098039%)"/><path d="M-90.8046875 0 C-26.5204802599074 0, 37.7637269801852 0, 90.8046875 0 M-90.8046875 0 C-43.845185908860216 0, 3.1143156822795675 0, 90.8046875 0 M90.8046875 0 C90.8046875 12.860136183793834, 90.8046875 25.72027236758767, 90.8046875 42.75 M90.8046875 0 C90.8046875 16.34082134057546, 90.8046875 32.68164268115092, 90.8046875 42.75 M90.8046875 42.75 C49.20475475665354 42.75, 7.604822013307086 42.75, -90.8046875 42.75 M90.8046875 42.75 C33.82622351932454 42.75, -23.152240461350914 42.75, -90.8046875 42.75 M-90.8046875 42.75 C-90.8046875 26.944612551741464, -90.8046875 11.139225103482932, -90.8046875 0 M-90.8046875 42.75 C-90.8046875 30.525566660990208, -90.8046875 18.301133321980412, -90.8046875 0" stroke="#9370DB" stroke-width="1.3" fill="none" stroke-dasharray="0 0"/></g><g style="" class="row-rect-odd"><path d="M-90.8046875 42.75 L90.8046875 42.75 L90.8046875 85.5 L-90.8046875 85.5" stroke="none" stroke-width="0" fill="hsl(240, 100%, 100%)"/><path d="M-90.8046875 42.75 C-39.681938982277 42.75, 11.440809535445993 42.75, 90.8046875 42.75 M-90.8046875 42.75 C-36.36771933244959 42.75, 18.069248835100822 42.75, 90.8046875 42.75 M90.8046875 42.75 C90.8046875 52.61632317977069, 90.8046875 62.482646359541384, 90.8046875 85.5 M90.8046875 42.75 C90.8046875 55.255464016248176, 90.8046875 67.76092803249635, 90.8046875 85.5 M90.8046875 85.5 C29.77824380428904 85.5, -31.24819989142192 85.5, -90.8046875 85.5 M90.8046875 85.5 C33.8681785838152 85.5, -23.068330332369598 85.5, -90.8046875 85.5 M-90.8046875 85.5 C-90.8046875 69.3835878534772, -90.8046875 53.26717570695438, -90.8046875 42.75 M-90.8046875 85.5 C-90.8046875 71.95230543865428, -90.8046875 58.404610877308556, -90.8046875 42.75" stroke="#9370DB" stroke-width="1.3" fill="none" stroke-dasharray="0 0"/></g><g class="label name" transform="translate(-50.2421875, -76.125)" style=""><foreignObject width="100.484375" height="24"><div xmlns="http://www.w3.org/1999/xhtml" style="display: table-cell; white-space: nowrap; line-height: 1.5; max-width: 192px; text-align: start;"><span class="nodeLabel"><p>RawRatiomed</p></span></div></foreignObject></g><g class="label attribute-type" transform="translate(-78.3046875, -33.375)" style=""><foreignObject width="39.125" height="24"><div xmlns="http://www.w3.org/1999/xhtml" style="display: table-cell; white-space: nowrap; line-height: 1.5; max-width: 136px; text-align: start;"><span class="nodeLabel"><p>string</p></span></div></foreignObject></g><g class="label attribute-name" transform="translate(-14.1796875, -33.375)" style=""><foreignObject width="92.484375" height="24"><div xmlns="http://www.w3.org/1999/xhtml" style="display: table-cell; white-space: nowrap; line-height: 1.5; max-width: 183px; text-align: start;"><span class="nodeLabel"><p>chromosome</p></span></div></foreignObject></g><g class="label attribute-keys" transform="translate(103.3046875, -33.375)" style=""><foreignObject width="0" height="0"><div xmlns="http://www.w3.org/1999/xhtml" style="display: table-cell; white-space: nowrap; line-height: 1.5; max-width: 100px; text-align: start;"><span class="nodeLabel"></span></div></foreignObject></g><g class="label attribute-comment" transform="translate(103.3046875, -33.375)" style=""><foreignObject width="0" height="0"><div xmlns="http://www.w3.org/1999/xhtml" style="display: table-cell; white-space: nowrap; line-height: 1.5; max-width: 100px; text-align: start;"><span class="nodeLabel"></span></div></foreignObject></g><g class="label attribute-type" transform="translate(-78.3046875, 9.375)" style=""><foreignObject width="30.25" height="24"><div xmlns="http://www.w3.org/1999/xhtml" style="display: table-cell; white-space: nowrap; line-height: 1.5; max-width: 130px; text-align: start;"><span class="nodeLabel"><p>float</p></span></div></foreignObject></g><g class="label attribute-name" transform="translate(-14.1796875, 9.375)" style=""><foreignObject width="89.828125" height="24"><div xmlns="http://www.w3.org/1999/xhtml" style="display: table-cell; white-space: nowrap; line-height: 1.5; max-width: 182px; text-align: start;"><span class="nodeLabel"><p>medianRatio</p></span></div></foreignObject></g><g class="label attribute-keys" transform="translate(103.3046875, 9.375)" style=""><foreignObject width="0" height="0"><div xmlns="http://www.w3.org/1999/xhtml" style="display: table-cell; white-space: nowrap; line-height: 1.5; max-width: 100px; text-align: start;"><span class="nodeLabel"></span></div></foreignObject></g><g class="label attribute-comment" transform="translate(103.3046875, 9.375)" style=""><foreignObject width="0" height="0"><div xmlns="http://www.w3.org/1999/xhtml" style="display: table-cell; white-space: nowrap; line-height: 1.5; max-width: 100px; text-align: start;"><span class="nodeLabel"></span></div></foreignObject></g><g class="label attribute-type" transform="translate(-78.3046875, 52.125)" style=""><foreignObject width="30.25" height="24"><div xmlns="http://www.w3.org/1999/xhtml" style="display: table-cell; white-space: nowrap; line-height: 1.5; max-width: 130px; text-align: start;"><span class="nodeLabel"><p>float</p></span></div></foreignObject></g><g class="label attribute-name" transform="translate(-14.1796875, 52.125)" style=""><foreignObject width="39.140625" height="24"><div xmlns="http://www.w3.org/1999/xhtml" style="display: table-cell; white-space: nowrap; line-height: 1.5; max-width: 136px; text-align: start;"><span class="nodeLabel"><p>count</p></span></div></foreignObject></g><g class="label attribute-keys" transform="translate(103.3046875, 52.125)" style=""><foreignObject width="0" height="0"><div xmlns="http://www.w3.org/1999/xhtml" style="display: table-cell; white-space: nowrap; line-height: 1.5; max-width: 100px; text-align: start;"><span class="nodeLabel"></span></div></foreignObject></g><g class="label attribute-comment" transform="translate(103.3046875, 52.125)" style=""><foreignObject width="0" height="0"><div xmlns="http://www.w3.org/1999/xhtml" style="display: table-cell; white-space: nowrap; line-height: 1.5; max-width: 100px; text-align: start;"><span class="nodeLabel"></span></div></foreignObject></g><g class="divider"><path d="M-90.8046875 -42.75 C-47.827298361590266 -42.75, -4.849909223180532 -42.75, 90.8046875 -42.75 M-90.8046875 -42.75 C-45.961880756799594 -42.75, -1.1190740135991888 -42.75, 90.8046875 -42.75" stroke="#9370DB" stroke-width="1.3" fill="none" stroke-dasharray="0 0"/></g><g class="divider"><path d="M-26.6796875 -42.75 C-26.6796875 -4.642798674954278, -26.6796875 33.46440265009144, -26.6796875 85.5 M-26.6796875 -42.75 C-26.6796875 -12.771557685576337, -26.6796875 17.206884628847327, -26.6796875 85.5" stroke="#9370DB" stroke-width="1.3" fill="none" stroke-dasharray="0 0"/></g><g class="divider"><path d="M-90.8046875 -42.75 C-41.931463478369125 -42.75, 6.941760543261751 -42.75, 90.8046875 -42.75 M-90.8046875 -42.75 C-26.100580324107696 -42.75, 38.60352685178461 -42.75, 90.8046875 -42.75" stroke="#9370DB" stroke-width="1.3" fill="none" stroke-dasharray="0 0"/></g></g><g class="node default" id="entity-TidyRatiomed-3" transform="translate(1026.328125, 179)"><g style=""><path d="M-90.8125 -85.5 L90.8125 -85.5 L90.8125 85.5 L-90.8125 85.5" stroke="none" stroke-width="0" fill="#ECECFF"/><path d="M-90.8125 -85.5 C-39.679799151316125 -85.5, 11.45290169736775 -85.5, 90.8125 -85.5 M-90.8125 -85.5 C-43.36886876506224 -85.5, 4.074762469875523 -85.5, 90.8125 -85.5 M90.8125 -85.5 C90.8125 -21.192900462990167, 90.8125 43.114199074019666, 90.8125 85.5 M90.8125 -85.5 C90.8125 -30.206275009173964, 90.8125 25.08744998165207, 90.8125 85.5 M90.8125 85.5 C27.324449552619072 85.5, -36.163600894761856 85.5, -90.8125 85.5 M90.8125 85.5 C19.428566790369928 85.5, -51.955366419260145 85.5, -90.8125 85.5 M-90.8125 85.5 C-90.8125 41.39770099983954, -90.8125 -2.704598000320914, -90.8125 -85.5 M-90.8125 85.5 C-90.8125 18.360502928605612, -90.8125 -48.778994142788775, -90.8125 -85.5" stroke="#9370DB" stroke-width="1.3" fill="none" stroke-dasharray="0 0"/></g><g style="" class="row-rect-odd"><path d="M-90.8125 -42.75 L90.8125 -42.75 L90.8125 0 L-90.8125 0" stroke="none" stroke-width="0" fill="hsl(240, 100%, 100%)"/><path d="M-90.8125 -42.75 C-19.78429590777992 -42.75, 51.24390818444016 -42.75, 90.8125 -42.75 M-90.8125 -42.75 C-34.05885299742599 -42.75, 22.694794005148026 -42.75, 90.8125 -42.75 M90.8125 -42.75 C90.8125 -32.504572611731824, 90.8125 -22.25914522346365, 90.8125 0 M90.8125 -42.75 C90.8125 -32.62117016648028, 90.8125 -22.492340332960573, 90.8125 0 M90.8125 0 C36.98624726214751 0, -16.840005475704984 0, -90.8125 0 M90.8125 0 C44.90039279348129 0, -1.0117144130374243 0, -90.8125 0 M-90.8125 0 C-90.8125 -16.4872690136061, -90.8125 -32.9745380272122, -90.8125 -42.75 M-90.8125 0 C-90.8125 -16.191683339049106, -90.8125 -32.38336667809821, -90.8125 -42.75" stroke="#9370DB" stroke-width="1.3" fill="none" stroke-dasharray="0 0"/></g><g style="" class="row-rect-even"><path d="M-90.8125 0 L90.8125 0 L90.8125 42.75 L-90.8125 42.75" stroke="none" stroke-width="0" fill="hsl(240, 100%, 97.2745098039%)"/><path d="M-90.8125 0 C-18.294093482612936 0, 54.22431303477413 0, 90.8125 0 M-90.8125 0 C-35.075652241982375 0, 20.66119551603525 0, 90.8125 0 M90.8125 0 C90.8125 10.502981678128794, 90.8125 21.00596335625759, 90.8125 42.75 M90.8125 0 C90.8125 12.125978551709549, 90.8125 24.251957103419098, 90.8125 42.75 M90.8125 42.75 C23.068240912794906 42.75, -44.67601817441019 42.75, -90.8125 42.75 M90.8125 42.75 C40.18038379505551 42.75, -10.451732409888976 42.75, -90.8125 42.75 M-90.8125 42.75 C-90.8125 30.37319543946395, -90.8125 17.996390878927894, -90.8125 0 M-90.8125 42.75 C-90.8125 27.28774295920525, -90.8125 11.8254859184105, -90.8125 0" stroke="#9370DB" stroke-width="1.3" fill="none" stroke-dasharray="0 0"/></g><g style="" class="row-rect-odd"><path d="M-90.8125 42.75 L90.8125 42.75 L90.8125 85.5 L-90.8125 85.5" stroke="none" stroke-width="0" fill="hsl(240, 100%, 100%)"/><path d="M-90.8125 42.75 C-31.582956464349593 42.75, 27.646587071300814 42.75, 90.8125 42.75 M-90.8125 42.75 C-19.990257056030472 42.75, 50.831985887939055 42.75, 90.8125 42.75 M90.8125 42.75 C90.8125 57.62043054454314, 90.8125 72.49086108908628, 90.8125 85.5 M90.8125 42.75 C90.8125 59.55928517764727, 90.8125 76.36857035529454, 90.8125 85.5 M90.8125 85.5 C40.78443977504584 85.5, -9.24362044990832 85.5, -90.8125 85.5 M90.8125 85.5 C19.90385850584822 85.5, -51.00478298830356 85.5, -90.8125 85.5 M-90.8125 85.5 C-90.8125 72.45874437184378, -90.8125 59.41748874368756, -90.8125 42.75 M-90.8125 85.5 C-90.8125 71.41361835652481, -90.8125 57.32723671304962, -90.8125 42.75" stroke="#9370DB" stroke-width="1.3" fill="none" stroke-dasharray="0 0"/></g><g class="label name" transform="translate(-49.0546875, -76.125)" style=""><foreignObject width="98.109375" height="24"><div xmlns="http://www.w3.org/1999/xhtml" style="display: table-cell; white-space: nowrap; line-height: 1.5; max-width: 192px; text-align: start;"><span class="nodeLabel"><p>TidyRatiomed</p></span></div></foreignObject></g><g class="label attribute-type" transform="translate(-78.3125, -33.375)" style=""><foreignObject width="39.125" height="24"><div xmlns="http://www.w3.org/1999/xhtml" style="display: table-cell; white-space: nowrap; line-height: 1.5; max-width: 136px; text-align: start;"><span class="nodeLabel"><p>string</p></span></div></foreignObject></g><g class="label attribute-name" transform="translate(-14.1875, -33.375)" style=""><foreignObject width="44.453125" height="24"><div xmlns="http://www.w3.org/1999/xhtml" style="display: table-cell; white-space: nowrap; line-height: 1.5; max-width: 141px; text-align: start;"><span class="nodeLabel"><p>chrom</p></span></div></foreignObject></g><g class="label attribute-keys" transform="translate(103.3125, -33.375)" style=""><foreignObject width="0" height="0"><div xmlns="http://www.w3.org/1999/xhtml" style="display: table-cell; white-space: nowrap; line-height: 1.5; max-width: 100px; text-align: start;"><span class="nodeLabel"></span></div></foreignObject></g><g class="label attribute-comment" transform="translate(103.3125, -33.375)" style=""><foreignObject width="0" height="0"><div xmlns="http://www.w3.org/1999/xhtml" style="display: table-cell; white-space: nowrap; line-height: 1.5; max-width: 100px; text-align: start;"><span class="nodeLabel"></span></div></foreignObject></g><g class="label attribute-type" transform="translate(-78.3125, 9.375)" style=""><foreignObject width="30.25" height="24"><div xmlns="http://www.w3.org/1999/xhtml" style="display: table-cell; white-space: nowrap; line-height: 1.5; max-width: 130px; text-align: start;"><span class="nodeLabel"><p>float</p></span></div></foreignObject></g><g class="label attribute-name" transform="translate(-14.1875, 9.375)" style=""><foreignObject width="92.5" height="24"><div xmlns="http://www.w3.org/1999/xhtml" style="display: table-cell; white-space: nowrap; line-height: 1.5; max-width: 193px; text-align: start;"><span class="nodeLabel"><p>median_ratio</p></span></div></foreignObject></g><g class="label attribute-keys" transform="translate(103.3125, 9.375)" style=""><foreignObject width="0" height="0"><div xmlns="http://www.w3.org/1999/xhtml" style="display: table-cell; white-space: nowrap; line-height: 1.5; max-width: 100px; text-align: start;"><span class="nodeLabel"></span></div></foreignObject></g><g class="label attribute-comment" transform="translate(103.3125, 9.375)" style=""><foreignObject width="0" height="0"><div xmlns="http://www.w3.org/1999/xhtml" style="display: table-cell; white-space: nowrap; line-height: 1.5; max-width: 100px; text-align: start;"><span class="nodeLabel"></span></div></foreignObject></g><g class="label attribute-type" transform="translate(-78.3125, 52.125)" style=""><foreignObject width="30.25" height="24"><div xmlns="http://www.w3.org/1999/xhtml" style="display: table-cell; white-space: nowrap; line-height: 1.5; max-width: 130px; text-align: start;"><span class="nodeLabel"><p>float</p></span></div></foreignObject></g><g class="label attribute-name" transform="translate(-14.1875, 52.125)" style=""><foreignObject width="39.140625" height="24"><div xmlns="http://www.w3.org/1999/xhtml" style="display: table-cell; white-space: nowrap; line-height: 1.5; max-width: 136px; text-align: start;"><span class="nodeLabel"><p>count</p></span></div></foreignObject></g><g class="label attribute-keys" transform="translate(103.3125, 52.125)" style=""><foreignObject width="0" height="0"><div xmlns="http://www.w3.org/1999/xhtml" style="display: table-cell; white-space: nowrap; line-height: 1.5; max-width: 100px; text-align: start;"><span class="nodeLabel"></span></div></foreignObject></g><g class="label attribute-comment" transform="translate(103.3125, 52.125)" style=""><foreignObject width="0" height="0"><div xmlns="http://www.w3.org/1999/xhtml" style="display: table-cell; white-space: nowrap; line-height: 1.5; max-width: 100px; text-align: start;"><span class="nodeLabel"></span></div></foreignObject></g><g class="divider"><path d="M-90.8125 -42.75 C-33.31539921303594 -42.75, 24.181701573928123 -42.75, 90.8125 -42.75 M-90.8125 -42.75 C-36.835710691523715 -42.75, 17.14107861695257 -42.75, 90.8125 -42.75" stroke="#9370DB" stroke-width="1.3" fill="none" stroke-dasharray="0 0"/></g><g class="divider"><path d="M-26.6875 -42.75 C-26.6875 -6.2582752326867634, -26.6875 30.233449534626473, -26.6875 85.5 M-26.6875 -42.75 C-26.6875 2.619060380813721, -26.6875 47.98812076162744, -26.6875 85.5" stroke="#9370DB" stroke-width="1.3" fill="none" stroke-dasharray="0 0"/></g><g class="divider"><path d="M-90.8125 -42.75 C-26.218695748005786 -42.75, 38.37510850398843 -42.75, 90.8125 -42.75 M-90.8125 -42.75 C-42.52143832292464 -42.75, 5.769623354150724 -42.75, 90.8125 -42.75" stroke="#9370DB" stroke-width="1.3" fill="none" stroke-dasharray="0 0"/></g></g><g class="node default" id="entity-RawRatiopcf-4" transform="translate(1340.390625, 179)"><g style=""><path d="M-83.25 -171 L83.25 -171 L83.25 171 L-83.25 171" stroke="none" stroke-width="0" fill="#ECECFF"/><path d="M-83.25 -171 C-46.276997163130886 -171, -9.303994326261773 -171, 83.25 -171 M-83.25 -171 C-43.9415503774584 -171, -4.633100754916796 -171, 83.25 -171 M83.25 -171 C83.25 -56.74234023319437, 83.25 57.51531953361126, 83.25 171 M83.25 -171 C83.25 -49.399622700260906, 83.25 72.20075459947819, 83.25 171 M83.25 171 C34.46740016544023 171, -14.315199669119536 171, -83.25 171 M83.25 171 C41.493609356057384 171, -0.2627812878852325 171, -83.25 171 M-83.25 171 C-83.25 97.09108695106285, -83.25 23.182173902125697, -83.25 -171 M-83.25 171 C-83.25 84.08515874373477, -83.25 -2.829682512530468, -83.25 -171" stroke="#9370DB" stroke-width="1.3" fill="none" stroke-dasharray="0 0"/></g><g style="" class="row-rect-odd"><path d="M-83.25 -128.25 L83.25 -128.25 L83.25 -85.5 L-83.25 -85.5" stroke="none" stroke-width="0" fill="hsl(240, 100%, 100%)"/><path d="M-83.25 -128.25 C-32.053188026187584 -128.25, 19.14362394762483 -128.25, 83.25 -128.25 M-83.25 -128.25 C-16.87518566969358 -128.25, 49.49962866061284 -128.25, 83.25 -128.25 M83.25 -128.25 C83.25 -111.50242261442237, 83.25 -94.75484522884474, 83.25 -85.5 M83.25 -128.25 C83.25 -114.38375015526867, 83.25 -100.51750031053734, 83.25 -85.5 M83.25 -85.5 C45.21126913734983 -85.5, 7.1725382746996615 -85.5, -83.25 -85.5 M83.25 -85.5 C35.23192929221352 -85.5, -12.786141415572956 -85.5, -83.25 -85.5 M-83.25 -85.5 C-83.25 -94.54937990013387, -83.25 -103.59875980026774, -83.25 -128.25 M-83.25 -85.5 C-83.25 -98.15571014596108, -83.25 -110.81142029192216, -83.25 -128.25" stroke="#9370DB" stroke-width="1.3" fill="none" stroke-dasharray="0 0"/></g><g style="" class="row-rect-even"><path d="M-83.25 -85.5 L83.25 -85.5 L83.25 -42.75 L-83.25 -42.75" stroke="none" stroke-width="0" fill="hsl(240, 100%, 97.2745098039%)"/><path d="M-83.25 -85.5 C-45.762050877509985 -85.5, -8.27410175501997 -85.5, 83.25 -85.5 M-83.25 -85.5 C-32.9224501039819 -85.5, 17.405099792036197 -85.5, 83.25 -85.5 M83.25 -85.5 C83.25 -75.50194365013019, 83.25 -65.50388730026039, 83.25 -42.75 M83.25 -85.5 C83.25 -71.86090852215892, 83.25 -58.221817044317845, 83.25 -42.75 M83.25 -42.75 C40.111391991653704 -42.75, -3.0272160166925914 -42.75, -83.25 -42.75 M83.25 -42.75 C26.046633958017978 -42.75, -31.156732083964044 -42.75, -83.25 -42.75 M-83.25 -42.75 C-83.25 -58.36635743002938, -83.25 -73.98271486005876, -83.25 -85.5 M-83.25 -42.75 C-83.25 -55.55156361045278, -83.25 -68.35312722090556, -83.25 -85.5" stroke="#9370DB" stroke-width="1.3" fill="none" stroke-dasharray="0 0"/></g><g style="" class="row-rect-odd"><path d="M-83.25 -42.75 L83.25 -42.75 L83.25 0 L-83.25 0" stroke="none" stroke-width="0" fill="hsl(240, 100%, 100%)"/><path d="M-83.25 -42.75 C-29.862598930243152 -42.75, 23.524802139513696 -42.75, 83.25 -42.75 M-83.25 -42.75 C-19.035129635548145 -42.75, 45.17974072890371 -42.75, 83.25 -42.75 M83.25 -42.75 C83.25 -32.831824745566095, 83.25 -22.913649491132183, 83.25 0 M83.25 -42.75 C83.25 -33.43373658588649, 83.25 -24.117473171772986, 83.25 0 M83.25 0 C44.85653187017206 0, 6.463063740344126 0, -83.25 0 M83.25 0 C29.57367136331095 0, -24.1026572733781 0, -83.25 0 M-83.25 0 C-83.25 -12.108318702779485, -83.25 -24.21663740555897, -83.25 -42.75 M-83.25 0 C-83.25 -13.633280057148218, -83.25 -27.266560114296436, -83.25 -42.75" stroke="#9370DB" stroke-width="1.3" fill="none" stroke-dasharray="0 0"/></g><g style="" class="row-rect-even"><path d="M-83.25 0 L83.25 0 L83.25 42.75 L-83.25 42.75" stroke="none" stroke-width="0" fill="hsl(240, 100%, 97.2745098039%)"/><path d="M-83.25 0 C-46.82525413086244 0, -10.40050826172488 0, 83.25 0 M-83.25 0 C-31.44763155118094 0, 20.35473689763812 0, 83.25 0 M83.25 0 C83.25 11.59543261857164, 83.25 23.19086523714328, 83.25 42.75 M83.25 0 C83.25 12.8319342643194, 83.25 25.6638685286388, 83.25 42.75 M83.25 42.75 C45.93980115809951 42.75, 8.629602316199026 42.75, -83.25 42.75 M83.25 42.75 C36.63213950181047 42.75, -9.985720996379058 42.75, -83.25 42.75 M-83.25 42.75 C-83.25 33.03327216285037, -83.25 23.316544325700743, -83.25 0 M-83.25 42.75 C-83.25 29.621859307296567, -83.25 16.49371861459313, -83.25 0" stroke="#9370DB" stroke-width="1.3" fill="none" stroke-dasharray="0 0"/></g><g style="" class="row-rect-odd"><path d="M-83.25 42.75 L83.25 42.75 L83.25 85.5 L-83.25 85.5" stroke="none" stroke-width="0" fill="hsl(240, 100%, 100%)"/><path d="M-83.25 42.75 C-46.10537420303388 42.75, -8.960748406067765 42.75, 83.25 42.75 M-83.25 42.75 C-26.76203060176686 42.75, 29.72593879646628 42.75, 83.25 42.75 M83.25 42.75 C83.25 58.158412548941236, 83.25 73.56682509788247, 83.25 85.5 M83.25 42.75 C83.25 58.159192593383935, 83.25 73.56838518676787, 83.25 85.5 M83.25 85.5 C41.64071351302911 85.5, 0.03142702605822478 85.5, -83.25 85.5 M83.25 85.5 C19.700706696577562 85.5, -43.848586606844876 85.5, -83.25 85.5 M-83.25 85.5 C-83.25 76.39853283174001, -83.25 67.29706566348003, -83.25 42.75 M-83.25 85.5 C-83.25 71.13993857169248, -83.25 56.77987714338495, -83.25 42.75" stroke="#9370DB" stroke-width="1.3" fill="none" stroke-dasharray="0 0"/></g><g style="" class="row-rect-even"><path d="M-83.25 85.5 L83.25 85.5 L83.25 128.25 L-83.25 128.25" stroke="none" stroke-width="0" fill="hsl(240, 100%, 97.2745098039%)"/><path d="M-83.25 85.5 C-36.182940107486296 85.5, 10.884119785027409 85.5, 83.25 85.5 M-83.25 85.5 C-32.31789066988563 85.5, 18.614218660228744 85.5, 83.25 85.5 M83.25 85.5 C83.25 94.67294138752015, 83.25 103.84588277504031, 83.25 128.25 M83.25 85.5 C83.25 99.10362062370217, 83.25 112.70724124740433, 83.25 128.25 M83.25 128.25 C43.7851403656325 128.25, 4.320280731265001 128.25, -83.25 128.25 M83.25 128.25 C43.41693334663849 128.25, 3.583866693276974 128.25, -83.25 128.25 M-83.25 128.25 C-83.25 113.00163854051557, -83.25 97.75327708103114, -83.25 85.5 M-83.25 128.25 C-83.25 112.15127507580657, -83.25 96.05255015161313, -83.25 85.5" stroke="#9370DB" stroke-width="1.3" fill="none" stroke-dasharray="0 0"/></g><g style="" class="row-rect-odd"><path d="M-83.25 128.25 L83.25 128.25 L83.25 171 L-83.25 171" stroke="none" stroke-width="0" fill="hsl(240, 100%, 100%)"/><path d="M-83.25 128.25 C-27.03492693056345 128.25, 29.1801461388731 128.25, 83.25 128.25 M-83.25 128.25 C-45.195604067154264 128.25, -7.141208134308528 128.25, 83.25 128.25 M83.25 128.25 C83.25 144.89676221062095, 83.25 161.5435244212419, 83.25 171 M83.25 128.25 C83.25 142.94638012800783, 83.25 157.64276025601566, 83.25 171 M83.25 171 C26.33595542799374 171, -30.578089144012523 171, -83.25 171 M83.25 171 C28.689784229812552 171, -25.870431540374895 171, -83.25 171 M-83.25 171 C-83.25 155.11351674320096, -83.25 139.22703348640192, -83.25 128.25 M-83.25 171 C-83.25 157.7575479791539, -83.25 144.51509595830782, -83.25 128.25" stroke="#9370DB" stroke-width="1.3" fill="none" stroke-dasharray="0 0"/></g><g class="label name" transform="translate(-45.3515625, -161.625)" style=""><foreignObject width="90.703125" height="24"><div xmlns="http://www.w3.org/1999/xhtml" style="display: table-cell; white-space: nowrap; line-height: 1.5; max-width: 185px; text-align: start;"><span class="nodeLabel"><p>RawRatiopcf</p></span></div></foreignObject></g><g class="label attribute-type" transform="translate(-70.75, -118.875)" style=""><foreignObject width="39.125" height="24"><div xmlns="http://www.w3.org/1999/xhtml" style="display: table-cell; white-space: nowrap; line-height: 1.5; max-width: 136px; text-align: start;"><span class="nodeLabel"><p>string</p></span></div></foreignObject></g><g class="label attribute-name" transform="translate(3.171875, -118.875)" style=""><foreignObject width="67.578125" height="24"><div xmlns="http://www.w3.org/1999/xhtml" style="display: table-cell; white-space: nowrap; line-height: 1.5; max-width: 162px; text-align: start;"><span class="nodeLabel"><p>sampleID</p></span></div></foreignObject></g><g class="label attribute-keys" transform="translate(95.75, -118.875)" style=""><foreignObject width="0" height="0"><div xmlns="http://www.w3.org/1999/xhtml" style="display: table-cell; white-space: nowrap; line-height: 1.5; max-width: 100px; text-align: start;"><span class="nodeLabel"></span></div></foreignObject></g><g class="label attribute-comment" transform="translate(95.75, -118.875)" style=""><foreignObject width="0" height="0"><div xmlns="http://www.w3.org/1999/xhtml" style="display: table-cell; white-space: nowrap; line-height: 1.5; max-width: 100px; text-align: start;"><span class="nodeLabel"></span></div></foreignObject></g><g class="label attribute-type" transform="translate(-70.75, -76.125)" style=""><foreignObject width="39.125" height="24"><div xmlns="http://www.w3.org/1999/xhtml" style="display: table-cell; white-space: nowrap; line-height: 1.5; max-width: 136px; text-align: start;"><span class="nodeLabel"><p>string</p></span></div></foreignObject></g><g class="label attribute-name" transform="translate(3.171875, -76.125)" style=""><foreignObject width="44.453125" height="24"><div xmlns="http://www.w3.org/1999/xhtml" style="display: table-cell; white-space: nowrap; line-height: 1.5; max-width: 141px; text-align: start;"><span class="nodeLabel"><p>chrom</p></span></div></foreignObject></g><g class="label attribute-keys" transform="translate(95.75, -76.125)" style=""><foreignObject width="0" height="0"><div xmlns="http://www.w3.org/1999/xhtml" style="display: table-cell; white-space: nowrap; line-height: 1.5; max-width: 100px; text-align: start;"><span class="nodeLabel"></span></div></foreignObject></g><g class="label attribute-comment" transform="translate(95.75, -76.125)" style=""><foreignObject width="0" height="0"><div xmlns="http://www.w3.org/1999/xhtml" style="display: table-cell; white-space: nowrap; line-height: 1.5; max-width: 100px; text-align: start;"><span class="nodeLabel"></span></div></foreignObject></g><g class="label attribute-type" transform="translate(-70.75, -33.375)" style=""><foreignObject width="39.125" height="24"><div xmlns="http://www.w3.org/1999/xhtml" style="display: table-cell; white-space: nowrap; line-height: 1.5; max-width: 136px; text-align: start;"><span class="nodeLabel"><p>string</p></span></div></foreignObject></g><g class="label attribute-name" transform="translate(3.171875, -33.375)" style=""><foreignObject width="27.5625" height="24"><div xmlns="http://www.w3.org/1999/xhtml" style="display: table-cell; white-space: nowrap; line-height: 1.5; max-width: 125px; text-align: start;"><span class="nodeLabel"><p>arm</p></span></div></foreignObject></g><g class="label attribute-keys" transform="translate(95.75, -33.375)" style=""><foreignObject width="0" height="0"><div xmlns="http://www.w3.org/1999/xhtml" style="display: table-cell; white-space: nowrap; line-height: 1.5; max-width: 100px; text-align: start;"><span class="nodeLabel"></span></div></foreignObject></g><g class="label attribute-comment" transform="translate(95.75, -33.375)" style=""><foreignObject width="0" height="0"><div xmlns="http://www.w3.org/1999/xhtml" style="display: table-cell; white-space: nowrap; line-height: 1.5; max-width: 100px; text-align: start;"><span class="nodeLabel"></span></div></foreignObject></g><g class="label attribute-type" transform="translate(-70.75, 9.375)" style=""><foreignObject width="30.25" height="24"><div xmlns="http://www.w3.org/1999/xhtml" style="display: table-cell; white-space: nowrap; line-height: 1.5; max-width: 130px; text-align: start;"><span class="nodeLabel"><p>float</p></span></div></foreignObject></g><g class="label attribute-name" transform="translate(3.171875, 9.375)" style=""><foreignObject width="65.8125" height="24"><div xmlns="http://www.w3.org/1999/xhtml" style="display: table-cell; white-space: nowrap; line-height: 1.5; max-width: 158px; text-align: start;"><span class="nodeLabel"><p>start_pos</p></span></div></foreignObject></g><g class="label attribute-keys" transform="translate(95.75, 9.375)" style=""><foreignObject width="0" height="0"><div xmlns="http://www.w3.org/1999/xhtml" style="display: table-cell; white-space: nowrap; line-height: 1.5; max-width: 100px; text-align: start;"><span class="nodeLabel"></span></div></foreignObject></g><g class="label attribute-comment" transform="translate(95.75, 9.375)" style=""><foreignObject width="0" height="0"><div xmlns="http://www.w3.org/1999/xhtml" style="display: table-cell; white-space: nowrap; line-height: 1.5; max-width: 100px; text-align: start;"><span class="nodeLabel"></span></div></foreignObject></g><g class="label attribute-type" transform="translate(-70.75, 52.125)" style=""><foreignObject width="30.25" height="24"><div xmlns="http://www.w3.org/1999/xhtml" style="display: table-cell; white-space: nowrap; line-height: 1.5; max-width: 130px; text-align: start;"><span class="nodeLabel"><p>float</p></span></div></foreignObject></g><g class="label attribute-name" transform="translate(3.171875, 52.125)" style=""><foreignObject width="61.390625" height="24"><div xmlns="http://www.w3.org/1999/xhtml" style="display: table-cell; white-space: nowrap; line-height: 1.5; max-width: 153px; text-align: start;"><span class="nodeLabel"><p>end_pos</p></span></div></foreignObject></g><g class="label attribute-keys" transform="translate(95.75, 52.125)" style=""><foreignObject width="0" height="0"><div xmlns="http://www.w3.org/1999/xhtml" style="display: table-cell; white-space: nowrap; line-height: 1.5; max-width: 100px; text-align: start;"><span class="nodeLabel"></span></div></foreignObject></g><g class="label attribute-comment" transform="translate(95.75, 52.125)" style=""><foreignObject width="0" height="0"><div xmlns="http://www.w3.org/1999/xhtml" style="display: table-cell; white-space: nowrap; line-height: 1.5; max-width: 100px; text-align: start;"><span class="nodeLabel"></span></div></foreignObject></g><g class="label attribute-type" transform="translate(-70.75, 94.875)" style=""><foreignObject width="48.921875" height="24"><div xmlns="http://www.w3.org/1999/xhtml" style="display: table-cell; white-space: nowrap; line-height: 1.5; max-width: 145px; text-align: start;"><span class="nodeLabel"><p>integer</p></span></div></foreignObject></g><g class="label attribute-name" transform="translate(3.171875, 94.875)" style=""><foreignObject width="66.71875" height="24"><div xmlns="http://www.w3.org/1999/xhtml" style="display: table-cell; white-space: nowrap; line-height: 1.5; max-width: 159px; text-align: start;"><span class="nodeLabel"><p>n_probes</p></span></div></foreignObject></g><g class="label attribute-keys" transform="translate(95.75, 94.875)" style=""><foreignObject width="0" height="0"><div xmlns="http://www.w3.org/1999/xhtml" style="display: table-cell; white-space: nowrap; line-height: 1.5; max-width: 100px; text-align: start;"><span class="nodeLabel"></span></div></foreignObject></g><g class="label attribute-comment" transform="translate(95.75, 94.875)" style=""><foreignObject width="0" height="0"><div xmlns="http://www.w3.org/1999/xhtml" style="display: table-cell; white-space: nowrap; line-height: 1.5; max-width: 100px; text-align: start;"><span class="nodeLabel"></span></div></foreignObject></g><g class="label attribute-type" transform="translate(-70.75, 137.625)" style=""><foreignObject width="30.25" height="24"><div xmlns="http://www.w3.org/1999/xhtml" style="display: table-cell; white-space: nowrap; line-height: 1.5; max-width: 130px; text-align: start;"><span class="nodeLabel"><p>float</p></span></div></foreignObject></g><g class="label attribute-name" transform="translate(3.171875, 137.625)" style=""><foreignObject width="40.03125" height="24"><div xmlns="http://www.w3.org/1999/xhtml" style="display: table-cell; white-space: nowrap; line-height: 1.5; max-width: 135px; text-align: start;"><span class="nodeLabel"><p>mean</p></span></div></foreignObject></g><g class="label attribute-keys" transform="translate(95.75, 137.625)" style=""><foreignObject width="0" height="0"><div xmlns="http://www.w3.org/1999/xhtml" style="display: table-cell; white-space: nowrap; line-height: 1.5; max-width: 100px; text-align: start;"><span class="nodeLabel"></span></div></foreignObject></g><g class="label attribute-comment" transform="translate(95.75, 137.625)" style=""><foreignObject width="0" height="0"><div xmlns="http://www.w3.org/1999/xhtml" style="display: table-cell; white-space: nowrap; line-height: 1.5; max-width: 100px; text-align: start;"><span class="nodeLabel"></span></div></foreignObject></g><g class="divider"><path d="M-83.25 -128.25 C-25.19148328133212 -128.25, 32.86703343733576 -128.25, 83.25 -128.25 M-83.25 -128.25 C-40.539645162991235 -128.25, 2.1707096740175302 -128.25, 83.25 -128.25" stroke="#9370DB" stroke-width="1.3" fill="none" stroke-dasharray="0 0"/></g><g class="divider"><path d="M-9.328125 -128.25 C-9.328125 -22.269381374985784, -9.328125 83.71123725002843, -9.328125 171 M-9.328125 -128.25 C-9.328125 -25.92484971090103, -9.328125 76.40030057819794, -9.328125 171" stroke="#9370DB" stroke-width="1.3" fill="none" stroke-dasharray="0 0"/></g><g class="divider"><path d="M-83.25 -128.25 C-18.16003746735788 -128.25, 46.92992506528424 -128.25, 83.25 -128.25 M-83.25 -128.25 C-42.53292819579058 -128.25, -1.815856391581164 -128.25, 83.25 -128.25" stroke="#9370DB" stroke-width="1.3" fill="none" stroke-dasharray="0 0"/></g></g><g class="node default" id="entity-TidyRatiopcf-5" transform="translate(1649.5703125, 179)"><g style=""><path d="M-85.9296875 -171 L85.9296875 -171 L85.9296875 171 L-85.9296875 171" stroke="none" stroke-width="0" fill="#ECECFF"/><path d="M-85.9296875 -171 C-29.467898264659297 -171, 26.993890970681406 -171, 85.9296875 -171 M-85.9296875 -171 C-25.581749403425555 -171, 34.76618869314889 -171, 85.9296875 -171 M85.9296875 -171 C85.9296875 -41.10423484386439, 85.9296875 88.79153031227122, 85.9296875 171 M85.9296875 -171 C85.9296875 -93.41786769823676, 85.9296875 -15.835735396473524, 85.9296875 171 M85.9296875 171 C23.85073974921258 171, -38.22820800157484 171, -85.9296875 171 M85.9296875 171 C42.497030066768055 171, -0.9356273664638906 171, -85.9296875 171 M-85.9296875 171 C-85.9296875 65.76497280507557, -85.9296875 -39.470054389848855, -85.9296875 -171 M-85.9296875 171 C-85.9296875 72.26591617806676, -85.9296875 -26.46816764386648, -85.9296875 -171" stroke="#9370DB" stroke-width="1.3" fill="none" stroke-dasharray="0 0"/></g><g style="" class="row-rect-odd"><path d="M-85.9296875 -128.25 L85.9296875 -128.25 L85.9296875 -85.5 L-85.9296875 -85.5" stroke="none" stroke-width="0" fill="hsl(240, 100%, 100%)"/><path d="M-85.9296875 -128.25 C-21.57846611129621 -128.25, 42.77275527740758 -128.25, 85.9296875 -128.25 M-85.9296875 -128.25 C-39.923484139071306 -128.25, 6.0827192218573884 -128.25, 85.9296875 -128.25 M85.9296875 -128.25 C85.9296875 -113.31637147210704, 85.9296875 -98.38274294421409, 85.9296875 -85.5 M85.9296875 -128.25 C85.9296875 -119.60399343773307, 85.9296875 -110.95798687546613, 85.9296875 -85.5 M85.9296875 -85.5 C21.073301166323333 -85.5, -43.783085167353335 -85.5, -85.9296875 -85.5 M85.9296875 -85.5 C40.08208571237917 -85.5, -5.765516075241663 -85.5, -85.9296875 -85.5 M-85.9296875 -85.5 C-85.9296875 -98.51550837804564, -85.9296875 -111.53101675609128, -85.9296875 -128.25 M-85.9296875 -85.5 C-85.9296875 -97.78872243772554, -85.9296875 -110.07744487545106, -85.9296875 -128.25" stroke="#9370DB" stroke-width="1.3" fill="none" stroke-dasharray="0 0"/></g><g style="" class="row-rect-even"><path d="M-85.9296875 -85.5 L85.9296875 -85.5 L85.9296875 -42.75 L-85.9296875 -42.75" stroke="none" stroke-width="0" fill="hsl(240, 100%, 97.2745098039%)"/><path d="M-85.9296875 -85.5 C-40.60669679288128 -85.5, 4.71629391423744 -85.5, 85.9296875 -85.5 M-85.9296875 -85.5 C-33.558294044108 -85.5, 18.813099411783995 -85.5, 85.9296875 -85.5 M85.9296875 -85.5 C85.9296875 -74.04676830219981, 85.9296875 -62.5935366043996, 85.9296875 -42.75 M85.9296875 -85.5 C85.9296875 -71.70987398967944, 85.9296875 -57.91974797935887, 85.9296875 -42.75 M85.9296875 -42.75 C46.44221143318221 -42.75, 6.954735366364417 -42.75, -85.9296875 -42.75 M85.9296875 -42.75 C41.001741799916076 -42.75, -3.926203900167849 -42.75, -85.9296875 -42.75 M-85.9296875 -42.75 C-85.9296875 -55.335146052977606, -85.9296875 -67.92029210595521, -85.9296875 -85.5 M-85.9296875 -42.75 C-85.9296875 -57.53099021708712, -85.9296875 -72.31198043417425, -85.9296875 -85.5" stroke="#9370DB" stroke-width="1.3" fill="none" stroke-dasharray="0 0"/></g><g style="" class="row-rect-odd"><path d="M-85.9296875 -42.75 L85.9296875 -42.75 L85.9296875 0 L-85.9296875 0" stroke="none" stroke-width="0" fill="hsl(240, 100%, 100%)"/><path d="M-85.9296875 -42.75 C-23.507208524557342 -42.75, 38.915270450885316 -42.75, 85.9296875 -42.75 M-85.9296875 -42.75 C-36.91691456109008 -42.75, 12.095858377819837 -42.75, 85.9296875 -42.75 M85.9296875 -42.75 C85.9296875 -28.243997800812828, 85.9296875 -13.73799560162566, 85.9296875 0 M85.9296875 -42.75 C85.9296875 -26.697894803878377, 85.9296875 -10.645789607756754, 85.9296875 0 M85.9296875 0 C45.98736073358032 0, 6.045033967160634 0, -85.9296875 0 M85.9296875 0 C37.26238808201089 0, -11.404911335978227 0, -85.9296875 0 M-85.9296875 0 C-85.9296875 -11.75785515726097, -85.9296875 -23.51571031452194, -85.9296875 -42.75 M-85.9296875 0 C-85.9296875 -12.530560140814512, -85.9296875 -25.061120281629023, -85.9296875 -42.75" stroke="#9370DB" stroke-width="1.3" fill="none" stroke-dasharray="0 0"/></g><g style="" class="row-rect-even"><path d="M-85.9296875 0 L85.9296875 0 L85.9296875 42.75 L-85.9296875 42.75" stroke="none" stroke-width="0" fill="hsl(240, 100%, 97.2745098039%)"/><path d="M-85.9296875 0 C-32.66879553834429 0, 20.592096423311418 0, 85.9296875 0 M-85.9296875 0 C-31.2212777058041 0, 23.487132088391803 0, 85.9296875 0 M85.9296875 0 C85.9296875 11.242411956169192, 85.9296875 22.484823912338385, 85.9296875 42.75 M85.9296875 0 C85.9296875 10.800352755746852, 85.9296875 21.600705511493704, 85.9296875 42.75 M85.9296875 42.75 C27.58983823731532 42.75, -30.75001102536936 42.75, -85.9296875 42.75 M85.9296875 42.75 C33.68424672023863 42.75, -18.561194059522734 42.75, -85.9296875 42.75 M-85.9296875 42.75 C-85.9296875 31.503424894277536, -85.9296875 20.25684978855507, -85.9296875 0 M-85.9296875 42.75 C-85.9296875 33.972493538170326, -85.9296875 25.194987076340652, -85.9296875 0" stroke="#9370DB" stroke-width="1.3" fill="none" stroke-dasharray="0 0"/></g><g style="" class="row-rect-odd"><path d="M-85.9296875 42.75 L85.9296875 42.75 L85.9296875 85.5 L-85.9296875 85.5" stroke="none" stroke-width="0" fill="hsl(240, 100%, 100%)"/><path d="M-85.9296875 42.75 C-43.141669959516456 42.75, -0.3536524190329118 42.75, 85.9296875 42.75 M-85.9296875 42.75 C-30.852322551375472 42.75, 24.225042397249055 42.75, 85.9296875 42.75 M85.9296875 42.75 C85.9296875 51.4234540648718, 85.9296875 60.096908129743596, 85.9296875 85.5 M85.9296875 42.75 C85.9296875 55.37412928700875, 85.9296875 67.9982585740175, 85.9296875 85.5 M85.9296875 85.5 C32.60884307905871 85.5, -20.712001341882583 85.5, -85.9296875 85.5 M85.9296875 85.5 C19.113035188363554 85.5, -47.70361712327289 85.5, -85.9296875 85.5 M-85.9296875 85.5 C-85.9296875 76.912988396651, -85.9296875 68.32597679330202, -85.9296875 42.75 M-85.9296875 85.5 C-85.9296875 69.90848460822497, -85.9296875 54.31696921644994, -85.9296875 42.75" stroke="#9370DB" stroke-width="1.3" fill="none" stroke-dasharray="0 0"/></g><g style="" class="row-rect-even"><path d="M-85.9296875 85.5 L85.9296875 85.5 L85.9296875 128.25 L-85.9296875 128.25" stroke="none" stroke-width="0" fill="hsl(240, 100%, 97.2745098039%)"/><path d="M-85.9296875 85.5 C-46.66501990355671 85.5, -7.4003523071134225 85.5, 85.9296875 85.5 M-85.9296875 85.5 C-35.633933330735715 85.5, 14.66182083852857 85.5, 85.9296875 85.5 M85.9296875 85.5 C85.9296875 97.73469226820711, 85.9296875 109.96938453641422, 85.9296875 128.25 M85.9296875 85.5 C85.9296875 94.37303667875062, 85.9296875 103.24607335750123, 85.9296875 128.25 M85.9296875 128.25 C22.08462774276643 128.25, -41.76043201446714 128.25, -85.9296875 128.25 M85.9296875 128.25 C40.48335402927983 128.25, -4.962979441440339 128.25, -85.9296875 128.25 M-85.9296875 128.25 C-85.9296875 115.44272848264973, -85.9296875 102.63545696529945, -85.9296875 85.5 M-85.9296875 128.25 C-85.9296875 114.18102051778686, -85.9296875 100.11204103557372, -85.9296875 85.5" stroke="#9370DB" stroke-width="1.3" fill="none" stroke-dasharray="0 0"/></g><g style="" class="row-rect-odd"><path d="M-85.9296875 128.25 L85.9296875 128.25 L85.9296875 171 L-85.9296875 171" stroke="none" stroke-width="0" fill="hsl(240, 100%, 100%)"/><path d="M-85.9296875 128.25 C-19.91649943907703 128.25, 46.09668862184594 128.25, 85.9296875 128.25 M-85.9296875 128.25 C-18.462141048665487 128.25, 49.00540540266903 128.25, 85.9296875 128.25 M85.9296875 128.25 C85.9296875 141.7614894423473, 85.9296875 155.27297888469465, 85.9296875 171 M85.9296875 128.25 C85.9296875 143.1114380264364, 85.9296875 157.97287605287278, 85.9296875 171 M85.9296875 171 C44.59010710606035 171, 3.2505267121207027 171, -85.9296875 171 M85.9296875 171 C45.408910118587166 171, 4.888132737174331 171, -85.9296875 171 M-85.9296875 171 C-85.9296875 155.42748465409332, -85.9296875 139.85496930818664, -85.9296875 128.25 M-85.9296875 171 C-85.9296875 162.12478083473027, -85.9296875 153.24956166946055, -85.9296875 128.25" stroke="#9370DB" stroke-width="1.3" fill="none" stroke-dasharray="0 0"/></g><g class="label name" transform="translate(-44.1640625, -161.625)" style=""><foreignObject width="88.328125" height="24"><div xmlns="http://www.w3.org/1999/xhtml" style="display: table-cell; white-space: nowrap; line-height: 1.5; max-width: 185px; text-align: start;"><span class="nodeLabel"><p>TidyRatiopcf</p></span></div></foreignObject></g><g class="label attribute-type" transform="translate(-73.4296875, -118.875)" style=""><foreignObject width="39.125" height="24"><div xmlns="http://www.w3.org/1999/xhtml" style="display: table-cell; white-space: nowrap; line-height: 1.5; max-width: 136px; text-align: start;"><span class="nodeLabel"><p>string</p></span></div></foreignObject></g><g class="label attribute-name" transform="translate(0.4921875, -118.875)" style=""><foreignObject width="72.9375" height="24"><div xmlns="http://www.w3.org/1999/xhtml" style="display: table-cell; white-space: nowrap; line-height: 1.5; max-width: 166px; text-align: start;"><span class="nodeLabel"><p>sample_id</p></span></div></foreignObject></g><g class="label attribute-keys" transform="translate(98.4296875, -118.875)" style=""><foreignObject width="0" height="0"><div xmlns="http://www.w3.org/1999/xhtml" style="display: table-cell; white-space: nowrap; line-height: 1.5; max-width: 100px; text-align: start;"><span class="nodeLabel"></span></div></foreignObject></g><g class="label attribute-comment" transform="translate(98.4296875, -118.875)" style=""><foreignObject width="0" height="0"><div xmlns="http://www.w3.org/1999/xhtml" style="display: table-cell; white-space: nowrap; line-height: 1.5; max-width: 100px; text-align: start;"><span class="nodeLabel"></span></div></foreignObject></g><g class="label attribute-type" transform="translate(-73.4296875, -76.125)" style=""><foreignObject width="39.125" height="24"><div xmlns="http://www.w3.org/1999/xhtml" style="display: table-cell; white-space: nowrap; line-height: 1.5; max-width: 136px; text-align: start;"><span class="nodeLabel"><p>string</p></span></div></foreignObject></g><g class="label attribute-name" transform="translate(0.4921875, -76.125)" style=""><foreignObject width="44.453125" height="24"><div xmlns="http://www.w3.org/1999/xhtml" style="display: table-cell; white-space: nowrap; line-height: 1.5; max-width: 141px; text-align: start;"><span class="nodeLabel"><p>chrom</p></span></div></foreignObject></g><g class="label attribute-keys" transform="translate(98.4296875, -76.125)" style=""><foreignObject width="0" height="0"><div xmlns="http://www.w3.org/1999/xhtml" style="display: table-cell; white-space: nowrap; line-height: 1.5; max-width: 100px; text-align: start;"><span class="nodeLabel"></span></div></foreignObject></g><g class="label attribute-comment" transform="translate(98.4296875, -76.125)" style=""><foreignObject width="0" height="0"><div xmlns="http://www.w3.org/1999/xhtml" style="display: table-cell; white-space: nowrap; line-height: 1.5; max-width: 100px; text-align: start;"><span class="nodeLabel"></span></div></foreignObject></g><g class="label attribute-type" transform="translate(-73.4296875, -33.375)" style=""><foreignObject width="39.125" height="24"><div xmlns="http://www.w3.org/1999/xhtml" style="display: table-cell; white-space: nowrap; line-height: 1.5; max-width: 136px; text-align: start;"><span class="nodeLabel"><p>string</p></span></div></foreignObject></g><g class="label attribute-name" transform="translate(0.4921875, -33.375)" style=""><foreignObject width="27.5625" height="24"><div xmlns="http://www.w3.org/1999/xhtml" style="display: table-cell; white-space: nowrap; line-height: 1.5; max-width: 125px; text-align: start;"><span class="nodeLabel"><p>arm</p></span></div></foreignObject></g><g class="label attribute-keys" transform="translate(98.4296875, -33.375)" style=""><foreignObject width="0" height="0"><div xmlns="http://www.w3.org/1999/xhtml" style="display: table-cell; white-space: nowrap; line-height: 1.5; max-width: 100px; text-align: start;"><span class="nodeLabel"></span></div></foreignObject></g><g class="label attribute-comment" transform="translate(98.4296875, -33.375)" style=""><foreignObject width="0" height="0"><div xmlns="http://www.w3.org/1999/xhtml" style="display: table-cell; white-space: nowrap; line-height: 1.5; max-width: 100px; text-align: start;"><span class="nodeLabel"></span></div></foreignObject></g><g class="label attribute-type" transform="translate(-73.4296875, 9.375)" style=""><foreignObject width="30.25" height="24"><div xmlns="http://www.w3.org/1999/xhtml" style="display: table-cell; white-space: nowrap; line-height: 1.5; max-width: 130px; text-align: start;"><span class="nodeLabel"><p>float</p></span></div></foreignObject></g><g class="label attribute-name" transform="translate(0.4921875, 9.375)" style=""><foreignObject width="65.8125" height="24"><div xmlns="http://www.w3.org/1999/xhtml" style="display: table-cell; white-space: nowrap; line-height: 1.5; max-width: 158px; text-align: start;"><span class="nodeLabel"><p>start_pos</p></span></div></foreignObject></g><g class="label attribute-keys" transform="translate(98.4296875, 9.375)" style=""><foreignObject width="0" height="0"><div xmlns="http://www.w3.org/1999/xhtml" style="display: table-cell; white-space: nowrap; line-height: 1.5; max-width: 100px; text-align: start;"><span class="nodeLabel"></span></div></foreignObject></g><g class="label attribute-comment" transform="translate(98.4296875, 9.375)" style=""><foreignObject width="0" height="0"><div xmlns="http://www.w3.org/1999/xhtml" style="display: table-cell; white-space: nowrap; line-height: 1.5; max-width: 100px; text-align: start;"><span class="nodeLabel"></span></div></foreignObject></g><g class="label attribute-type" transform="translate(-73.4296875, 52.125)" style=""><foreignObject width="30.25" height="24"><div xmlns="http://www.w3.org/1999/xhtml" style="display: table-cell; white-space: nowrap; line-height: 1.5; max-width: 130px; text-align: start;"><span class="nodeLabel"><p>float</p></span></div></foreignObject></g><g class="label attribute-name" transform="translate(0.4921875, 52.125)" style=""><foreignObject width="61.390625" height="24"><div xmlns="http://www.w3.org/1999/xhtml" style="display: table-cell; white-space: nowrap; line-height: 1.5; max-width: 153px; text-align: start;"><span class="nodeLabel"><p>end_pos</p></span></div></foreignObject></g><g class="label attribute-keys" transform="translate(98.4296875, 52.125)" style=""><foreignObject width="0" height="0"><div xmlns="http://www.w3.org/1999/xhtml" style="display: table-cell; white-space: nowrap; line-height: 1.5; max-width: 100px; text-align: start;"><span class="nodeLabel"></span></div></foreignObject></g><g class="label attribute-comment" transform="translate(98.4296875, 52.125)" style=""><foreignObject width="0" height="0"><div xmlns="http://www.w3.org/1999/xhtml" style="display: table-cell; white-space: nowrap; line-height: 1.5; max-width: 100px; text-align: start;"><span class="nodeLabel"></span></div></foreignObject></g><g class="label attribute-type" transform="translate(-73.4296875, 94.875)" style=""><foreignObject width="48.921875" height="24"><div xmlns="http://www.w3.org/1999/xhtml" style="display: table-cell; white-space: nowrap; line-height: 1.5; max-width: 145px; text-align: start;"><span class="nodeLabel"><p>integer</p></span></div></foreignObject></g><g class="label attribute-name" transform="translate(0.4921875, 94.875)" style=""><foreignObject width="66.71875" height="24"><div xmlns="http://www.w3.org/1999/xhtml" style="display: table-cell; white-space: nowrap; line-height: 1.5; max-width: 159px; text-align: start;"><span class="nodeLabel"><p>n_probes</p></span></div></foreignObject></g><g class="label attribute-keys" transform="translate(98.4296875, 94.875)" style=""><foreignObject width="0" height="0"><div xmlns="http://www.w3.org/1999/xhtml" style="display: table-cell; white-space: nowrap; line-height: 1.5; max-width: 100px; text-align: start;"><span class="nodeLabel"></span></div></foreignObject></g><g class="label attribute-comment" transform="translate(98.4296875, 94.875)" style=""><foreignObject width="0" height="0"><div xmlns="http://www.w3.org/1999/xhtml" style="display: table-cell; white-space: nowrap; line-height: 1.5; max-width: 100px; text-align: start;"><span class="nodeLabel"></span></div></foreignObject></g><g class="label attribute-type" transform="translate(-73.4296875, 137.625)" style=""><foreignObject width="30.25" height="24"><div xmlns="http://www.w3.org/1999/xhtml" style="display: table-cell; white-space: nowrap; line-height: 1.5; max-width: 130px; text-align: start;"><span class="nodeLabel"><p>float</p></span></div></foreignObject></g><g class="label attribute-name" transform="translate(0.4921875, 137.625)" style=""><foreignObject width="40.03125" height="24"><div xmlns="http://www.w3.org/1999/xhtml" style="display: table-cell; white-space: nowrap; line-height: 1.5; max-width: 135px; text-align: start;"><span class="nodeLabel"><p>mean</p></span></div></foreignObject></g><g class="label attribute-keys" transform="translate(98.4296875, 137.625)" style=""><foreignObject width="0" height="0"><div xmlns="http://www.w3.org/1999/xhtml" style="display: table-cell; white-space: nowrap; line-height: 1.5; max-width: 100px; text-align: start;"><span class="nodeLabel"></span></div></foreignObject></g><g class="label attribute-comment" transform="translate(98.4296875, 137.625)" style=""><foreignObject width="0" height="0"><div xmlns="http://www.w3.org/1999/xhtml" style="display: table-cell; white-space: nowrap; line-height: 1.5; max-width: 100px; text-align: start;"><span class="nodeLabel"></span></div></foreignObject></g><g class="divider"><path d="M-85.9296875 -128.25 C-47.140066851170005 -128.25, -8.35044620234001 -128.25, 85.9296875 -128.25 M-85.9296875 -128.25 C-39.85219658264751 -128.25, 6.225294334704984 -128.25, 85.9296875 -128.25" stroke="#9370DB" stroke-width="1.3" fill="none" stroke-dasharray="0 0"/></g><g class="divider"><path d="M-12.0078125 -128.25 C-12.0078125 -62.900219660939996, -12.0078125 2.449560678120008, -12.0078125 171 M-12.0078125 -128.25 C-12.0078125 -40.88602782584401, -12.0078125 46.47794434831198, -12.0078125 171" stroke="#9370DB" stroke-width="1.3" fill="none" stroke-dasharray="0 0"/></g><g class="divider"><path d="M-85.9296875 -128.25 C-17.425248727980886 -128.25, 51.07919004403823 -128.25, 85.9296875 -128.25 M-85.9296875 -128.25 C-40.19344456340752 -128.25, 5.542798373184965 -128.25, 85.9296875 -128.25" stroke="#9370DB" stroke-width="1.3" fill="none" stroke-dasharray="0 0"/></g></g><g class="node default" id="entity-RawVersion-6" transform="translate(1956.984375, 179)"><g style=""><path d="M-81.484375 -64.125 L81.484375 -64.125 L81.484375 64.125 L-81.484375 64.125" stroke="none" stroke-width="0" fill="#ECECFF"/><path d="M-81.484375 -64.125 C-22.711418303286017 -64.125, 36.061538393427966 -64.125, 81.484375 -64.125 M-81.484375 -64.125 C-23.744196941884866 -64.125, 33.99598111623027 -64.125, 81.484375 -64.125 M81.484375 -64.125 C81.484375 -18.567920614090582, 81.484375 26.989158771818836, 81.484375 64.125 M81.484375 -64.125 C81.484375 -28.46139490316969, 81.484375 7.202210193660619, 81.484375 64.125 M81.484375 64.125 C39.5438641875928 64.125, -2.3966466248143945 64.125, -81.484375 64.125 M81.484375 64.125 C47.98890273477146 64.125, 14.493430469542915 64.125, -81.484375 64.125 M-81.484375 64.125 C-81.484375 32.134529033310805, -81.484375 0.1440580666216107, -81.484375 -64.125 M-81.484375 64.125 C-81.484375 31.181736914956133, -81.484375 -1.761526170087734, -81.484375 -64.125" stroke="#9370DB" stroke-width="1.3" fill="none" stroke-dasharray="0 0"/></g><g style="" class="row-rect-odd"><path d="M-81.484375 -21.375 L81.484375 -21.375 L81.484375 21.375 L-81.484375 21.375" stroke="none" stroke-width="0" fill="hsl(240, 100%, 100%)"/><path d="M-81.484375 -21.375 C-36.150061970760845 -21.375, 9.18425105847831 -21.375, 81.484375 -21.375 M-81.484375 -21.375 C-24.775453296014042 -21.375, 31.933468407971915 -21.375, 81.484375 -21.375 M81.484375 -21.375 C81.484375 -11.063481281476765, 81.484375 -0.7519625629535298, 81.484375 21.375 M81.484375 -21.375 C81.484375 -4.8828578401645935, 81.484375 11.609284319670813, 81.484375 21.375 M81.484375 21.375 C25.808471459591004 21.375, -29.86743208081799 21.375, -81.484375 21.375 M81.484375 21.375 C23.18699644118354 21.375, -35.11038211763292 21.375, -81.484375 21.375 M-81.484375 21.375 C-81.484375 7.61670050878044, -81.484375 -6.14159898243912, -81.484375 -21.375 M-81.484375 21.375 C-81.484375 5.416628755243389, -81.484375 -10.541742489513222, -81.484375 -21.375" stroke="#9370DB" stroke-width="1.3" fill="none" stroke-dasharray="0 0"/></g><g style="" class="row-rect-even"><path d="M-81.484375 21.375 L81.484375 21.375 L81.484375 64.125 L-81.484375 64.125" stroke="none" stroke-width="0" fill="hsl(240, 100%, 97.2745098039%)"/><path d="M-81.484375 21.375 C-28.54822293215379 21.375, 24.387929135692417 21.375, 81.484375 21.375 M-81.484375 21.375 C-35.703933281770844 21.375, 10.076508436458312 21.375, 81.484375 21.375 M81.484375 21.375 C81.484375 35.28118533424485, 81.484375 49.187370668489706, 81.484375 64.125 M81.484375 21.375 C81.484375 38.34360817761036, 81.484375 55.312216355220734, 81.484375 64.125 M81.484375 64.125 C19.17177168833841 64.125, -43.14083162332318 64.125, -81.484375 64.125 M81.484375 64.125 C39.57157801128142 64.125, -2.3412189774371654 64.125, -81.484375 64.125 M-81.484375 64.125 C-81.484375 47.58385009299701, -81.484375 31.042700185994015, -81.484375 21.375 M-81.484375 64.125 C-81.484375 51.76399569212276, -81.484375 39.402991384245524, -81.484375 21.375" stroke="#9370DB" stroke-width="1.3" fill="none" stroke-dasharray="0 0"/></g><g class="label name" transform="translate(-42.6875, -54.75)" style=""><foreignObject width="85.375" height="24"><div xmlns="http://www.w3.org/1999/xhtml" style="display: table-cell; white-space: nowrap; line-height: 1.5; max-width: 178px; text-align: start;"><span class="nodeLabel"><p>RawVersion</p></span></div></foreignObject></g><g class="label attribute-type" transform="translate(-68.984375, -12)" style=""><foreignObject width="39.125" height="24"><div xmlns="http://www.w3.org/1999/xhtml" style="display: table-cell; white-space: nowrap; line-height: 1.5; max-width: 136px; text-align: start;"><span class="nodeLabel"><p>string</p></span></div></foreignObject></g><g class="label attribute-name" transform="translate(-4.859375, -12)" style=""><foreignObject width="51.578125" height="24"><div xmlns="http://www.w3.org/1999/xhtml" style="display: table-cell; white-space: nowrap; line-height: 1.5; max-width: 147px; text-align: start;"><span class="nodeLabel"><p>version</p></span></div></foreignObject></g><g class="label attribute-keys" transform="translate(93.984375, -12)" style=""><foreignObject width="0" height="0"><div xmlns="http://www.w3.org/1999/xhtml" style="display: table-cell; white-space: nowrap; line-height: 1.5; max-width: 100px; text-align: start;"><span class="nodeLabel"></span></div></foreignObject></g><g class="label attribute-comment" transform="translate(93.984375, -12)" style=""><foreignObject width="0" height="0"><div xmlns="http://www.w3.org/1999/xhtml" style="display: table-cell; white-space: nowrap; line-height: 1.5; max-width: 100px; text-align: start;"><span class="nodeLabel"></span></div></foreignObject></g><g class="label attribute-type" transform="translate(-68.984375, 30.75)" style=""><foreignObject width="39.125" height="24"><div xmlns="http://www.w3.org/1999/xhtml" style="display: table-cell; white-space: nowrap; line-height: 1.5; max-width: 136px; text-align: start;"><span class="nodeLabel"><p>string</p></span></div></foreignObject></g><g class="label attribute-name" transform="translate(-4.859375, 30.75)" style=""><foreignObject width="73.84375" height="24"><div xmlns="http://www.w3.org/1999/xhtml" style="display: table-cell; white-space: nowrap; line-height: 1.5; max-width: 174px; text-align: start;"><span class="nodeLabel"><p>build_date</p></span></div></foreignObject></g><g class="label attribute-keys" transform="translate(93.984375, 30.75)" style=""><foreignObject width="0" height="0"><div xmlns="http://www.w3.org/1999/xhtml" style="display: table-cell; white-space: nowrap; line-height: 1.5; max-width: 100px; text-align: start;"><span class="nodeLabel"></span></div></foreignObject></g><g class="label attribute-comment" transform="translate(93.984375, 30.75)" style=""><foreignObject width="0" height="0"><div xmlns="http://www.w3.org/1999/xhtml" style="display: table-cell; white-space: nowrap; line-height: 1.5; max-width: 100px; text-align: start;"><span class="nodeLabel"></span></div></foreignObject></g><g class="divider"><path d="M-81.484375 -21.375 C-30.685552932623025 -21.375, 20.11326913475395 -21.375, 81.484375 -21.375 M-81.484375 -21.375 C-37.938783993247604 -21.375, 5.606807013504792 -21.375, 81.484375 -21.375" stroke="#9370DB" stroke-width="1.3" fill="none" stroke-dasharray="0 0"/></g><g class="divider"><path d="M-17.359375 -21.375 C-17.359375 7.375521731480479, -17.359375 36.12604346296096, -17.359375 64.125 M-17.359375 -21.375 C-17.359375 0.7508776152300918, -17.359375 22.876755230460184, -17.359375 64.125" stroke="#9370DB" stroke-width="1.3" fill="none" stroke-dasharray="0 0"/></g><g class="divider"><path d="M-81.484375 -21.375 C-24.605992123826752 -21.375, 32.272390752346496 -21.375, 81.484375 -21.375 M-81.484375 -21.375 C-46.91632374011256 -21.375, -12.34827248022512 -21.375, 81.484375 -21.375" stroke="#9370DB" stroke-width="1.3" fill="none" stroke-dasharray="0 0"/></g></g><g class="node default" id="entity-TidyVersion-7" transform="translate(2259.953125, 179)"><g style=""><path d="M-81.484375 -64.125 L81.484375 -64.125 L81.484375 64.125 L-81.484375 64.125" stroke="none" stroke-width="0" fill="#ECECFF"/><path d="M-81.484375 -64.125 C-41.12611599321749 -64.125, -0.7678569864349782 -64.125, 81.484375 -64.125 M-81.484375 -64.125 C-20.75211910834677 -64.125, 39.98013678330646 -64.125, 81.484375 -64.125 M81.484375 -64.125 C81.484375 -23.43447390274582, 81.484375 17.256052194508356, 81.484375 64.125 M81.484375 -64.125 C81.484375 -13.584601847953579, 81.484375 36.95579630409284, 81.484375 64.125 M81.484375 64.125 C42.9792359337731 64.125, 4.474096867546194 64.125, -81.484375 64.125 M81.484375 64.125 C24.17959611334482 64.125, -33.12518277331036 64.125, -81.484375 64.125 M-81.484375 64.125 C-81.484375 20.450130189319857, -81.484375 -23.224739621360285, -81.484375 -64.125 M-81.484375 64.125 C-81.484375 26.24813007711205, -81.484375 -11.628739845775897, -81.484375 -64.125" stroke="#9370DB" stroke-width="1.3" fill="none" stroke-dasharray="0 0"/></g><g style="" class="row-rect-odd"><path d="M-81.484375 -21.375 L81.484375 -21.375 L81.484375 21.375 L-81.484375 21.375" stroke="none" stroke-width="0" fill="hsl(240, 100%, 100%)"/><path d="M-81.484375 -21.375 C-33.63013500184379 -21.375, 14.22410499631242 -21.375, 81.484375 -21.375 M-81.484375 -21.375 C-47.57629616975289 -21.375, -13.668217339505773 -21.375, 81.484375 -21.375 M81.484375 -21.375 C81.484375 -5.653033538104561, 81.484375 10.068932923790879, 81.484375 21.375 M81.484375 -21.375 C81.484375 -9.588155544917793, 81.484375 2.198688910164414, 81.484375 21.375 M81.484375 21.375 C44.4570669147062 21.375, 7.429758829412407 21.375, -81.484375 21.375 M81.484375 21.375 C28.68908402014131 21.375, -24.106206959717383 21.375, -81.484375 21.375 M-81.484375 21.375 C-81.484375 6.401296007451107, -81.484375 -8.572407985097787, -81.484375 -21.375 M-81.484375 21.375 C-81.484375 9.707409717535738, -81.484375 -1.9601805649285247, -81.484375 -21.375" stroke="#9370DB" stroke-width="1.3" fill="none" stroke-dasharray="0 0"/></g><g style="" class="row-rect-even"><path d="M-81.484375 21.375 L81.484375 21.375 L81.484375 64.125 L-81.484375 64.125" stroke="none" stroke-width="0" fill="hsl(240, 100%, 97.2745098039%)"/><path d="M-81.484375 21.375 C-26.437279780922218 21.375, 28.609815438155564 21.375, 81.484375 21.375 M-81.484375 21.375 C-36.798841256753576 21.375, 7.886692486492848 21.375, 81.484375 21.375 M81.484375 21.375 C81.484375 34.120794603314735, 81.484375 46.86658920662947, 81.484375 64.125 M81.484375 21.375 C81.484375 36.312714065835436, 81.484375 51.250428131670866, 81.484375 64.125 M81.484375 64.125 C39.20134600122233 64.125, -3.0816829975553333 64.125, -81.484375 64.125 M81.484375 64.125 C22.59123744353954 64.125, -36.30190011292092 64.125, -81.484375 64.125 M-81.484375 64.125 C-81.484375 47.599667645772946, -81.484375 31.074335291545893, -81.484375 21.375 M-81.484375 64.125 C-81.484375 55.33535919158795, -81.484375 46.545718383175895, -81.484375 21.375" stroke="#9370DB" stroke-width="1.3" fill="none" stroke-dasharray="0 0"/></g><g class="label name" transform="translate(-41.5, -54.75)" style=""><foreignObject width="83" height="24"><div xmlns="http://www.w3.org/1999/xhtml" style="display: table-cell; white-space: nowrap; line-height: 1.5; max-width: 179px; text-align: start;"><span class="nodeLabel"><p>TidyVersion</p></span></div></foreignObject></g><g class="label attribute-type" transform="translate(-68.984375, -12)" style=""><foreignObject width="39.125" height="24"><div xmlns="http://www.w3.org/1999/xhtml" style="display: table-cell; white-space: nowrap; line-height: 1.5; max-width: 136px; text-align: start;"><span class="nodeLabel"><p>string</p></span></div></foreignObject></g><g class="label attribute-name" transform="translate(-4.859375, -12)" style=""><foreignObject width="51.578125" height="24"><div xmlns="http://www.w3.org/1999/xhtml" style="display: table-cell; white-space: nowrap; line-height: 1.5; max-width: 147px; text-align: start;"><span class="nodeLabel"><p>version</p></span></div></foreignObject></g><g class="label attribute-keys" transform="translate(93.984375, -12)" style=""><foreignObject width="0" height="0"><div xmlns="http://www.w3.org/1999/xhtml" style="display: table-cell; white-space: nowrap; line-height: 1.5; max-width: 100px; text-align: start;"><span class="nodeLabel"></span></div></foreignObject></g><g class="label attribute-comment" transform="translate(93.984375, -12)" style=""><foreignObject width="0" height="0"><div xmlns="http://www.w3.org/1999/xhtml" style="display: table-cell; white-space: nowrap; line-height: 1.5; max-width: 100px; text-align: start;"><span class="nodeLabel"></span></div></foreignObject></g><g class="label attribute-type" transform="translate(-68.984375, 30.75)" style=""><foreignObject width="39.125" height="24"><div xmlns="http://www.w3.org/1999/xhtml" style="display: table-cell; white-space: nowrap; line-height: 1.5; max-width: 136px; text-align: start;"><span class="nodeLabel"><p>string</p></span></div></foreignObject></g><g class="label attribute-name" transform="translate(-4.859375, 30.75)" style=""><foreignObject width="73.84375" height="24"><div xmlns="http://www.w3.org/1999/xhtml" style="display: table-cell; white-space: nowrap; line-height: 1.5; max-width: 174px; text-align: start;"><span class="nodeLabel"><p>date_build</p></span></div></foreignObject></g><g class="label attribute-keys" transform="translate(93.984375, 30.75)" style=""><foreignObject width="0" height="0"><div xmlns="http://www.w3.org/1999/xhtml" style="display: table-cell; white-space: nowrap; line-height: 1.5; max-width: 100px; text-align: start;"><span class="nodeLabel"></span></div></foreignObject></g><g class="label attribute-comment" transform="translate(93.984375, 30.75)" style=""><foreignObject width="0" height="0"><div xmlns="http://www.w3.org/1999/xhtml" style="display: table-cell; white-space: nowrap; line-height: 1.5; max-width: 100px; text-align: start;"><span class="nodeLabel"></span></div></foreignObject></g><g class="divider"><path d="M-81.484375 -21.375 C-26.965564504173933 -21.375, 27.553245991652133 -21.375, 81.484375 -21.375 M-81.484375 -21.375 C-45.64792821814079 -21.375, -9.811481436281582 -21.375, 81.484375 -21.375" stroke="#9370DB" stroke-width="1.3" fill="none" stroke-dasharray="0 0"/></g><g class="divider"><path d="M-17.359375 -21.375 C-17.359375 8.07744735413381, -17.359375 37.52989470826762, -17.359375 64.125 M-17.359375 -21.375 C-17.359375 9.019614719247446, -17.359375 39.41422943849489, -17.359375 64.125" stroke="#9370DB" stroke-width="1.3" fill="none" stroke-dasharray="0 0"/></g><g class="divider"><path d="M-81.484375 -21.375 C-48.8405136162537 -21.375, -16.196652232507404 -21.375, 81.484375 -21.375 M-81.484375 -21.375 C-23.102284042113816 -21.375, 35.27980691577237 -21.375, 81.484375 -21.375" stroke="#9370DB" stroke-width="1.3" fill="none" stroke-dasharray="0 0"/></g></g></g></g></g></svg>