<svg id="my-svg" width="100%" xmlns="http://www.w3.org/2000/svg" xmlns:xlink="http://www.w3.org/1999/xlink" class="erDiagram" style="max-width: 546.516px; background-color: white;" viewBox="0 0 546.515625 956.5" role="graphics-document document" aria-roledescription="er"><style>#my-svg{font-family:"trebuchet ms",verdana,arial,sans-serif;font-size:16px;fill:#333;}@keyframes edge-animation-frame{from{stroke-dashoffset:0;}}@keyframes dash{to{stroke-dashoffset:0;}}#my-svg .edge-animation-slow{stroke-dasharray:9,5!important;stroke-dashoffset:900;animation:dash 50s linear infinite;stroke-linecap:round;}#my-svg .edge-animation-fast{stroke-dasharray:9,5!important;stroke-dashoffset:900;animation:dash 20s linear infinite;stroke-linecap:round;}#my-svg .error-icon{fill:#552222;}#my-svg .error-text{fill:#552222;stroke:#552222;}#my-svg .edge-thickness-normal{stroke-width:1px;}#my-svg .edge-thickness-thick{stroke-width:3.5px;}#my-svg .edge-pattern-solid{stroke-dasharray:0;}#my-svg .edge-thickness-invisible{stroke-width:0;fill:none;}#my-svg .edge-pattern-dashed{stroke-dasharray:3;}#my-svg .edge-pattern-dotted{stroke-dasharray:2;}#my-svg .marker{fill:#333333;stroke:#333333;}#my-svg .marker.cross{stroke:#333333;}#my-svg svg{font-family:"trebuchet ms",verdana,arial,sans-serif;font-size:16px;}#my-svg p{margin:0;}#my-svg .entityBox{fill:#ECECFF;stroke:#9370DB;}#my-svg .relationshipLabelBox{fill:hsl(80, 100%, 96.2745098039%);opacity:0.7;background-color:hsl(80, 100%, 96.2745098039%);}#my-svg .relationshipLabelBox rect{opacity:0.5;}#my-svg .labelBkg{background-color:rgba(248.6666666666, 255, 235.9999999999, 0.5);}#my-svg .edgeLabel .label{fill:#9370DB;font-size:14px;}#my-svg .label{font-family:"trebuchet ms",verdana,arial,sans-serif;color:#333;}#my-svg .edge-pattern-dashed{stroke-dasharray:8,8;}#my-svg .node rect,#my-svg .node circle,#my-svg .node ellipse,#my-svg .node polygon{fill:#ECECFF;stroke:#9370DB;stroke-width:1px;}#my-svg .relationshipLine{stroke:#333333;stroke-width:1;fill:none;}#my-svg .marker{fill:none!important;stroke:#333333!important;stroke-width:1;}#my-svg :root{--mermaid-font-family:"trebuchet ms",verdana,arial,sans-serif;}</style><g><defs><marker id="my-svg_er-onlyOneStart" class="marker onlyOne er" refX="0" refY="9" markerWidth="18" markerHeight="18" orient="auto"><path d="M9,0 L9,18 M15,0 L15,18"/></marker></defs><defs><marker id="my-svg_er-onlyOneEnd" class="marker onlyOne er" refX="18" refY="9" markerWidth="18" markerHeight="18" orient="auto"><path d="M3,0 L3,18 M9,0 L9,18"/></marker></defs><defs><marker id="my-svg_er-zeroOrOneStart" class="marker zeroOrOne er" refX="0" refY="9" markerWidth="30" markerHeight="18" orient="auto"><circle fill="white" cx="21" cy="9" r="6"/><path d="M9,0 L9,18"/></marker></defs><defs><marker id="my-svg_er-zeroOrOneEnd" class="marker zeroOrOne er" refX="30" refY="9" markerWidth="30" markerHeight="18" orient="auto"><circle fill="white" cx="9" cy="9" r="6"/><path d="M21,0 L21,18"/></marker></defs><defs><marker id="my-svg_er-oneOrMoreStart" class="marker oneOrMore er" refX="18" refY="18" markerWidth="45" markerHeight="36" orient="auto"><path d="M0,18 Q 18,0 36,18 Q 18,36 0,18 M42,9 L42,27"/></marker></defs><defs><marker id="my-svg_er-oneOrMoreEnd" class="marker oneOrMore er" refX="27" refY="18" markerWidth="45" markerHeight="36" orient="auto"><path d="M3,9 L3,27 M9,18 Q27,0 45,18 Q27,36 9,18"/></marker></defs><defs><marker id="my-svg_er-zeroOrMoreStart" class="marker zeroOrMore er" refX="18" refY="18" markerWidth="57" markerHeight="36" orient="auto"><circle fill="white" cx="48" cy="18" r="6"/><path d="M0,18 Q18,0 36,18 Q18,36 0,18"/></marker></defs><defs><marker id="my-svg_er-zeroOrMoreEnd" class="marker zeroOrMore er" refX="39" refY="18" markerWidth="57" markerHeight="36" orient="auto"><circle fill="white" cx="9" cy="18" r="6"/><path d="M21,18 Q39,0 57,18 Q39,36 21,18"/></marker></defs><g class="root"><g class="clusters"/><g class="edgePaths"/><g class="edgeLabels"/><g class="nodes"><g class="node default" id="entity-RawFlagstats-0" transform="translate(81.4609375, 478.25)"><g style=""><path d="M-73.4609375 -42.75 L73.4609375 -42.75 L73.4609375 42.75 L-73.4609375 42.75" stroke="none" stroke-width="0" fill="#ECECFF"/><path d="M-73.4609375 -42.75 C-24.17465219421932 -42.75, 25.11163311156136 -42.75, 73.4609375 -42.75 M-73.4609375 -42.75 C-35.86338482419727 -42.75, 1.7341678516054628 -42.75, 73.4609375 -42.75 M73.4609375 -42.75 C73.4609375 -21.55610242708288, 73.4609375 -0.36220485416576054, 73.4609375 42.75 M73.4609375 -42.75 C73.4609375 -16.10070239397586, 73.4609375 10.548595212048284, 73.4609375 42.75 M73.4609375 42.75 C16.50747958850252 42.75, -40.44597832299496 42.75, -73.4609375 42.75 M73.4609375 42.75 C40.09371811556147 42.75, 6.726498731122945 42.75, -73.4609375 42.75 M-73.4609375 42.75 C-73.4609375 8.757464391924415, -73.4609375 -25.23507121615117, -73.4609375 -42.75 M-73.4609375 42.75 C-73.4609375 16.5760215172895, -73.4609375 -9.597956965420998, -73.4609375 -42.75" stroke="#9370DB" stroke-width="1.3" fill="none" stroke-dasharray="0 0"/></g><g style="" class="row-rect-odd"><path d="M-73.4609375 0 L73.4609375 0 L73.4609375 42.75 L-73.4609375 42.75" stroke="none" stroke-width="0" fill="hsl(240, 100%, 100%)"/><path d="M-73.4609375 0 C-25.28598944526383 0, 22.88895860947234 0, 73.4609375 0 M-73.4609375 0 C-21.30031679697646 0, 30.86030390604708 0, 73.4609375 0 M73.4609375 0 C73.4609375 15.514464018395081, 73.4609375 31.028928036790163, 73.4609375 42.75 M73.4609375 0 C73.4609375 8.963460897387911, 73.4609375 17.926921794775822, 73.4609375 42.75 M73.4609375 42.75 C20.717433302844576 42.75, -32.02607089431085 42.75, -73.4609375 42.75 M73.4609375 42.75 C21.982833626713635 42.75, -29.49527024657273 42.75, -73.4609375 42.75 M-73.4609375 42.75 C-73.4609375 33.129333898295684, -73.4609375 23.508667796591364, -73.4609375 0 M-73.4609375 42.75 C-73.4609375 32.148708312148614, -73.4609375 21.54741662429723, -73.4609375 0" stroke="#9370DB" stroke-width="1.3" fill="none" stroke-dasharray="0 0"/></g><g class="label name" transform="translate(-48.4609375, -33.375)" style=""><foreignObject width="96.921875" height="24"><div xmlns="http://www.w3.org/1999/xhtml" style="display: table-cell; white-space: nowrap; line-height: 1.5; max-width: 186px; text-align: start;"><span class="nodeLabel"><p>RawFlagstats</p></span></div></foreignObject></g><g class="label attribute-type" transform="translate(-60.9609375, 9.375)" style=""><foreignObject width="39.125" height="24"><div xmlns="http://www.w3.org/1999/xhtml" style="display: table-cell; white-space: nowrap; line-height: 1.5; max-width: 136px; text-align: start;"><span class="nodeLabel"><p>string</p></span></div></foreignObject></g><g class="label attribute-name" transform="translate(5.8359375, 9.375)" style=""><foreignObject width="52.453125" height="24"><div xmlns="http://www.w3.org/1999/xhtml" style="display: table-cell; white-space: nowrap; line-height: 1.5; max-width: 149px; text-align: start;"><span class="nodeLabel"><p>dummy</p></span></div></foreignObject></g><g class="label attribute-keys" transform="translate(85.9609375, 9.375)" style=""><foreignObject width="0" height="0"><div xmlns="http://www.w3.org/1999/xhtml" style="display: table-cell; white-space: nowrap; line-height: 1.5; max-width: 100px; text-align: start;"><span class="nodeLabel"></span></div></foreignObject></g><g class="label attribute-comment" transform="translate(85.9609375, 9.375)" style=""><foreignObject width="0" height="0"><div xmlns="http://www.w3.org/1999/xhtml" style="display: table-cell; white-space: nowrap; line-height: 1.5; max-width: 100px; text-align: start;"><span class="nodeLabel"></span></div></foreignObject></g><g class="divider"><path d="M-73.4609375 0 C-35.024255885948556 0, 3.412425728102889 0, 73.4609375 0 M-73.4609375 0 C-30.822802783865235 0, 11.81533193226953 0, 73.4609375 0" stroke="#9370DB" stroke-width="1.3" fill="none" stroke-dasharray="0 0"/></g><g class="divider"><path d="M-6.6640625 0 C-6.6640625 9.980119755134293, -6.6640625 19.960239510268586, -6.6640625 42.75 M-6.6640625 0 C-6.6640625 15.622143554710465, -6.6640625 31.24428710942093, -6.6640625 42.75" stroke="#9370DB" stroke-width="1.3" fill="none" stroke-dasharray="0 0"/></g><g class="divider"><path d="M-73.4609375 0 C-39.2872868995059 0, -5.113636299011802 0, 73.4609375 0 M-73.4609375 0 C-21.57230956825535 0, 30.3163183634893 0, 73.4609375 0" stroke="#9370DB" stroke-width="1.3" fill="none" stroke-dasharray="0 0"/></g></g><g class="node default" id="entity-TidyFlagstats-1" transform="translate(416.71875, 478.25)"><g style=""><path d="M-121.796875 -470.25 L121.796875 -470.25 L121.796875 470.25 L-121.796875 470.25" stroke="none" stroke-width="0" fill="#ECECFF"/><path d="M-121.796875 -470.25 C-52.23024290004999 -470.25, 17.336389199900026 -470.25, 121.796875 -470.25 M-121.796875 -470.25 C-58.50456135945422 -470.25, 4.7877522810915565 -470.25, 121.796875 -470.25 M121.796875 -470.25 C121.796875 -154.40988543780077, 121.796875 161.43022912439847, 121.796875 470.25 M121.796875 -470.25 C121.796875 -273.86652737429677, 121.796875 -77.48305474859347, 121.796875 470.25 M121.796875 470.25 C60.17966078247375 470.25, -1.437553435052493 470.25, -121.796875 470.25 M121.796875 470.25 C52.93054506042522 470.25, -15.935784879149566 470.25, -121.796875 470.25 M-121.796875 470.25 C-121.796875 279.71054705108924, -121.796875 89.17109410217847, -121.796875 -470.25 M-121.796875 470.25 C-121.796875 96.21241639794903, -121.796875 -277.82516720410194, -121.796875 -470.25" stroke="#9370DB" stroke-width="1.3" fill="none" stroke-dasharray="0 0"/></g><g style="" class="row-rect-odd"><path d="M-121.796875 -427.5 L121.796875 -427.5 L121.796875 -384.75 L-121.796875 -384.75" stroke="none" stroke-width="0" fill="hsl(240, 100%, 100%)"/><path d="M-121.796875 -427.5 C-60.597563390463485 -427.5, 0.6017482190730306 -427.5, 121.796875 -427.5 M-121.796875 -427.5 C-39.083927794066284 -427.5, 43.62901941186743 -427.5, 121.796875 -427.5 M121.796875 -427.5 C121.796875 -413.8900456201246, 121.796875 -400.28009124024925, 121.796875 -384.75 M121.796875 -427.5 C121.796875 -412.90197158656423, 121.796875 -398.3039431731284, 121.796875 -384.75 M121.796875 -384.75 C50.83014054312133 -384.75, -20.136593913757338 -384.75, -121.796875 -384.75 M121.796875 -384.75 C69.7047680124247 -384.75, 17.612661024849388 -384.75, -121.796875 -384.75 M-121.796875 -384.75 C-121.796875 -398.80573484067446, -121.796875 -412.861469681349, -121.796875 -427.5 M-121.796875 -384.75 C-121.796875 -399.61175113978015, -121.796875 -414.4735022795603, -121.796875 -427.5" stroke="#9370DB" stroke-width="1.3" fill="none" stroke-dasharray="0 0"/></g><g style="" class="row-rect-even"><path d="M-121.796875 -384.75 L121.796875 -384.75 L121.796875 -342 L-121.796875 -342" stroke="none" stroke-width="0" fill="hsl(240, 100%, 97.2745098039%)"/><path d="M-121.796875 -384.75 C-43.901266210513725 -384.75, 33.99434257897255 -384.75, 121.796875 -384.75 M-121.796875 -384.75 C-51.66105549130535 -384.75, 18.474764017389305 -384.75, 121.796875 -384.75 M121.796875 -384.75 C121.796875 -369.2204470314296, 121.796875 -353.69089406285923, 121.796875 -342 M121.796875 -384.75 C121.796875 -370.32347316443565, 121.796875 -355.89694632887125, 121.796875 -342 M121.796875 -342 C67.22594900915598 -342, 12.65502301831198 -342, -121.796875 -342 M121.796875 -342 C26.700034640008795 -342, -68.39680571998241 -342, -121.796875 -342 M-121.796875 -342 C-121.796875 -358.9420115136726, -121.796875 -375.88402302734517, -121.796875 -384.75 M-121.796875 -342 C-121.796875 -355.58450484167247, -121.796875 -369.169009683345, -121.796875 -384.75" stroke="#9370DB" stroke-width="1.3" fill="none" stroke-dasharray="0 0"/></g><g style="" class="row-rect-odd"><path d="M-121.796875 -342 L121.796875 -342 L121.796875 -299.25 L-121.796875 -299.25" stroke="none" stroke-width="0" fill="hsl(240, 100%, 100%)"/><path d="M-121.796875 -342 C-45.05535787411294 -342, 31.686159251774114 -342, 121.796875 -342 M-121.796875 -342 C-64.61256802351217 -342, -7.4282610470243355 -342, 121.796875 -342 M121.796875 -342 C121.796875 -327.14803456659934, 121.796875 -312.2960691331987, 121.796875 -299.25 M121.796875 -342 C121.796875 -330.2629891442833, 121.796875 -318.52597828856665, 121.796875 -299.25 M121.796875 -299.25 C39.7093641671228 -299.25, -42.3781466657544 -299.25, -121.796875 -299.25 M121.796875 -299.25 C44.30869804832142 -299.25, -33.179478903357165 -299.25, -121.796875 -299.25 M-121.796875 -299.25 C-121.796875 -311.4834069114063, -121.796875 -323.7168138228125, -121.796875 -342 M-121.796875 -299.25 C-121.796875 -314.2816022143103, -121.796875 -329.31320442862057, -121.796875 -342" stroke="#9370DB" stroke-width="1.3" fill="none" stroke-dasharray="0 0"/></g><g style="" class="row-rect-even"><path d="M-121.796875 -299.25 L121.796875 -299.25 L121.796875 -256.5 L-121.796875 -256.5" stroke="none" stroke-width="0" fill="hsl(240, 100%, 97.2745098039%)"/><path d="M-121.796875 -299.25 C-55.10632046304487 -299.25, 11.584234073910267 -299.25, 121.796875 -299.25 M-121.796875 -299.25 C-58.985097206446646 -299.25, 3.8266805871067078 -299.25, 121.796875 -299.25 M121.796875 -299.25 C121.796875 -283.4238272609743, 121.796875 -267.5976545219485, 121.796875 -256.5 M121.796875 -299.25 C121.796875 -285.67415644242124, 121.796875 -272.09831288484247, 121.796875 -256.5 M121.796875 -256.5 C44.43910195719495 -256.5, -32.9186710856101 -256.5, -121.796875 -256.5 M121.796875 -256.5 C53.753559245850724 -256.5, -14.289756508298552 -256.5, -121.796875 -256.5 M-121.796875 -256.5 C-121.796875 -267.1007340463307, -121.796875 -277.70146809266134, -121.796875 -299.25 M-121.796875 -256.5 C-121.796875 -269.144815327325, -121.796875 -281.78963065464995, -121.796875 -299.25" stroke="#9370DB" stroke-width="1.3" fill="none" stroke-dasharray="0 0"/></g><g style="" class="row-rect-odd"><path d="M-121.796875 -256.5 L121.796875 -256.5 L121.796875 -213.75 L-121.796875 -213.75" stroke="none" stroke-width="0" fill="hsl(240, 100%, 100%)"/><path d="M-121.796875 -256.5 C-61.2627026837182 -256.5, -0.7285303674364059 -256.5, 121.796875 -256.5 M-121.796875 -256.5 C-70.69131993697334 -256.5, -19.585764873946673 -256.5, 121.796875 -256.5 M121.796875 -256.5 C121.796875 -244.52574042976184, 121.796875 -232.5514808595237, 121.796875 -213.75 M121.796875 -256.5 C121.796875 -247.56983501984377, 121.796875 -238.6396700396875, 121.796875 -213.75 M121.796875 -213.75 C69.58006524449439 -213.75, 17.36325548898877 -213.75, -121.796875 -213.75 M121.796875 -213.75 C55.03583291695911 -213.75, -11.725209166081783 -213.75, -121.796875 -213.75 M-121.796875 -213.75 C-121.796875 -225.8414558562335, -121.796875 -237.932911712467, -121.796875 -256.5 M-121.796875 -213.75 C-121.796875 -223.76567998167823, -121.796875 -233.78135996335644, -121.796875 -256.5" stroke="#9370DB" stroke-width="1.3" fill="none" stroke-dasharray="0 0"/></g><g style="" class="row-rect-even"><path d="M-121.796875 -213.75 L121.796875 -213.75 L121.796875 -171 L-121.796875 -171" stroke="none" stroke-width="0" fill="hsl(240, 100%, 97.2745098039%)"/><path d="M-121.796875 -213.75 C-29.826170652069735 -213.75, 62.14453369586053 -213.75, 121.796875 -213.75 M-121.796875 -213.75 C-52.823299508281735 -213.75, 16.15027598343653 -213.75, 121.796875 -213.75 M121.796875 -213.75 C121.796875 -203.668039394076, 121.796875 -193.58607878815204, 121.796875 -171 M121.796875 -213.75 C121.796875 -199.74160098095223, 121.796875 -185.73320196190446, 121.796875 -171 M121.796875 -171 C72.95373445460169 -171, 24.110593909203374 -171, -121.796875 -171 M121.796875 -171 C25.683206939010077 -171, -70.43046112197985 -171, -121.796875 -171 M-121.796875 -171 C-121.796875 -184.89275912204826, -121.796875 -198.78551824409652, -121.796875 -213.75 M-121.796875 -171 C-121.796875 -183.6882715373333, -121.796875 -196.37654307466659, -121.796875 -213.75" stroke="#9370DB" stroke-width="1.3" fill="none" stroke-dasharray="0 0"/></g><g style="" class="row-rect-odd"><path d="M-121.796875 -171 L121.796875 -171 L121.796875 -128.25 L-121.796875 -128.25" stroke="none" stroke-width="0" fill="hsl(240, 100%, 100%)"/><path d="M-121.796875 -171 C-69.27382824190596 -171, -16.750781483811934 -171, 121.796875 -171 M-121.796875 -171 C-28.416940551973 -171, 64.962993896054 -171, 121.796875 -171 M121.796875 -171 C121.796875 -156.43232504491462, 121.796875 -141.86465008982924, 121.796875 -128.25 M121.796875 -171 C121.796875 -161.40780600863977, 121.796875 -151.81561201727956, 121.796875 -128.25 M121.796875 -128.25 C53.78908615637147 -128.25, -14.218702687257064 -128.25, -121.796875 -128.25 M121.796875 -128.25 C35.30848286142057 -128.25, -51.179909277158856 -128.25, -121.796875 -128.25 M-121.796875 -128.25 C-121.796875 -144.43688460050035, -121.796875 -160.6237692010007, -121.796875 -171 M-121.796875 -128.25 C-121.796875 -144.3414061590513, -121.796875 -160.4328123181026, -121.796875 -171" stroke="#9370DB" stroke-width="1.3" fill="none" stroke-dasharray="0 0"/></g><g style="" class="row-rect-even"><path d="M-121.796875 -128.25 L121.796875 -128.25 L121.796875 -85.5 L-121.796875 -85.5" stroke="none" stroke-width="0" fill="hsl(240, 100%, 97.2745098039%)"/><path d="M-121.796875 -128.25 C-38.72454792750244 -128.25, 44.347779144995116 -128.25, 121.796875 -128.25 M-121.796875 -128.25 C-24.392572763441763 -128.25, 73.01172947311647 -128.25, 121.796875 -128.25 M121.796875 -128.25 C121.796875 -111.74947503118531, 121.796875 -95.24895006237062, 121.796875 -85.5 M121.796875 -128.25 C121.796875 -118.31659050766694, 121.796875 -108.38318101533388, 121.796875 -85.5 M121.796875 -85.5 C68.12327401982833 -85.5, 14.449673039656659 -85.5, -121.796875 -85.5 M121.796875 -85.5 C66.89277540506254 -85.5, 11.98867581012506 -85.5, -121.796875 -85.5 M-121.796875 -85.5 C-121.796875 -100.5467295065719, -121.796875 -115.59345901314377, -121.796875 -128.25 M-121.796875 -85.5 C-121.796875 -97.44880655332705, -121.796875 -109.39761310665409, -121.796875 -128.25" stroke="#9370DB" stroke-width="1.3" fill="none" stroke-dasharray="0 0"/></g><g style="" class="row-rect-odd"><path d="M-121.796875 -85.5 L121.796875 -85.5 L121.796875 -42.75 L-121.796875 -42.75" stroke="none" stroke-width="0" fill="hsl(240, 100%, 100%)"/><path d="M-121.796875 -85.5 C-66.0312062232637 -85.5, -10.265537446527404 -85.5, 121.796875 -85.5 M-121.796875 -85.5 C-24.732571907891554 -85.5, 72.33173118421689 -85.5, 121.796875 -85.5 M121.796875 -85.5 C121.796875 -68.9648826766296, 121.796875 -52.42976535325921, 121.796875 -42.75 M121.796875 -85.5 C121.796875 -70.07865020038034, 121.796875 -54.65730040076068, 121.796875 -42.75 M121.796875 -42.75 C31.44951364869884 -42.75, -58.89784770260232 -42.75, -121.796875 -42.75 M121.796875 -42.75 C58.30505052850978 -42.75, -5.186773942980437 -42.75, -121.796875 -42.75 M-121.796875 -42.75 C-121.796875 -58.94689249975747, -121.796875 -75.14378499951493, -121.796875 -85.5 M-121.796875 -42.75 C-121.796875 -57.014222138266526, -121.796875 -71.27844427653305, -121.796875 -85.5" stroke="#9370DB" stroke-width="1.3" fill="none" stroke-dasharray="0 0"/></g><g style="" class="row-rect-even"><path d="M-121.796875 -42.75 L121.796875 -42.75 L121.796875 0 L-121.796875 0" stroke="none" stroke-width="0" fill="hsl(240, 100%, 97.2745098039%)"/><path d="M-121.796875 -42.75 C-59.76084256156762 -42.75, 2.275189876864758 -42.75, 121.796875 -42.75 M-121.796875 -42.75 C-56.354353043195246 -42.75, 9.088168913609508 -42.75, 121.796875 -42.75 M121.796875 -42.75 C121.796875 -30.91248324032283, 121.796875 -19.07496648064566, 121.796875 0 M121.796875 -42.75 C121.796875 -28.76361908999044, 121.796875 -14.777238179980877, 121.796875 0 M121.796875 0 C47.376213472676184 0, -27.04444805464763 0, -121.796875 0 M121.796875 0 C40.88472287238166 0, -40.02742925523668 0, -121.796875 0 M-121.796875 0 C-121.796875 -16.77730485005402, -121.796875 -33.55460970010804, -121.796875 -42.75 M-121.796875 0 C-121.796875 -14.217677123742575, -121.796875 -28.43535424748515, -121.796875 -42.75" stroke="#9370DB" stroke-width="1.3" fill="none" stroke-dasharray="0 0"/></g><g style="" class="row-rect-odd"><path d="M-121.796875 0 L121.796875 0 L121.796875 42.75 L-121.796875 42.75" stroke="none" stroke-width="0" fill="hsl(240, 100%, 100%)"/><path d="M-121.796875 0 C-71.94715752408246 0, -22.0974400481649 0, 121.796875 0 M-121.796875 0 C-55.25407544707254 0, 11.288724105854925 0, 121.796875 0 M121.796875 0 C121.796875 9.910901610061975, 121.796875 19.82180322012395, 121.796875 42.75 M121.796875 0 C121.796875 11.892317915138822, 121.796875 23.784635830277644, 121.796875 42.75 M121.796875 42.75 C59.01466102771813 42.75, -3.7675529445637466 42.75, -121.796875 42.75 M121.796875 42.75 C31.087901003449474 42.75, -59.62107299310105 42.75, -121.796875 42.75 M-121.796875 42.75 C-121.796875 26.770251830670126, -121.796875 10.790503661340253, -121.796875 0 M-121.796875 42.75 C-121.796875 31.16441273335251, -121.796875 19.57882546670502, -121.796875 0" stroke="#9370DB" stroke-width="1.3" fill="none" stroke-dasharray="0 0"/></g><g style="" class="row-rect-even"><path d="M-121.796875 42.75 L121.796875 42.75 L121.796875 85.5 L-121.796875 85.5" stroke="none" stroke-width="0" fill="hsl(240, 100%, 97.2745098039%)"/><path d="M-121.796875 42.75 C-28.094913999635892 42.75, 65.60704700072822 42.75, 121.796875 42.75 M-121.796875 42.75 C-34.84688632907937 42.75, 52.103102341841264 42.75, 121.796875 42.75 M121.796875 42.75 C121.796875 58.00294931668215, 121.796875 73.2558986333643, 121.796875 85.5 M121.796875 42.75 C121.796875 51.34213130548518, 121.796875 59.93426261097036, 121.796875 85.5 M121.796875 85.5 C44.472620617976546 85.5, -32.85163376404691 85.5, -121.796875 85.5 M121.796875 85.5 C39.35908706253784 85.5, -43.07870087492432 85.5, -121.796875 85.5 M-121.796875 85.5 C-121.796875 68.48081393687734, -121.796875 51.46162787375467, -121.796875 42.75 M-121.796875 85.5 C-121.796875 70.07972939873733, -121.796875 54.65945879747464, -121.796875 42.75" stroke="#9370DB" stroke-width="1.3" fill="none" stroke-dasharray="0 0"/></g><g style="" class="row-rect-odd"><path d="M-121.796875 85.5 L121.796875 85.5 L121.796875 128.25 L-121.796875 128.25" stroke="none" stroke-width="0" fill="hsl(240, 100%, 100%)"/><path d="M-121.796875 85.5 C-24.468271162067452 85.5, 72.8603326758651 85.5, 121.796875 85.5 M-121.796875 85.5 C-27.71274015248271 85.5, 66.37139469503458 85.5, 121.796875 85.5 M121.796875 85.5 C121.796875 97.50181518780785, 121.796875 109.5036303756157, 121.796875 128.25 M121.796875 85.5 C121.796875 99.90131378352864, 121.796875 114.30262756705727, 121.796875 128.25 M121.796875 128.25 C42.612611331587416 128.25, -36.57165233682517 128.25, -121.796875 128.25 M121.796875 128.25 C30.149363255262273 128.25, -61.498148489475454 128.25, -121.796875 128.25 M-121.796875 128.25 C-121.796875 116.77103630727322, -121.796875 105.29207261454644, -121.796875 85.5 M-121.796875 128.25 C-121.796875 114.20650422458793, -121.796875 100.16300844917585, -121.796875 85.5" stroke="#9370DB" stroke-width="1.3" fill="none" stroke-dasharray="0 0"/></g><g style="" class="row-rect-even"><path d="M-121.796875 128.25 L121.796875 128.25 L121.796875 171 L-121.796875 171" stroke="none" stroke-width="0" fill="hsl(240, 100%, 97.2745098039%)"/><path d="M-121.796875 128.25 C-44.21901383484135 128.25, 33.3588473303173 128.25, 121.796875 128.25 M-121.796875 128.25 C-44.90687512811381 128.25, 31.98312474377238 128.25, 121.796875 128.25 M121.796875 128.25 C121.796875 143.25088706845156, 121.796875 158.2517741369031, 121.796875 171 M121.796875 128.25 C121.796875 143.8335334173403, 121.796875 159.4170668346806, 121.796875 171 M121.796875 171 C61.94440392821638 171, 2.091932856432763 171, -121.796875 171 M121.796875 171 C40.10537758349018 171, -41.58611983301964 171, -121.796875 171 M-121.796875 171 C-121.796875 157.73646182902365, -121.796875 144.47292365804734, -121.796875 128.25 M-121.796875 171 C-121.796875 156.52174681404782, -121.796875 142.04349362809563, -121.796875 128.25" stroke="#9370DB" stroke-width="1.3" fill="none" stroke-dasharray="0 0"/></g><g style="" class="row-rect-odd"><path d="M-121.796875 171 L121.796875 171 L121.796875 213.75 L-121.796875 213.75" stroke="none" stroke-width="0" fill="hsl(240, 100%, 100%)"/><path d="M-121.796875 171 C-70.82703185188689 171, -19.857188703773787 171, 121.796875 171 M-121.796875 171 C-26.283469275789543 171, 69.22993644842091 171, 121.796875 171 M121.796875 171 C121.796875 186.17085367807843, 121.796875 201.34170735615683, 121.796875 213.75 M121.796875 171 C121.796875 183.26184518944433, 121.796875 195.52369037888863, 121.796875 213.75 M121.796875 213.75 C24.55874761842047 213.75, -72.67937976315906 213.75, -121.796875 213.75 M121.796875 213.75 C44.67447607966433 213.75, -32.44792284067134 213.75, -121.796875 213.75 M-121.796875 213.75 C-121.796875 198.9283181979457, -121.796875 184.10663639589143, -121.796875 171 M-121.796875 213.75 C-121.796875 202.33385490620836, -121.796875 190.91770981241672, -121.796875 171" stroke="#9370DB" stroke-width="1.3" fill="none" stroke-dasharray="0 0"/></g><g style="" class="row-rect-even"><path d="M-121.796875 213.75 L121.796875 213.75 L121.796875 256.5 L-121.796875 256.5" stroke="none" stroke-width="0" fill="hsl(240, 100%, 97.2745098039%)"/><path d="M-121.796875 213.75 C-46.483186730780176 213.75, 28.83050153843965 213.75, 121.796875 213.75 M-121.796875 213.75 C-56.56302075879731 213.75, 8.670833482405385 213.75, 121.796875 213.75 M121.796875 213.75 C121.796875 227.6540520395528, 121.796875 241.55810407910562, 121.796875 256.5 M121.796875 213.75 C121.796875 230.4964874954814, 121.796875 247.24297499096278, 121.796875 256.5 M121.796875 256.5 C24.39711859009745 256.5, -73.0026378198051 256.5, -121.796875 256.5 M121.796875 256.5 C27.033705315903973 256.5, -67.72946436819205 256.5, -121.796875 256.5 M-121.796875 256.5 C-121.796875 245.2914945787791, -121.796875 234.0829891575582, -121.796875 213.75 M-121.796875 256.5 C-121.796875 246.4960431533442, -121.796875 236.4920863066884, -121.796875 213.75" stroke="#9370DB" stroke-width="1.3" fill="none" stroke-dasharray="0 0"/></g><g style="" class="row-rect-odd"><path d="M-121.796875 256.5 L121.796875 256.5 L121.796875 299.25 L-121.796875 299.25" stroke="none" stroke-width="0" fill="hsl(240, 100%, 100%)"/><path d="M-121.796875 256.5 C-67.5737703179714 256.5, -13.35066563594279 256.5, 121.796875 256.5 M-121.796875 256.5 C-72.2207282859861 256.5, -22.64458157197221 256.5, 121.796875 256.5 M121.796875 256.5 C121.796875 268.6598836377971, 121.796875 280.81976727559424, 121.796875 299.25 M121.796875 256.5 C121.796875 267.9798607000681, 121.796875 279.45972140013623, 121.796875 299.25 M121.796875 299.25 C36.709806103101855 299.25, -48.37726279379629 299.25, -121.796875 299.25 M121.796875 299.25 C64.18965820463734 299.25, 6.5824414092746935 299.25, -121.796875 299.25 M-121.796875 299.25 C-121.796875 284.478616580501, -121.796875 269.70723316100197, -121.796875 256.5 M-121.796875 299.25 C-121.796875 283.94867495126516, -121.796875 268.6473499025303, -121.796875 256.5" stroke="#9370DB" stroke-width="1.3" fill="none" stroke-dasharray="0 0"/></g><g style="" class="row-rect-even"><path d="M-121.796875 299.25 L121.796875 299.25 L121.796875 342 L-121.796875 342" stroke="none" stroke-width="0" fill="hsl(240, 100%, 97.2745098039%)"/><path d="M-121.796875 299.25 C-55.670238276020896 299.25, 10.456398447958207 299.25, 121.796875 299.25 M-121.796875 299.25 C-34.137694440713204 299.25, 53.52148611857359 299.25, 121.796875 299.25 M121.796875 299.25 C121.796875 315.2794593656379, 121.796875 331.3089187312757, 121.796875 342 M121.796875 299.25 C121.796875 316.1416222458996, 121.796875 333.0332444917992, 121.796875 342 M121.796875 342 C30.695822314598246 342, -60.40523037080351 342, -121.796875 342 M121.796875 342 C72.36724732677672 342, 22.937619653553426 342, -121.796875 342 M-121.796875 342 C-121.796875 331.5291347739029, -121.796875 321.0582695478059, -121.796875 299.25 M-121.796875 342 C-121.796875 325.4405968637743, -121.796875 308.88119372754863, -121.796875 299.25" stroke="#9370DB" stroke-width="1.3" fill="none" stroke-dasharray="0 0"/></g><g style="" class="row-rect-odd"><path d="M-121.796875 342 L121.796875 342 L121.796875 384.75 L-121.796875 384.75" stroke="none" stroke-width="0" fill="hsl(240, 100%, 100%)"/><path d="M-121.796875 342 C-52.58784196226202 342, 16.621191075475963 342, 121.796875 342 M-121.796875 342 C-70.36666918810477 342, -18.936463376209545 342, 121.796875 342 M121.796875 342 C121.796875 356.06224359431957, 121.796875 370.12448718863914, 121.796875 384.75 M121.796875 342 C121.796875 352.90459796487323, 121.796875 363.8091959297464, 121.796875 384.75 M121.796875 384.75 C47.749969503983564 384.75, -26.29693599203287 384.75, -121.796875 384.75 M121.796875 384.75 C55.35240864932348 384.75, -11.092057701353042 384.75, -121.796875 384.75 M-121.796875 384.75 C-121.796875 374.9580802668891, -121.796875 365.16616053377817, -121.796875 342 M-121.796875 384.75 C-121.796875 368.2005861509214, -121.796875 351.65117230184285, -121.796875 342" stroke="#9370DB" stroke-width="1.3" fill="none" stroke-dasharray="0 0"/></g><g style="" class="row-rect-even"><path d="M-121.796875 384.75 L121.796875 384.75 L121.796875 427.5 L-121.796875 427.5" stroke="none" stroke-width="0" fill="hsl(240, 100%, 97.2745098039%)"/><path d="M-121.796875 384.75 C-24.404524266136548 384.75, 72.9878264677269 384.75, 121.796875 384.75 M-121.796875 384.75 C-30.58396445435747 384.75, 60.62894609128506 384.75, 121.796875 384.75 M121.796875 384.75 C121.796875 400.63815472680915, 121.796875 416.52630945361835, 121.796875 427.5 M121.796875 384.75 C121.796875 394.87408183210835, 121.796875 404.9981636642167, 121.796875 427.5 M121.796875 427.5 C33.69245618318482 427.5, -54.41196263363037 427.5, -121.796875 427.5 M121.796875 427.5 C43.98848065023046 427.5, -33.819913699539086 427.5, -121.796875 427.5 M-121.796875 427.5 C-121.796875 418.1713666513375, -121.796875 408.842733302675, -121.796875 384.75 M-121.796875 427.5 C-121.796875 412.38828932708896, -121.796875 397.2765786541779, -121.796875 384.75" stroke="#9370DB" stroke-width="1.3" fill="none" stroke-dasharray="0 0"/></g><g style="" class="row-rect-odd"><path d="M-121.796875 427.5 L121.796875 427.5 L121.796875 470.25 L-121.796875 470.25" stroke="none" stroke-width="0" fill="hsl(240, 100%, 100%)"/><path d="M-121.796875 427.5 C-39.977826679936655 427.5, 41.84122164012669 427.5, 121.796875 427.5 M-121.796875 427.5 C-55.55035139887555 427.5, 10.696172202248903 427.5, 121.796875 427.5 M121.796875 427.5 C121.796875 442.1674882920816, 121.796875 456.83497658416314, 121.796875 470.25 M121.796875 427.5 C121.796875 442.02775697208796, 121.796875 456.55551394417586, 121.796875 470.25 M121.796875 470.25 C72.3385889116002 470.25, 22.88030282320041 470.25, -121.796875 470.25 M121.796875 470.25 C68.6244478417509 470.25, 15.452020683501786 470.25, -121.796875 470.25 M-121.796875 470.25 C-121.796875 454.0367335983622, -121.796875 437.82346719672444, -121.796875 427.5 M-121.796875 470.25 C-121.796875 457.0200079958499, -121.796875 443.7900159916998, -121.796875 427.5" stroke="#9370DB" stroke-width="1.3" fill="none" stroke-dasharray="0 0"/></g><g class="label name" transform="translate(-47.2734375, -460.875)" style=""><foreignObject width="94.546875" height="24"><div xmlns="http://www.w3.org/1999/xhtml" style="display: table-cell; white-space: nowrap; line-height: 1.5; max-width: 187px; text-align: start;"><span class="nodeLabel"><p>TidyFlagstats</p></span></div></foreignObject></g><g class="label attribute-type" transform="translate(-109.296875, -418.125)" style=""><foreignObject width="39.125" height="24"><div xmlns="http://www.w3.org/1999/xhtml" style="display: table-cell; white-space: nowrap; line-height: 1.5; max-width: 136px; text-align: start;"><span class="nodeLabel"><p>string</p></span></div></foreignObject></g><g class="label attribute-name" transform="translate(-45.171875, -418.125)" style=""><foreignObject width="121.875" height="24"><div xmlns="http://www.w3.org/1999/xhtml" style="display: table-cell; white-space: nowrap; line-height: 1.5; max-width: 208px; text-align: start;"><span class="nodeLabel"><p>passed_or_failed</p></span></div></foreignObject></g><g class="label attribute-keys" transform="translate(134.296875, -418.125)" style=""><foreignObject width="0" height="0"><div xmlns="http://www.w3.org/1999/xhtml" style="display: table-cell; white-space: nowrap; line-height: 1.5; max-width: 100px; text-align: start;"><span class="nodeLabel"></span></div></foreignObject></g><g class="label attribute-comment" transform="translate(134.296875, -418.125)" style=""><foreignObject width="0" height="0"><div xmlns="http://www.w3.org/1999/xhtml" style="display: table-cell; white-space: nowrap; line-height: 1.5; max-width: 100px; text-align: start;"><span class="nodeLabel"></span></div></foreignObject></g><g class="label attribute-type" transform="translate(-109.296875, -375.375)" style=""><foreignObject width="30.25" height="24"><div xmlns="http://www.w3.org/1999/xhtml" style="display: table-cell; white-space: nowrap; line-height: 1.5; max-width: 130px; text-align: start;"><span class="nodeLabel"><p>float</p></span></div></foreignObject></g><g class="label attribute-name" transform="translate(-45.171875, -375.375)" style=""><foreignObject width="30.25" height="24"><div xmlns="http://www.w3.org/1999/xhtml" style="display: table-cell; white-space: nowrap; line-height: 1.5; max-width: 129px; text-align: start;"><span class="nodeLabel"><p>total</p></span></div></foreignObject></g><g class="label attribute-keys" transform="translate(134.296875, -375.375)" style=""><foreignObject width="0" height="0"><div xmlns="http://www.w3.org/1999/xhtml" style="display: table-cell; white-space: nowrap; line-height: 1.5; max-width: 100px; text-align: start;"><span class="nodeLabel"></span></div></foreignObject></g><g class="label attribute-comment" transform="translate(134.296875, -375.375)" style=""><foreignObject width="0" height="0"><div xmlns="http://www.w3.org/1999/xhtml" style="display: table-cell; white-space: nowrap; line-height: 1.5; max-width: 100px; text-align: start;"><span class="nodeLabel"></span></div></foreignObject></g><g class="label attribute-type" transform="translate(-109.296875, -332.625)" style=""><foreignObject width="30.25" height="24"><div xmlns="http://www.w3.org/1999/xhtml" style="display: table-cell; white-space: nowrap; line-height: 1.5; max-width: 130px; text-align: start;"><span class="nodeLabel"><p>float</p></span></div></foreignObject></g><g class="label attribute-name" transform="translate(-45.171875, -332.625)" style=""><foreignObject width="53.34375" height="24"><div xmlns="http://www.w3.org/1999/xhtml" style="display: table-cell; white-space: nowrap; line-height: 1.5; max-width: 151px; text-align: start;"><span class="nodeLabel"><p>primary</p></span></div></foreignObject></g><g class="label attribute-keys" transform="translate(134.296875, -332.625)" style=""><foreignObject width="0" height="0"><div xmlns="http://www.w3.org/1999/xhtml" style="display: table-cell; white-space: nowrap; line-height: 1.5; max-width: 100px; text-align: start;"><span class="nodeLabel"></span></div></foreignObject></g><g class="label attribute-comment" transform="translate(134.296875, -332.625)" style=""><foreignObject width="0" height="0"><div xmlns="http://www.w3.org/1999/xhtml" style="display: table-cell; white-space: nowrap; line-height: 1.5; max-width: 100px; text-align: start;"><span class="nodeLabel"></span></div></foreignObject></g><g class="label attribute-type" transform="translate(-109.296875, -289.875)" style=""><foreignObject width="30.25" height="24"><div xmlns="http://www.w3.org/1999/xhtml" style="display: table-cell; white-space: nowrap; line-height: 1.5; max-width: 130px; text-align: start;"><span class="nodeLabel"><p>float</p></span></div></foreignObject></g><g class="label attribute-name" transform="translate(-45.171875, -289.875)" style=""><foreignObject width="73.828125" height="24"><div xmlns="http://www.w3.org/1999/xhtml" style="display: table-cell; white-space: nowrap; line-height: 1.5; max-width: 165px; text-align: start;"><span class="nodeLabel"><p>secondary</p></span></div></foreignObject></g><g class="label attribute-keys" transform="translate(134.296875, -289.875)" style=""><foreignObject width="0" height="0"><div xmlns="http://www.w3.org/1999/xhtml" style="display: table-cell; white-space: nowrap; line-height: 1.5; max-width: 100px; text-align: start;"><span class="nodeLabel"></span></div></foreignObject></g><g class="label attribute-comment" transform="translate(134.296875, -289.875)" style=""><foreignObject width="0" height="0"><div xmlns="http://www.w3.org/1999/xhtml" style="display: table-cell; white-space: nowrap; line-height: 1.5; max-width: 100px; text-align: start;"><span class="nodeLabel"></span></div></foreignObject></g><g class="label attribute-type" transform="translate(-109.296875, -247.125)" style=""><foreignObject width="30.25" height="24"><div xmlns="http://www.w3.org/1999/xhtml" style="display: table-cell; white-space: nowrap; line-height: 1.5; max-width: 130px; text-align: start;"><span class="nodeLabel"><p>float</p></span></div></foreignObject></g><g class="label attribute-name" transform="translate(-45.171875, -247.125)" style=""><foreignObject width="38.25" height="24"><div xmlns="http://www.w3.org/1999/xhtml" style="display: table-cell; white-space: nowrap; line-height: 1.5; max-width: 135px; text-align: start;"><span class="nodeLabel"><p>suppl</p></span></div></foreignObject></g><g class="label attribute-keys" transform="translate(134.296875, -247.125)" style=""><foreignObject width="0" height="0"><div xmlns="http://www.w3.org/1999/xhtml" style="display: table-cell; white-space: nowrap; line-height: 1.5; max-width: 100px; text-align: start;"><span class="nodeLabel"></span></div></foreignObject></g><g class="label attribute-comment" transform="translate(134.296875, -247.125)" style=""><foreignObject width="0" height="0"><div xmlns="http://www.w3.org/1999/xhtml" style="display: table-cell; white-space: nowrap; line-height: 1.5; max-width: 100px; text-align: start;"><span class="nodeLabel"></span></div></foreignObject></g><g class="label attribute-type" transform="translate(-109.296875, -204.375)" style=""><foreignObject width="30.25" height="24"><div xmlns="http://www.w3.org/1999/xhtml" style="display: table-cell; white-space: nowrap; line-height: 1.5; max-width: 130px; text-align: start;"><span class="nodeLabel"><p>float</p></span></div></foreignObject></g><g class="label attribute-name" transform="translate(-45.171875, -204.375)" style=""><foreignObject width="26.703125" height="24"><div xmlns="http://www.w3.org/1999/xhtml" style="display: table-cell; white-space: nowrap; line-height: 1.5; max-width: 124px; text-align: start;"><span class="nodeLabel"><p>dup</p></span></div></foreignObject></g><g class="label attribute-keys" transform="translate(134.296875, -204.375)" style=""><foreignObject width="0" height="0"><div xmlns="http://www.w3.org/1999/xhtml" style="display: table-cell; white-space: nowrap; line-height: 1.5; max-width: 100px; text-align: start;"><span class="nodeLabel"></span></div></foreignObject></g><g class="label attribute-comment" transform="translate(134.296875, -204.375)" style=""><foreignObject width="0" height="0"><div xmlns="http://www.w3.org/1999/xhtml" style="display: table-cell; white-space: nowrap; line-height: 1.5; max-width: 100px; text-align: start;"><span class="nodeLabel"></span></div></foreignObject></g><g class="label attribute-type" transform="translate(-109.296875, -161.625)" style=""><foreignObject width="30.25" height="24"><div xmlns="http://www.w3.org/1999/xhtml" style="display: table-cell; white-space: nowrap; line-height: 1.5; max-width: 130px; text-align: start;"><span class="nodeLabel"><p>float</p></span></div></foreignObject></g><g class="label attribute-name" transform="translate(-45.171875, -161.625)" style=""><foreignObject width="88.9375" height="24"><div xmlns="http://www.w3.org/1999/xhtml" style="display: table-cell; white-space: nowrap; line-height: 1.5; max-width: 183px; text-align: start;"><span class="nodeLabel"><p>primary_dup</p></span></div></foreignObject></g><g class="label attribute-keys" transform="translate(134.296875, -161.625)" style=""><foreignObject width="0" height="0"><div xmlns="http://www.w3.org/1999/xhtml" style="display: table-cell; white-space: nowrap; line-height: 1.5; max-width: 100px; text-align: start;"><span class="nodeLabel"></span></div></foreignObject></g><g class="label attribute-comment" transform="translate(134.296875, -161.625)" style=""><foreignObject width="0" height="0"><div xmlns="http://www.w3.org/1999/xhtml" style="display: table-cell; white-space: nowrap; line-height: 1.5; max-width: 100px; text-align: start;"><span class="nodeLabel"></span></div></foreignObject></g><g class="label attribute-type" transform="translate(-109.296875, -118.875)" style=""><foreignObject width="30.25" height="24"><div xmlns="http://www.w3.org/1999/xhtml" style="display: table-cell; white-space: nowrap; line-height: 1.5; max-width: 130px; text-align: start;"><span class="nodeLabel"><p>float</p></span></div></foreignObject></g><g class="label attribute-name" transform="translate(-45.171875, -118.875)" style=""><foreignObject width="57.828125" height="24"><div xmlns="http://www.w3.org/1999/xhtml" style="display: table-cell; white-space: nowrap; line-height: 1.5; max-width: 151px; text-align: start;"><span class="nodeLabel"><p>mapped</p></span></div></foreignObject></g><g class="label attribute-keys" transform="translate(134.296875, -118.875)" style=""><foreignObject width="0" height="0"><div xmlns="http://www.w3.org/1999/xhtml" style="display: table-cell; white-space: nowrap; line-height: 1.5; max-width: 100px; text-align: start;"><span class="nodeLabel"></span></div></foreignObject></g><g class="label attribute-comment" transform="translate(134.296875, -118.875)" style=""><foreignObject width="0" height="0"><div xmlns="http://www.w3.org/1999/xhtml" style="display: table-cell; white-space: nowrap; line-height: 1.5; max-width: 100px; text-align: start;"><span class="nodeLabel"></span></div></foreignObject></g><g class="label attribute-type" transform="translate(-109.296875, -76.125)" style=""><foreignObject width="30.25" height="24"><div xmlns="http://www.w3.org/1999/xhtml" style="display: table-cell; white-space: nowrap; line-height: 1.5; max-width: 130px; text-align: start;"><span class="nodeLabel"><p>float</p></span></div></foreignObject></g><g class="label attribute-name" transform="translate(-45.171875, -76.125)" style=""><foreignObject width="93.359375" height="24"><div xmlns="http://www.w3.org/1999/xhtml" style="display: table-cell; white-space: nowrap; line-height: 1.5; max-width: 186px; text-align: start;"><span class="nodeLabel"><p>primary_map</p></span></div></foreignObject></g><g class="label attribute-keys" transform="translate(134.296875, -76.125)" style=""><foreignObject width="0" height="0"><div xmlns="http://www.w3.org/1999/xhtml" style="display: table-cell; white-space: nowrap; line-height: 1.5; max-width: 100px; text-align: start;"><span class="nodeLabel"></span></div></foreignObject></g><g class="label attribute-comment" transform="translate(134.296875, -76.125)" style=""><foreignObject width="0" height="0"><div xmlns="http://www.w3.org/1999/xhtml" style="display: table-cell; white-space: nowrap; line-height: 1.5; max-width: 100px; text-align: start;"><span class="nodeLabel"></span></div></foreignObject></g><g class="label attribute-type" transform="translate(-109.296875, -33.375)" style=""><foreignObject width="30.25" height="24"><div xmlns="http://www.w3.org/1999/xhtml" style="display: table-cell; white-space: nowrap; line-height: 1.5; max-width: 130px; text-align: start;"><span class="nodeLabel"><p>float</p></span></div></foreignObject></g><g class="label attribute-name" transform="translate(-45.171875, -33.375)" style=""><foreignObject width="100.53125" height="24"><div xmlns="http://www.w3.org/1999/xhtml" style="display: table-cell; white-space: nowrap; line-height: 1.5; max-width: 190px; text-align: start;"><span class="nodeLabel"><p>paired_in_seq</p></span></div></foreignObject></g><g class="label attribute-keys" transform="translate(134.296875, -33.375)" style=""><foreignObject width="0" height="0"><div xmlns="http://www.w3.org/1999/xhtml" style="display: table-cell; white-space: nowrap; line-height: 1.5; max-width: 100px; text-align: start;"><span class="nodeLabel"></span></div></foreignObject></g><g class="label attribute-comment" transform="translate(134.296875, -33.375)" style=""><foreignObject width="0" height="0"><div xmlns="http://www.w3.org/1999/xhtml" style="display: table-cell; white-space: nowrap; line-height: 1.5; max-width: 100px; text-align: start;"><span class="nodeLabel"></span></div></foreignObject></g><g class="label attribute-type" transform="translate(-109.296875, 9.375)" style=""><foreignObject width="30.25" height="24"><div xmlns="http://www.w3.org/1999/xhtml" style="display: table-cell; white-space: nowrap; line-height: 1.5; max-width: 130px; text-align: start;"><span class="nodeLabel"><p>float</p></span></div></foreignObject></g><g class="label attribute-name" transform="translate(-45.171875, 9.375)" style=""><foreignObject width="40.921875" height="24"><div xmlns="http://www.w3.org/1999/xhtml" style="display: table-cell; white-space: nowrap; line-height: 1.5; max-width: 136px; text-align: start;"><span class="nodeLabel"><p>read1</p></span></div></foreignObject></g><g class="label attribute-keys" transform="translate(134.296875, 9.375)" style=""><foreignObject width="0" height="0"><div xmlns="http://www.w3.org/1999/xhtml" style="display: table-cell; white-space: nowrap; line-height: 1.5; max-width: 100px; text-align: start;"><span class="nodeLabel"></span></div></foreignObject></g><g class="label attribute-comment" transform="translate(134.296875, 9.375)" style=""><foreignObject width="0" height="0"><div xmlns="http://www.w3.org/1999/xhtml" style="display: table-cell; white-space: nowrap; line-height: 1.5; max-width: 100px; text-align: start;"><span class="nodeLabel"></span></div></foreignObject></g><g class="label attribute-type" transform="translate(-109.296875, 52.125)" style=""><foreignObject width="30.25" height="24"><div xmlns="http://www.w3.org/1999/xhtml" style="display: table-cell; white-space: nowrap; line-height: 1.5; max-width: 130px; text-align: start;"><span class="nodeLabel"><p>float</p></span></div></foreignObject></g><g class="label attribute-name" transform="translate(-45.171875, 52.125)" style=""><foreignObject width="40.921875" height="24"><div xmlns="http://www.w3.org/1999/xhtml" style="display: table-cell; white-space: nowrap; line-height: 1.5; max-width: 136px; text-align: start;"><span class="nodeLabel"><p>read2</p></span></div></foreignObject></g><g class="label attribute-keys" transform="translate(134.296875, 52.125)" style=""><foreignObject width="0" height="0"><div xmlns="http://www.w3.org/1999/xhtml" style="display: table-cell; white-space: nowrap; line-height: 1.5; max-width: 100px; text-align: start;"><span class="nodeLabel"></span></div></foreignObject></g><g class="label attribute-comment" transform="translate(134.296875, 52.125)" style=""><foreignObject width="0" height="0"><div xmlns="http://www.w3.org/1999/xhtml" style="display: table-cell; white-space: nowrap; line-height: 1.5; max-width: 100px; text-align: start;"><span class="nodeLabel"></span></div></foreignObject></g><g class="label attribute-type" transform="translate(-109.296875, 94.875)" style=""><foreignObject width="30.25" height="24"><div xmlns="http://www.w3.org/1999/xhtml" style="display: table-cell; white-space: nowrap; line-height: 1.5; max-width: 130px; text-align: start;"><span class="nodeLabel"><p>float</p></span></div></foreignObject></g><g class="label attribute-name" transform="translate(-45.171875, 94.875)" style=""><foreignObject width="81.828125" height="24"><div xmlns="http://www.w3.org/1999/xhtml" style="display: table-cell; white-space: nowrap; line-height: 1.5; max-width: 175px; text-align: start;"><span class="nodeLabel"><p>proper_pair</p></span></div></foreignObject></g><g class="label attribute-keys" transform="translate(134.296875, 94.875)" style=""><foreignObject width="0" height="0"><div xmlns="http://www.w3.org/1999/xhtml" style="display: table-cell; white-space: nowrap; line-height: 1.5; max-width: 100px; text-align: start;"><span class="nodeLabel"></span></div></foreignObject></g><g class="label attribute-comment" transform="translate(134.296875, 94.875)" style=""><foreignObject width="0" height="0"><div xmlns="http://www.w3.org/1999/xhtml" style="display: table-cell; white-space: nowrap; line-height: 1.5; max-width: 100px; text-align: start;"><span class="nodeLabel"></span></div></foreignObject></g><g class="label attribute-type" transform="translate(-109.296875, 137.625)" style=""><foreignObject width="30.25" height="24"><div xmlns="http://www.w3.org/1999/xhtml" style="display: table-cell; white-space: nowrap; line-height: 1.5; max-width: 130px; text-align: start;"><span class="nodeLabel"><p>float</p></span></div></foreignObject></g><g class="label attribute-name" transform="translate(-45.171875, 137.625)" style=""><foreignObject width="71.171875" height="24"><div xmlns="http://www.w3.org/1999/xhtml" style="display: table-cell; white-space: nowrap; line-height: 1.5; max-width: 164px; text-align: start;"><span class="nodeLabel"><p>both_map</p></span></div></foreignObject></g><g class="label attribute-keys" transform="translate(134.296875, 137.625)" style=""><foreignObject width="0" height="0"><div xmlns="http://www.w3.org/1999/xhtml" style="display: table-cell; white-space: nowrap; line-height: 1.5; max-width: 100px; text-align: start;"><span class="nodeLabel"></span></div></foreignObject></g><g class="label attribute-comment" transform="translate(134.296875, 137.625)" style=""><foreignObject width="0" height="0"><div xmlns="http://www.w3.org/1999/xhtml" style="display: table-cell; white-space: nowrap; line-height: 1.5; max-width: 100px; text-align: start;"><span class="nodeLabel"></span></div></foreignObject></g><g class="label attribute-type" transform="translate(-109.296875, 180.375)" style=""><foreignObject width="30.25" height="24"><div xmlns="http://www.w3.org/1999/xhtml" style="display: table-cell; white-space: nowrap; line-height: 1.5; max-width: 130px; text-align: start;"><span class="nodeLabel"><p>float</p></span></div></foreignObject></g><g class="label attribute-name" transform="translate(-45.171875, 180.375)" style=""><foreignObject width="72.046875" height="24"><div xmlns="http://www.w3.org/1999/xhtml" style="display: table-cell; white-space: nowrap; line-height: 1.5; max-width: 165px; text-align: start;"><span class="nodeLabel"><p>singletons</p></span></div></foreignObject></g><g class="label attribute-keys" transform="translate(134.296875, 180.375)" style=""><foreignObject width="0" height="0"><div xmlns="http://www.w3.org/1999/xhtml" style="display: table-cell; white-space: nowrap; line-height: 1.5; max-width: 100px; text-align: start;"><span class="nodeLabel"></span></div></foreignObject></g><g class="label attribute-comment" transform="translate(134.296875, 180.375)" style=""><foreignObject width="0" height="0"><div xmlns="http://www.w3.org/1999/xhtml" style="display: table-cell; white-space: nowrap; line-height: 1.5; max-width: 100px; text-align: start;"><span class="nodeLabel"></span></div></foreignObject></g><g class="label attribute-type" transform="translate(-109.296875, 223.125)" style=""><foreignObject width="30.25" height="24"><div xmlns="http://www.w3.org/1999/xhtml" style="display: table-cell; white-space: nowrap; line-height: 1.5; max-width: 130px; text-align: start;"><span class="nodeLabel"><p>float</p></span></div></foreignObject></g><g class="label attribute-name" transform="translate(-45.171875, 223.125)" style=""><foreignObject width="96.65625" height="24"><div xmlns="http://www.w3.org/1999/xhtml" style="display: table-cell; white-space: nowrap; line-height: 1.5; max-width: 190px; text-align: start;"><span class="nodeLabel"><p>matemap_diff</p></span></div></foreignObject></g><g class="label attribute-keys" transform="translate(134.296875, 223.125)" style=""><foreignObject width="0" height="0"><div xmlns="http://www.w3.org/1999/xhtml" style="display: table-cell; white-space: nowrap; line-height: 1.5; max-width: 100px; text-align: start;"><span class="nodeLabel"></span></div></foreignObject></g><g class="label attribute-comment" transform="translate(134.296875, 223.125)" style=""><foreignObject width="0" height="0"><div xmlns="http://www.w3.org/1999/xhtml" style="display: table-cell; white-space: nowrap; line-height: 1.5; max-width: 100px; text-align: start;"><span class="nodeLabel"></span></div></foreignObject></g><g class="label attribute-type" transform="translate(-109.296875, 265.875)" style=""><foreignObject width="30.25" height="24"><div xmlns="http://www.w3.org/1999/xhtml" style="display: table-cell; white-space: nowrap; line-height: 1.5; max-width: 130px; text-align: start;"><span class="nodeLabel"><p>float</p></span></div></foreignObject></g><g class="label attribute-name" transform="translate(-45.171875, 265.875)" style=""><foreignObject width="154.46875" height="24"><div xmlns="http://www.w3.org/1999/xhtml" style="display: table-cell; white-space: nowrap; line-height: 1.5; max-width: 241px; text-align: start;"><span class="nodeLabel"><p>matemap_diff_mapq5</p></span></div></foreignObject></g><g class="label attribute-keys" transform="translate(134.296875, 265.875)" style=""><foreignObject width="0" height="0"><div xmlns="http://www.w3.org/1999/xhtml" style="display: table-cell; white-space: nowrap; line-height: 1.5; max-width: 100px; text-align: start;"><span class="nodeLabel"></span></div></foreignObject></g><g class="label attribute-comment" transform="translate(134.296875, 265.875)" style=""><foreignObject width="0" height="0"><div xmlns="http://www.w3.org/1999/xhtml" style="display: table-cell; white-space: nowrap; line-height: 1.5; max-width: 100px; text-align: start;"><span class="nodeLabel"></span></div></foreignObject></g><g class="label attribute-type" transform="translate(-109.296875, 308.625)" style=""><foreignObject width="30.25" height="24"><div xmlns="http://www.w3.org/1999/xhtml" style="display: table-cell; white-space: nowrap; line-height: 1.5; max-width: 130px; text-align: start;"><span class="nodeLabel"><p>float</p></span></div></foreignObject></g><g class="label attribute-name" transform="translate(-45.171875, 308.625)" style=""><foreignObject width="88.0625" height="24"><div xmlns="http://www.w3.org/1999/xhtml" style="display: table-cell; white-space: nowrap; line-height: 1.5; max-width: 179px; text-align: start;"><span class="nodeLabel"><p>mapped_pct</p></span></div></foreignObject></g><g class="label attribute-keys" transform="translate(134.296875, 308.625)" style=""><foreignObject width="0" height="0"><div xmlns="http://www.w3.org/1999/xhtml" style="display: table-cell; white-space: nowrap; line-height: 1.5; max-width: 100px; text-align: start;"><span class="nodeLabel"></span></div></foreignObject></g><g class="label attribute-comment" transform="translate(134.296875, 308.625)" style=""><foreignObject width="0" height="0"><div xmlns="http://www.w3.org/1999/xhtml" style="display: table-cell; white-space: nowrap; line-height: 1.5; max-width: 100px; text-align: start;"><span class="nodeLabel"></span></div></foreignObject></g><g class="label attribute-type" transform="translate(-109.296875, 351.375)" style=""><foreignObject width="30.25" height="24"><div xmlns="http://www.w3.org/1999/xhtml" style="display: table-cell; white-space: nowrap; line-height: 1.5; max-width: 130px; text-align: start;"><span class="nodeLabel"><p>float</p></span></div></foreignObject></g><g class="label attribute-name" transform="translate(-45.171875, 351.375)" style=""><foreignObject width="123.609375" height="24"><div xmlns="http://www.w3.org/1999/xhtml" style="display: table-cell; white-space: nowrap; line-height: 1.5; max-width: 214px; text-align: start;"><span class="nodeLabel"><p>primary_map_pct</p></span></div></foreignObject></g><g class="label attribute-keys" transform="translate(134.296875, 351.375)" style=""><foreignObject width="0" height="0"><div xmlns="http://www.w3.org/1999/xhtml" style="display: table-cell; white-space: nowrap; line-height: 1.5; max-width: 100px; text-align: start;"><span class="nodeLabel"></span></div></foreignObject></g><g class="label attribute-comment" transform="translate(134.296875, 351.375)" style=""><foreignObject width="0" height="0"><div xmlns="http://www.w3.org/1999/xhtml" style="display: table-cell; white-space: nowrap; line-height: 1.5; max-width: 100px; text-align: start;"><span class="nodeLabel"></span></div></foreignObject></g><g class="label attribute-type" transform="translate(-109.296875, 394.125)" style=""><foreignObject width="30.25" height="24"><div xmlns="http://www.w3.org/1999/xhtml" style="display: table-cell; white-space: nowrap; line-height: 1.5; max-width: 130px; text-align: start;"><span class="nodeLabel"><p>float</p></span></div></foreignObject></g><g class="label attribute-name" transform="translate(-45.171875, 394.125)" style=""><foreignObject width="112.078125" height="24"><div xmlns="http://www.w3.org/1999/xhtml" style="display: table-cell; white-space: nowrap; line-height: 1.5; max-width: 203px; text-align: start;"><span class="nodeLabel"><p>proper_pair_pct</p></span></div></foreignObject></g><g class="label attribute-keys" transform="translate(134.296875, 394.125)" style=""><foreignObject width="0" height="0"><div xmlns="http://www.w3.org/1999/xhtml" style="display: table-cell; white-space: nowrap; line-height: 1.5; max-width: 100px; text-align: start;"><span class="nodeLabel"></span></div></foreignObject></g><g class="label attribute-comment" transform="translate(134.296875, 394.125)" style=""><foreignObject width="0" height="0"><div xmlns="http://www.w3.org/1999/xhtml" style="display: table-cell; white-space: nowrap; line-height: 1.5; max-width: 100px; text-align: start;"><span class="nodeLabel"></span></div></foreignObject></g><g class="label attribute-type" transform="translate(-109.296875, 436.875)" style=""><foreignObject width="30.25" height="24"><div xmlns="http://www.w3.org/1999/xhtml" style="display: table-cell; white-space: nowrap; line-height: 1.5; max-width: 130px; text-align: start;"><span class="nodeLabel"><p>float</p></span></div></foreignObject></g><g class="label attribute-name" transform="translate(-45.171875, 436.875)" style=""><foreignObject width="102.296875" height="24"><div xmlns="http://www.w3.org/1999/xhtml" style="display: table-cell; white-space: nowrap; line-height: 1.5; max-width: 193px; text-align: start;"><span class="nodeLabel"><p>singletons_pct</p></span></div></foreignObject></g><g class="label attribute-keys" transform="translate(134.296875, 436.875)" style=""><foreignObject width="0" height="0"><div xmlns="http://www.w3.org/1999/xhtml" style="display: table-cell; white-space: nowrap; line-height: 1.5; max-width: 100px; text-align: start;"><span class="nodeLabel"></span></div></foreignObject></g><g class="label attribute-comment" transform="translate(134.296875, 436.875)" style=""><foreignObject width="0" height="0"><div xmlns="http://www.w3.org/1999/xhtml" style="display: table-cell; white-space: nowrap; line-height: 1.5; max-width: 100px; text-align: start;"><span class="nodeLabel"></span></div></foreignObject></g><g class="divider"><path d="M-121.796875 -427.5 C-37.305580603690956 -427.5, 47.18571379261809 -427.5, 121.796875 -427.5 M-121.796875 -427.5 C-45.770393348705085 -427.5, 30.25608830258983 -427.5, 121.796875 -427.5" stroke="#9370DB" stroke-width="1.3" fill="none" stroke-dasharray="0 0"/></g><g class="divider"><path d="M-57.671875 -427.5 C-57.671875 -69.90447100464394, -57.671875 287.6910579907121, -57.671875 470.25 M-57.671875 -427.5 C-57.671875 -242.04045169098993, -57.671875 -56.58090338197985, -57.671875 470.25" stroke="#9370DB" stroke-width="1.3" fill="none" stroke-dasharray="0 0"/></g><g class="divider"><path d="M-121.796875 -427.5 C-65.21117239164708 -427.5, -8.625469783294164 -427.5, 121.796875 -427.5 M-121.796875 -427.5 C-60.815441699635535 -427.5, 0.1659916007289297 -427.5, 121.796875 -427.5" stroke="#9370DB" stroke-width="1.3" fill="none" stroke-dasharray="0 0"/></g></g></g></g></g></svg>