<svg id="my-svg" width="100%" xmlns="http://www.w3.org/2000/svg" xmlns:xlink="http://www.w3.org/1999/xlink" class="erDiagram" style="max-width: 546.516px; background-color: white;" viewBox="0 0 546.515625 956.5" role="graphics-document document" aria-roledescription="er"><style>#my-svg{font-family:"trebuchet ms",verdana,arial,sans-serif;font-size:16px;fill:#333;}@keyframes edge-animation-frame{from{stroke-dashoffset:0;}}@keyframes dash{to{stroke-dashoffset:0;}}#my-svg .edge-animation-slow{stroke-dasharray:9,5!important;stroke-dashoffset:900;animation:dash 50s linear infinite;stroke-linecap:round;}#my-svg .edge-animation-fast{stroke-dasharray:9,5!important;stroke-dashoffset:900;animation:dash 20s linear infinite;stroke-linecap:round;}#my-svg .error-icon{fill:#552222;}#my-svg .error-text{fill:#552222;stroke:#552222;}#my-svg .edge-thickness-normal{stroke-width:1px;}#my-svg .edge-thickness-thick{stroke-width:3.5px;}#my-svg .edge-pattern-solid{stroke-dasharray:0;}#my-svg .edge-thickness-invisible{stroke-width:0;fill:none;}#my-svg .edge-pattern-dashed{stroke-dasharray:3;}#my-svg .edge-pattern-dotted{stroke-dasharray:2;}#my-svg .marker{fill:#333333;stroke:#333333;}#my-svg .marker.cross{stroke:#333333;}#my-svg svg{font-family:"trebuchet ms",verdana,arial,sans-serif;font-size:16px;}#my-svg p{margin:0;}#my-svg .entityBox{fill:#ECECFF;stroke:#9370DB;}#my-svg .relationshipLabelBox{fill:hsl(80, 100%, 96.2745098039%);opacity:0.7;background-color:hsl(80, 100%, 96.2745098039%);}#my-svg .relationshipLabelBox rect{opacity:0.5;}#my-svg .labelBkg{background-color:rgba(248.6666666666, 255, 235.9999999999, 0.5);}#my-svg .edgeLabel .label{fill:#9370DB;font-size:14px;}#my-svg .label{font-family:"trebuchet ms",verdana,arial,sans-serif;color:#333;}#my-svg .edge-pattern-dashed{stroke-dasharray:8,8;}#my-svg .node rect,#my-svg .node circle,#my-svg .node ellipse,#my-svg .node polygon{fill:#ECECFF;stroke:#9370DB;stroke-width:1px;}#my-svg .relationshipLine{stroke:#333333;stroke-width:1;fill:none;}#my-svg .marker{fill:none!important;stroke:#333333!important;stroke-width:1;}#my-svg .edgeLabel{background-color:rgba(232,232,232, 0.8);}#my-svg .edgeLabel .label rect{fill:rgba(232,232,232, 0.8);}#my-svg .edgeLabel .label text{fill:#333;}#my-svg :root{--mermaid-font-family:"trebuchet ms",verdana,arial,sans-serif;}</style><g><defs><marker id="my-svg_er-onlyOneStart" class="marker onlyOne er" refX="0" refY="9" markerWidth="18" markerHeight="18" orient="auto"><path d="M9,0 L9,18 M15,0 L15,18"/></marker></defs><defs><marker id="my-svg_er-onlyOneEnd" class="marker onlyOne er" refX="18" refY="9" markerWidth="18" markerHeight="18" orient="auto"><path d="M3,0 L3,18 M9,0 L9,18"/></marker></defs><defs><marker id="my-svg_er-zeroOrOneStart" class="marker zeroOrOne er" refX="0" refY="9" markerWidth="30" markerHeight="18" orient="auto"><circle fill="white" cx="21" cy="9" r="6"/><path d="M9,0 L9,18"/></marker></defs><defs><marker id="my-svg_er-zeroOrOneEnd" class="marker zeroOrOne er" refX="30" refY="9" markerWidth="30" markerHeight="18" orient="auto"><circle fill="white" cx="9" cy="9" r="6"/><path d="M21,0 L21,18"/></marker></defs><defs><marker id="my-svg_er-oneOrMoreStart" class="marker oneOrMore er" refX="18" refY="18" markerWidth="45" markerHeight="36" orient="auto"><path d="M0,18 Q 18,0 36,18 Q 18,36 0,18 M42,9 L42,27"/></marker></defs><defs><marker id="my-svg_er-oneOrMoreEnd" class="marker oneOrMore er" refX="27" refY="18" markerWidth="45" markerHeight="36" orient="auto"><path d="M3,9 L3,27 M9,18 Q27,0 45,18 Q27,36 9,18"/></marker></defs><defs><marker id="my-svg_er-zeroOrMoreStart" class="marker zeroOrMore er" refX="18" refY="18" markerWidth="57" markerHeight="36" orient="auto"><circle fill="white" cx="48" cy="18" r="6"/><path d="M0,18 Q18,0 36,18 Q18,36 0,18"/></marker></defs><defs><marker id="my-svg_er-zeroOrMoreEnd" class="marker zeroOrMore er" refX="39" refY="18" markerWidth="57" markerHeight="36" orient="auto"><circle fill="white" cx="9" cy="18" r="6"/><path d="M21,18 Q39,0 57,18 Q39,36 21,18"/></marker></defs><g class="root"><g class="clusters"/><g class="edgePaths"/><g class="edgeLabels"/><g class="nodes"><g class="node default" id="entity-RawFlagstats-0" transform="translate(81.4609375, 478.25)"><g style=""><path d="M-73.4609375 -42.75 L73.4609375 -42.75 L73.4609375 42.75 L-73.4609375 42.75" stroke="none" stroke-width="0" fill="#ECECFF"/><path d="M-73.4609375 -42.75 C-41.6878224474779 -42.75, -9.914707394955798 -42.75, 73.4609375 -42.75 M-73.4609375 -42.75 C-37.48750563701231 -42.75, -1.5140737740246237 -42.75, 73.4609375 -42.75 M73.4609375 -42.75 C73.4609375 -18.63587068614871, 73.4609375 5.47825862770258, 73.4609375 42.75 M73.4609375 -42.75 C73.4609375 -23.524116123684085, 73.4609375 -4.298232247368169, 73.4609375 42.75 M73.4609375 42.75 C15.566888820995779 42.75, -42.32715985800844 42.75, -73.4609375 42.75 M73.4609375 42.75 C36.02191611864256 42.75, -1.417105262714884 42.75, -73.4609375 42.75 M-73.4609375 42.75 C-73.4609375 17.92369373634065, -73.4609375 -6.902612527318702, -73.4609375 -42.75 M-73.4609375 42.75 C-73.4609375 20.74985531365356, -73.4609375 -1.2502893726928832, -73.4609375 -42.75" stroke="#9370DB" stroke-width="1.3" fill="none" stroke-dasharray="0 0"/></g><g style="" class="row-rect-odd"><path d="M-73.4609375 0 L73.4609375 0 L73.4609375 42.75 L-73.4609375 42.75" stroke="none" stroke-width="0" fill="hsl(240, 100%, 100%)"/><path d="M-73.4609375 0 C-17.580636028502994 0, 38.29966544299401 0, 73.4609375 0 M-73.4609375 0 C-30.215881378033274 0, 13.029174743933453 0, 73.4609375 0 M73.4609375 0 C73.4609375 17.028920210467533, 73.4609375 34.057840420935065, 73.4609375 42.75 M73.4609375 0 C73.4609375 8.571180068455538, 73.4609375 17.142360136911076, 73.4609375 42.75 M73.4609375 42.75 C22.162637383581362 42.75, -29.135662732837275 42.75, -73.4609375 42.75 M73.4609375 42.75 C28.911042582206967 42.75, -15.638852335586066 42.75, -73.4609375 42.75 M-73.4609375 42.75 C-73.4609375 30.579568076823218, -73.4609375 18.409136153646436, -73.4609375 0 M-73.4609375 42.75 C-73.4609375 31.956556556833384, -73.4609375 21.16311311366677, -73.4609375 0" stroke="#9370DB" stroke-width="1.3" fill="none" stroke-dasharray="0 0"/></g><g class="label name" transform="translate(-48.4609375, -33.375)" style=""><foreignObject width="96.921875" height="24"><div xmlns="http://www.w3.org/1999/xhtml" style="display: table-cell; white-space: nowrap; line-height: 1.5; max-width: 186px; text-align: start;"><span class="nodeLabel"><p>RawFlagstats</p></span></div></foreignObject></g><g class="label attribute-type" transform="translate(-60.9609375, 9.375)" style=""><foreignObject width="39.125" height="24"><div xmlns="http://www.w3.org/1999/xhtml" style="display: table-cell; white-space: nowrap; line-height: 1.5; max-width: 136px; text-align: start;"><span class="nodeLabel"><p>string</p></span></div></foreignObject></g><g class="label attribute-name" transform="translate(5.8359375, 9.375)" style=""><foreignObject width="52.453125" height="24"><div xmlns="http://www.w3.org/1999/xhtml" style="display: table-cell; white-space: nowrap; line-height: 1.5; max-width: 149px; text-align: start;"><span class="nodeLabel"><p>dummy</p></span></div></foreignObject></g><g class="label attribute-keys" transform="translate(85.9609375, 9.375)" style=""><foreignObject width="0" height="0"><div xmlns="http://www.w3.org/1999/xhtml" style="display: table-cell; white-space: nowrap; line-height: 1.5; max-width: 100px; text-align: start;"><span class="nodeLabel"></span></div></foreignObject></g><g class="label attribute-comment" transform="translate(85.9609375, 9.375)" style=""><foreignObject width="0" height="0"><div xmlns="http://www.w3.org/1999/xhtml" style="display: table-cell; white-space: nowrap; line-height: 1.5; max-width: 100px; text-align: start;"><span class="nodeLabel"></span></div></foreignObject></g><g class="divider"><path d="M-73.4609375 0 C-42.86975051193916 0, -12.278563523878319 0, 73.4609375 0 M-73.4609375 0 C-33.34900641293956 0, 6.762924674120882 0, 73.4609375 0" stroke="#9370DB" stroke-width="1.3" fill="none" stroke-dasharray="0 0"/></g><g class="divider"><path d="M-6.6640625 0 C-6.6640625 10.35448891409447, -6.6640625 20.70897782818894, -6.6640625 42.75 M-6.6640625 0 C-6.6640625 16.32115164995624, -6.6640625 32.64230329991248, -6.6640625 42.75" stroke="#9370DB" stroke-width="1.3" fill="none" stroke-dasharray="0 0"/></g><g class="divider"><path d="M-73.4609375 0 C-40.81614236682026 0, -8.171347233640518 0, 73.4609375 0 M-73.4609375 0 C-18.134767572815235 0, 37.19140235436953 0, 73.4609375 0" stroke="#9370DB" stroke-width="1.3" fill="none" stroke-dasharray="0 0"/></g></g><g class="node default" id="entity-TidyFlagstats-1" transform="translate(416.71875, 478.25)"><g style=""><path d="M-121.796875 -470.25 L121.796875 -470.25 L121.796875 470.25 L-121.796875 470.25" stroke="none" stroke-width="0" fill="#ECECFF"/><path d="M-121.796875 -470.25 C-28.190903854203995 -470.25, 65.41506729159201 -470.25, 121.796875 -470.25 M-121.796875 -470.25 C-42.1195561545949 -470.25, 37.55776269081019 -470.25, 121.796875 -470.25 M121.796875 -470.25 C121.796875 -218.76769255636333, 121.796875 32.71461488727334, 121.796875 470.25 M121.796875 -470.25 C121.796875 -96.6063808814705, 121.796875 277.037238237059, 121.796875 470.25 M121.796875 470.25 C42.84141580295376 470.25, -36.11404339409248 470.25, -121.796875 470.25 M121.796875 470.25 C54.150506237524056 470.25, -13.495862524951889 470.25, -121.796875 470.25 M-121.796875 470.25 C-121.796875 269.96333886715956, -121.796875 69.67667773431907, -121.796875 -470.25 M-121.796875 470.25 C-121.796875 228.45852017284759, -121.796875 -13.33295965430483, -121.796875 -470.25" stroke="#9370DB" stroke-width="1.3" fill="none" stroke-dasharray="0 0"/></g><g style="" class="row-rect-odd"><path d="M-121.796875 -427.5 L121.796875 -427.5 L121.796875 -384.75 L-121.796875 -384.75" stroke="none" stroke-width="0" fill="hsl(240, 100%, 100%)"/><path d="M-121.796875 -427.5 C-33.016134468883195 -427.5, 55.76460606223361 -427.5, 121.796875 -427.5 M-121.796875 -427.5 C-59.60506105668635 -427.5, 2.586752886627295 -427.5, 121.796875 -427.5 M121.796875 -427.5 C121.796875 -414.7647684637961, 121.796875 -402.0295369275922, 121.796875 -384.75 M121.796875 -427.5 C121.796875 -415.7588449547084, 121.796875 -404.01768990941684, 121.796875 -384.75 M121.796875 -384.75 C52.765220546313586 -384.75, -16.26643390737283 -384.75, -121.796875 -384.75 M121.796875 -384.75 C60.574927002591544 -384.75, -0.6470209948169128 -384.75, -121.796875 -384.75 M-121.796875 -384.75 C-121.796875 -398.7086649104295, -121.796875 -412.667329820859, -121.796875 -427.5 M-121.796875 -384.75 C-121.796875 -398.74427712774917, -121.796875 -412.7385542554983, -121.796875 -427.5" stroke="#9370DB" stroke-width="1.3" fill="none" stroke-dasharray="0 0"/></g><g style="" class="row-rect-even"><path d="M-121.796875 -384.75 L121.796875 -384.75 L121.796875 -342 L-121.796875 -342" stroke="none" stroke-width="0" fill="hsl(240, 100%, 97.2745098039%)"/><path d="M-121.796875 -384.75 C-32.54029485247635 -384.75, 56.7162852950473 -384.75, 121.796875 -384.75 M-121.796875 -384.75 C-60.81525256671323 -384.75, 0.1663698665735467 -384.75, 121.796875 -384.75 M121.796875 -384.75 C121.796875 -368.2385550466684, 121.796875 -351.72711009333676, 121.796875 -342 M121.796875 -384.75 C121.796875 -375.19775027153884, 121.796875 -365.6455005430777, 121.796875 -342 M121.796875 -342 C45.588507512181124 -342, -30.619859975637752 -342, -121.796875 -342 M121.796875 -342 C47.419957056731704 -342, -26.956960886536592 -342, -121.796875 -342 M-121.796875 -342 C-121.796875 -355.9239064138259, -121.796875 -369.8478128276517, -121.796875 -384.75 M-121.796875 -342 C-121.796875 -352.35443135541107, -121.796875 -362.70886271082213, -121.796875 -384.75" stroke="#9370DB" stroke-width="1.3" fill="none" stroke-dasharray="0 0"/></g><g style="" class="row-rect-odd"><path d="M-121.796875 -342 L121.796875 -342 L121.796875 -299.25 L-121.796875 -299.25" stroke="none" stroke-width="0" fill="hsl(240, 100%, 100%)"/><path d="M-121.796875 -342 C-25.630564875825954 -342, 70.53574524834809 -342, 121.796875 -342 M-121.796875 -342 C-26.442258741249063 -342, 68.91235751750187 -342, 121.796875 -342 M121.796875 -342 C121.796875 -328.7625983991214, 121.796875 -315.52519679824275, 121.796875 -299.25 M121.796875 -342 C121.796875 -326.54761949495384, 121.796875 -311.09523898990767, 121.796875 -299.25 M121.796875 -299.25 C67.9509481688583 -299.25, 14.105021337716607 -299.25, -121.796875 -299.25 M121.796875 -299.25 C41.627244955405644 -299.25, -38.54238508918871 -299.25, -121.796875 -299.25 M-121.796875 -299.25 C-121.796875 -309.22219394345075, -121.796875 -319.1943878869015, -121.796875 -342 M-121.796875 -299.25 C-121.796875 -314.0605871028876, -121.796875 -328.8711742057753, -121.796875 -342" stroke="#9370DB" stroke-width="1.3" fill="none" stroke-dasharray="0 0"/></g><g style="" class="row-rect-even"><path d="M-121.796875 -299.25 L121.796875 -299.25 L121.796875 -256.5 L-121.796875 -256.5" stroke="none" stroke-width="0" fill="hsl(240, 100%, 97.2745098039%)"/><path d="M-121.796875 -299.25 C-54.371427886313285 -299.25, 13.05401922737343 -299.25, 121.796875 -299.25 M-121.796875 -299.25 C-42.24086082251539 -299.25, 37.315153354969226 -299.25, 121.796875 -299.25 M121.796875 -299.25 C121.796875 -282.32535551588467, 121.796875 -265.4007110317694, 121.796875 -256.5 M121.796875 -299.25 C121.796875 -286.2679895570808, 121.796875 -273.2859791141616, 121.796875 -256.5 M121.796875 -256.5 C37.08371122561154 -256.5, -47.629452548776925 -256.5, -121.796875 -256.5 M121.796875 -256.5 C33.056480058331175 -256.5, -55.68391488333765 -256.5, -121.796875 -256.5 M-121.796875 -256.5 C-121.796875 -265.4132688258742, -121.796875 -274.32653765174837, -121.796875 -299.25 M-121.796875 -256.5 C-121.796875 -267.5516411221256, -121.796875 -278.6032822442512, -121.796875 -299.25" stroke="#9370DB" stroke-width="1.3" fill="none" stroke-dasharray="0 0"/></g><g style="" class="row-rect-odd"><path d="M-121.796875 -256.5 L121.796875 -256.5 L121.796875 -213.75 L-121.796875 -213.75" stroke="none" stroke-width="0" fill="hsl(240, 100%, 100%)"/><path d="M-121.796875 -256.5 C-71.05462922628243 -256.5, -20.312383452564873 -256.5, 121.796875 -256.5 M-121.796875 -256.5 C-71.20853089782844 -256.5, -20.620186795656878 -256.5, 121.796875 -256.5 M121.796875 -256.5 C121.796875 -244.42716657970402, 121.796875 -232.35433315940804, 121.796875 -213.75 M121.796875 -256.5 C121.796875 -244.25996849350054, 121.796875 -232.01993698700107, 121.796875 -213.75 M121.796875 -213.75 C28.429346208084624 -213.75, -64.93818258383075 -213.75, -121.796875 -213.75 M121.796875 -213.75 C59.00772016734456 -213.75, -3.781434665310883 -213.75, -121.796875 -213.75 M-121.796875 -213.75 C-121.796875 -229.90392874165371, -121.796875 -246.0578574833074, -121.796875 -256.5 M-121.796875 -213.75 C-121.796875 -223.3346789713461, -121.796875 -232.91935794269222, -121.796875 -256.5" stroke="#9370DB" stroke-width="1.3" fill="none" stroke-dasharray="0 0"/></g><g style="" class="row-rect-even"><path d="M-121.796875 -213.75 L121.796875 -213.75 L121.796875 -171 L-121.796875 -171" stroke="none" stroke-width="0" fill="hsl(240, 100%, 97.2745098039%)"/><path d="M-121.796875 -213.75 C-61.858478728012294 -213.75, -1.9200824560245877 -213.75, 121.796875 -213.75 M-121.796875 -213.75 C-53.77158980889138 -213.75, 14.253695382217245 -213.75, 121.796875 -213.75 M121.796875 -213.75 C121.796875 -200.97354178666956, 121.796875 -188.1970835733391, 121.796875 -171 M121.796875 -213.75 C121.796875 -200.93766410639958, 121.796875 -188.12532821279913, 121.796875 -171 M121.796875 -171 C63.640676001076635 -171, 5.48447700215327 -171, -121.796875 -171 M121.796875 -171 C61.588418011931395 -171, 1.3799610238627906 -171, -121.796875 -171 M-121.796875 -171 C-121.796875 -183.1535523084356, -121.796875 -195.30710461687121, -121.796875 -213.75 M-121.796875 -171 C-121.796875 -183.27313923620977, -121.796875 -195.54627847241957, -121.796875 -213.75" stroke="#9370DB" stroke-width="1.3" fill="none" stroke-dasharray="0 0"/></g><g style="" class="row-rect-odd"><path d="M-121.796875 -171 L121.796875 -171 L121.796875 -128.25 L-121.796875 -128.25" stroke="none" stroke-width="0" fill="hsl(240, 100%, 100%)"/><path d="M-121.796875 -171 C-39.96631122255907 -171, 41.86425255488186 -171, 121.796875 -171 M-121.796875 -171 C-61.274929746617715 -171, -0.7529844932354308 -171, 121.796875 -171 M121.796875 -171 C121.796875 -161.38826944399634, 121.796875 -151.7765388879927, 121.796875 -128.25 M121.796875 -171 C121.796875 -154.45350747025344, 121.796875 -137.90701494050688, 121.796875 -128.25 M121.796875 -128.25 C58.52708230836879 -128.25, -4.74271038326242 -128.25, -121.796875 -128.25 M121.796875 -128.25 C43.04109179117893 -128.25, -35.71469141764214 -128.25, -121.796875 -128.25 M-121.796875 -128.25 C-121.796875 -143.42029586579045, -121.796875 -158.5905917315809, -121.796875 -171 M-121.796875 -128.25 C-121.796875 -142.72440107799082, -121.796875 -157.19880215598164, -121.796875 -171" stroke="#9370DB" stroke-width="1.3" fill="none" stroke-dasharray="0 0"/></g><g style="" class="row-rect-even"><path d="M-121.796875 -128.25 L121.796875 -128.25 L121.796875 -85.5 L-121.796875 -85.5" stroke="none" stroke-width="0" fill="hsl(240, 100%, 97.2745098039%)"/><path d="M-121.796875 -128.25 C-52.51444291434417 -128.25, 16.767989171311655 -128.25, 121.796875 -128.25 M-121.796875 -128.25 C-32.35354613547388 -128.25, 57.089782729052246 -128.25, 121.796875 -128.25 M121.796875 -128.25 C121.796875 -119.09760580309268, 121.796875 -109.94521160618534, 121.796875 -85.5 M121.796875 -128.25 C121.796875 -115.6701520512507, 121.796875 -103.09030410250139, 121.796875 -85.5 M121.796875 -85.5 C40.80929940843987 -85.5, -40.17827618312026 -85.5, -121.796875 -85.5 M121.796875 -85.5 C48.93069476148078 -85.5, -23.93548547703844 -85.5, -121.796875 -85.5 M-121.796875 -85.5 C-121.796875 -97.83547745658372, -121.796875 -110.17095491316744, -121.796875 -128.25 M-121.796875 -85.5 C-121.796875 -94.884078013578, -121.796875 -104.268156027156, -121.796875 -128.25" stroke="#9370DB" stroke-width="1.3" fill="none" stroke-dasharray="0 0"/></g><g style="" class="row-rect-odd"><path d="M-121.796875 -85.5 L121.796875 -85.5 L121.796875 -42.75 L-121.796875 -42.75" stroke="none" stroke-width="0" fill="hsl(240, 100%, 100%)"/><path d="M-121.796875 -85.5 C-62.04437953975367 -85.5, -2.2918840795073407 -85.5, 121.796875 -85.5 M-121.796875 -85.5 C-54.2377916343451 -85.5, 13.321291731309799 -85.5, 121.796875 -85.5 M121.796875 -85.5 C121.796875 -72.83288274575207, 121.796875 -60.165765491504146, 121.796875 -42.75 M121.796875 -85.5 C121.796875 -75.48087703111067, 121.796875 -65.46175406222133, 121.796875 -42.75 M121.796875 -42.75 C70.53376873580666 -42.75, 19.270662471613335 -42.75, -121.796875 -42.75 M121.796875 -42.75 C58.87660377650566 -42.75, -4.043667446988678 -42.75, -121.796875 -42.75 M-121.796875 -42.75 C-121.796875 -55.34228306287323, -121.796875 -67.93456612574646, -121.796875 -85.5 M-121.796875 -42.75 C-121.796875 -56.50146640503441, -121.796875 -70.25293281006881, -121.796875 -85.5" stroke="#9370DB" stroke-width="1.3" fill="none" stroke-dasharray="0 0"/></g><g style="" class="row-rect-even"><path d="M-121.796875 -42.75 L121.796875 -42.75 L121.796875 0 L-121.796875 0" stroke="none" stroke-width="0" fill="hsl(240, 100%, 97.2745098039%)"/><path d="M-121.796875 -42.75 C-63.31598397809178 -42.75, -4.8350929561835585 -42.75, 121.796875 -42.75 M-121.796875 -42.75 C-55.38627269965593 -42.75, 11.024329600688134 -42.75, 121.796875 -42.75 M121.796875 -42.75 C121.796875 -26.689367517098677, 121.796875 -10.628735034197355, 121.796875 0 M121.796875 -42.75 C121.796875 -26.3273842240389, 121.796875 -9.904768448077803, 121.796875 0 M121.796875 0 C60.22263468270861 0, -1.351605634582782 0, -121.796875 0 M121.796875 0 C56.78517331469409 0, -8.226528370611817 0, -121.796875 0 M-121.796875 0 C-121.796875 -9.930490719148864, -121.796875 -19.860981438297728, -121.796875 -42.75 M-121.796875 0 C-121.796875 -13.373125827605337, -121.796875 -26.746251655210674, -121.796875 -42.75" stroke="#9370DB" stroke-width="1.3" fill="none" stroke-dasharray="0 0"/></g><g style="" class="row-rect-odd"><path d="M-121.796875 0 L121.796875 0 L121.796875 42.75 L-121.796875 42.75" stroke="none" stroke-width="0" fill="hsl(240, 100%, 100%)"/><path d="M-121.796875 0 C-46.87186585968115 0, 28.0531432806377 0, 121.796875 0 M-121.796875 0 C-65.6419372500302 0, -9.486999500060378 0, 121.796875 0 M121.796875 0 C121.796875 16.65692008363893, 121.796875 33.31384016727786, 121.796875 42.75 M121.796875 0 C121.796875 16.050015736451705, 121.796875 32.10003147290341, 121.796875 42.75 M121.796875 42.75 C45.969724859872855 42.75, -29.85742528025429 42.75, -121.796875 42.75 M121.796875 42.75 C70.1248591964241 42.75, 18.45284339284821 42.75, -121.796875 42.75 M-121.796875 42.75 C-121.796875 29.715321024684016, -121.796875 16.680642049368032, -121.796875 0 M-121.796875 42.75 C-121.796875 29.2901723846347, -121.796875 15.830344769269402, -121.796875 0" stroke="#9370DB" stroke-width="1.3" fill="none" stroke-dasharray="0 0"/></g><g style="" class="row-rect-even"><path d="M-121.796875 42.75 L121.796875 42.75 L121.796875 85.5 L-121.796875 85.5" stroke="none" stroke-width="0" fill="hsl(240, 100%, 97.2745098039%)"/><path d="M-121.796875 42.75 C-39.86031123987897 42.75, 42.076252520242065 42.75, 121.796875 42.75 M-121.796875 42.75 C-34.94635226431966 42.75, 51.904170471360686 42.75, 121.796875 42.75 M121.796875 42.75 C121.796875 52.57335583011265, 121.796875 62.39671166022529, 121.796875 85.5 M121.796875 42.75 C121.796875 54.96722697541665, 121.796875 67.1844539508333, 121.796875 85.5 M121.796875 85.5 C37.87872104601797 85.5, -46.039432907964056 85.5, -121.796875 85.5 M121.796875 85.5 C51.067718951870575 85.5, -19.66143709625885 85.5, -121.796875 85.5 M-121.796875 85.5 C-121.796875 70.60678732628939, -121.796875 55.713574652578785, -121.796875 42.75 M-121.796875 85.5 C-121.796875 71.22457247604538, -121.796875 56.94914495209076, -121.796875 42.75" stroke="#9370DB" stroke-width="1.3" fill="none" stroke-dasharray="0 0"/></g><g style="" class="row-rect-odd"><path d="M-121.796875 85.5 L121.796875 85.5 L121.796875 128.25 L-121.796875 128.25" stroke="none" stroke-width="0" fill="hsl(240, 100%, 100%)"/><path d="M-121.796875 85.5 C-25.354387013440714 85.5, 71.08810097311857 85.5, 121.796875 85.5 M-121.796875 85.5 C-65.8124538519219 85.5, -9.828032703843817 85.5, 121.796875 85.5 M121.796875 85.5 C121.796875 98.67746966766524, 121.796875 111.85493933533047, 121.796875 128.25 M121.796875 85.5 C121.796875 97.31620403867102, 121.796875 109.13240807734203, 121.796875 128.25 M121.796875 128.25 C33.9120111376359 128.25, -53.9728527247282 128.25, -121.796875 128.25 M121.796875 128.25 C44.44070666398284 128.25, -32.915461672034326 128.25, -121.796875 128.25 M-121.796875 128.25 C-121.796875 119.5194743124542, -121.796875 110.78894862490839, -121.796875 85.5 M-121.796875 128.25 C-121.796875 114.64047309471596, -121.796875 101.03094618943193, -121.796875 85.5" stroke="#9370DB" stroke-width="1.3" fill="none" stroke-dasharray="0 0"/></g><g style="" class="row-rect-even"><path d="M-121.796875 128.25 L121.796875 128.25 L121.796875 171 L-121.796875 171" stroke="none" stroke-width="0" fill="hsl(240, 100%, 97.2745098039%)"/><path d="M-121.796875 128.25 C-70.42637547869799 128.25, -19.05587595739597 128.25, 121.796875 128.25 M-121.796875 128.25 C-27.25679824930701 128.25, 67.28327850138598 128.25, 121.796875 128.25 M121.796875 128.25 C121.796875 143.6434276922937, 121.796875 159.0368553845874, 121.796875 171 M121.796875 128.25 C121.796875 145.20512159707573, 121.796875 162.1602431941515, 121.796875 171 M121.796875 171 C51.67587142592765 171, -18.445132148144694 171, -121.796875 171 M121.796875 171 C36.187600129109285 171, -49.42167474178143 171, -121.796875 171 M-121.796875 171 C-121.796875 154.78247698754552, -121.796875 138.56495397509102, -121.796875 128.25 M-121.796875 171 C-121.796875 154.02852472486674, -121.796875 137.05704944973348, -121.796875 128.25" stroke="#9370DB" stroke-width="1.3" fill="none" stroke-dasharray="0 0"/></g><g style="" class="row-rect-odd"><path d="M-121.796875 171 L121.796875 171 L121.796875 213.75 L-121.796875 213.75" stroke="none" stroke-width="0" fill="hsl(240, 100%, 100%)"/><path d="M-121.796875 171 C-60.02263065450438 171, 1.7516136909912348 171, 121.796875 171 M-121.796875 171 C-62.74861302723723 171, -3.700351054474467 171, 121.796875 171 M121.796875 171 C121.796875 181.44797842176862, 121.796875 191.89595684353722, 121.796875 213.75 M121.796875 171 C121.796875 181.00974125300058, 121.796875 191.01948250600117, 121.796875 213.75 M121.796875 213.75 C56.392620763309935 213.75, -9.01163347338013 213.75, -121.796875 213.75 M121.796875 213.75 C29.237445992424256 213.75, -63.32198301515149 213.75, -121.796875 213.75 M-121.796875 213.75 C-121.796875 200.84157494165697, -121.796875 187.93314988331392, -121.796875 171 M-121.796875 213.75 C-121.796875 200.95158471848788, -121.796875 188.15316943697573, -121.796875 171" stroke="#9370DB" stroke-width="1.3" fill="none" stroke-dasharray="0 0"/></g><g style="" class="row-rect-even"><path d="M-121.796875 213.75 L121.796875 213.75 L121.796875 256.5 L-121.796875 256.5" stroke="none" stroke-width="0" fill="hsl(240, 100%, 97.2745098039%)"/><path d="M-121.796875 213.75 C-26.123046202825307 213.75, 69.55078259434939 213.75, 121.796875 213.75 M-121.796875 213.75 C-59.206944714940924 213.75, 3.3829855701181515 213.75, 121.796875 213.75 M121.796875 213.75 C121.796875 226.74186085113226, 121.796875 239.73372170226452, 121.796875 256.5 M121.796875 213.75 C121.796875 229.27309558634258, 121.796875 244.79619117268516, 121.796875 256.5 M121.796875 256.5 C44.24183778192517 256.5, -33.31319943614966 256.5, -121.796875 256.5 M121.796875 256.5 C26.918500627523642 256.5, -67.95987374495272 256.5, -121.796875 256.5 M-121.796875 256.5 C-121.796875 245.64361279130802, -121.796875 234.78722558261603, -121.796875 213.75 M-121.796875 256.5 C-121.796875 247.25842628545604, -121.796875 238.01685257091208, -121.796875 213.75" stroke="#9370DB" stroke-width="1.3" fill="none" stroke-dasharray="0 0"/></g><g style="" class="row-rect-odd"><path d="M-121.796875 256.5 L121.796875 256.5 L121.796875 299.25 L-121.796875 299.25" stroke="none" stroke-width="0" fill="hsl(240, 100%, 100%)"/><path d="M-121.796875 256.5 C-52.003817209371164 256.5, 17.789240581257673 256.5, 121.796875 256.5 M-121.796875 256.5 C-51.36259596338334 256.5, 19.071683073233316 256.5, 121.796875 256.5 M121.796875 256.5 C121.796875 266.60755585471725, 121.796875 276.7151117094345, 121.796875 299.25 M121.796875 256.5 C121.796875 268.08419999668837, 121.796875 279.66839999337674, 121.796875 299.25 M121.796875 299.25 C56.92612089853658 299.25, -7.944633202926838 299.25, -121.796875 299.25 M121.796875 299.25 C46.96985250857182 299.25, -27.857169982856362 299.25, -121.796875 299.25 M-121.796875 299.25 C-121.796875 283.3065829763021, -121.796875 267.36316595260416, -121.796875 256.5 M-121.796875 299.25 C-121.796875 285.8982614986536, -121.796875 272.54652299730714, -121.796875 256.5" stroke="#9370DB" stroke-width="1.3" fill="none" stroke-dasharray="0 0"/></g><g style="" class="row-rect-even"><path d="M-121.796875 299.25 L121.796875 299.25 L121.796875 342 L-121.796875 342" stroke="none" stroke-width="0" fill="hsl(240, 100%, 97.2745098039%)"/><path d="M-121.796875 299.25 C-42.474036300866885 299.25, 36.84880239826623 299.25, 121.796875 299.25 M-121.796875 299.25 C-71.47325056787876 299.25, -21.14962613575753 299.25, 121.796875 299.25 M121.796875 299.25 C121.796875 315.803582031231, 121.796875 332.3571640624619, 121.796875 342 M121.796875 299.25 C121.796875 315.65284169237344, 121.796875 332.0556833847469, 121.796875 342 M121.796875 342 C67.01840162756889 342, 12.239928255137798 342, -121.796875 342 M121.796875 342 C29.728445809583462 342, -62.339983380833075 342, -121.796875 342 M-121.796875 342 C-121.796875 331.17681558587554, -121.796875 320.3536311717511, -121.796875 299.25 M-121.796875 342 C-121.796875 328.26774296608556, -121.796875 314.5354859321711, -121.796875 299.25" stroke="#9370DB" stroke-width="1.3" fill="none" stroke-dasharray="0 0"/></g><g style="" class="row-rect-odd"><path d="M-121.796875 342 L121.796875 342 L121.796875 384.75 L-121.796875 384.75" stroke="none" stroke-width="0" fill="hsl(240, 100%, 100%)"/><path d="M-121.796875 342 C-48.26782896777519 342, 25.261217064449625 342, 121.796875 342 M-121.796875 342 C-47.13106594772022 342, 27.534743104559567 342, 121.796875 342 M121.796875 342 C121.796875 354.4176891028949, 121.796875 366.8353782057898, 121.796875 384.75 M121.796875 342 C121.796875 357.3655810003732, 121.796875 372.7311620007464, 121.796875 384.75 M121.796875 384.75 C48.02821790872012 384.75, -25.740439182559754 384.75, -121.796875 384.75 M121.796875 384.75 C61.04015171457831 384.75, 0.2834284291566149 384.75, -121.796875 384.75 M-121.796875 384.75 C-121.796875 372.57513691749364, -121.796875 360.4002738349873, -121.796875 342 M-121.796875 384.75 C-121.796875 367.7190053276969, -121.796875 350.6880106553938, -121.796875 342" stroke="#9370DB" stroke-width="1.3" fill="none" stroke-dasharray="0 0"/></g><g style="" class="row-rect-even"><path d="M-121.796875 384.75 L121.796875 384.75 L121.796875 427.5 L-121.796875 427.5" stroke="none" stroke-width="0" fill="hsl(240, 100%, 97.2745098039%)"/><path d="M-121.796875 384.75 C-55.93870236627767 384.75, 9.919470267444666 384.75, 121.796875 384.75 M-121.796875 384.75 C-47.78813990136976 384.75, 26.22059519726048 384.75, 121.796875 384.75 M121.796875 384.75 C121.796875 394.3804762838337, 121.796875 404.0109525676674, 121.796875 427.5 M121.796875 384.75 C121.796875 394.29748006000204, 121.796875 403.84496012000403, 121.796875 427.5 M121.796875 427.5 C62.6569875808446 427.5, 3.5171001616892 427.5, -121.796875 427.5 M121.796875 427.5 C53.1931825192825 427.5, -15.410509961434997 427.5, -121.796875 427.5 M-121.796875 427.5 C-121.796875 416.9395926740764, -121.796875 406.37918534815276, -121.796875 384.75 M-121.796875 427.5 C-121.796875 410.59633198155393, -121.796875 393.69266396310786, -121.796875 384.75" stroke="#9370DB" stroke-width="1.3" fill="none" stroke-dasharray="0 0"/></g><g style="" class="row-rect-odd"><path d="M-121.796875 427.5 L121.796875 427.5 L121.796875 470.25 L-121.796875 470.25" stroke="none" stroke-width="0" fill="hsl(240, 100%, 100%)"/><path d="M-121.796875 427.5 C-24.47594381195458 427.5, 72.84498737609084 427.5, 121.796875 427.5 M-121.796875 427.5 C-65.21370142252567 427.5, -8.630527845051361 427.5, 121.796875 427.5 M121.796875 427.5 C121.796875 441.18325523434584, 121.796875 454.8665104686917, 121.796875 470.25 M121.796875 427.5 C121.796875 437.8652121946702, 121.796875 448.23042438934044, 121.796875 470.25 M121.796875 470.25 C32.464131051651805 470.25, -56.86861289669639 470.25, -121.796875 470.25 M121.796875 470.25 C48.049845632791786 470.25, -25.697183734416427 470.25, -121.796875 470.25 M-121.796875 470.25 C-121.796875 458.213125882163, -121.796875 446.176251764326, -121.796875 427.5 M-121.796875 470.25 C-121.796875 456.21214290954424, -121.796875 442.1742858190884, -121.796875 427.5" stroke="#9370DB" stroke-width="1.3" fill="none" stroke-dasharray="0 0"/></g><g class="label name" transform="translate(-47.2734375, -460.875)" style=""><foreignObject width="94.546875" height="24"><div xmlns="http://www.w3.org/1999/xhtml" style="display: table-cell; white-space: nowrap; line-height: 1.5; max-width: 187px; text-align: start;"><span class="nodeLabel"><p>TidyFlagstats</p></span></div></foreignObject></g><g class="label attribute-type" transform="translate(-109.296875, -418.125)" style=""><foreignObject width="39.125" height="24"><div xmlns="http://www.w3.org/1999/xhtml" style="display: table-cell; white-space: nowrap; line-height: 1.5; max-width: 136px; text-align: start;"><span class="nodeLabel"><p>string</p></span></div></foreignObject></g><g class="label attribute-name" transform="translate(-45.171875, -418.125)" style=""><foreignObject width="121.875" height="24"><div xmlns="http://www.w3.org/1999/xhtml" style="display: table-cell; white-space: nowrap; line-height: 1.5; max-width: 208px; text-align: start;"><span class="nodeLabel"><p>passed_or_failed</p></span></div></foreignObject></g><g class="label attribute-keys" transform="translate(134.296875, -418.125)" style=""><foreignObject width="0" height="0"><div xmlns="http://www.w3.org/1999/xhtml" style="display: table-cell; white-space: nowrap; line-height: 1.5; max-width: 100px; text-align: start;"><span class="nodeLabel"></span></div></foreignObject></g><g class="label attribute-comment" transform="translate(134.296875, -418.125)" style=""><foreignObject width="0" height="0"><div xmlns="http://www.w3.org/1999/xhtml" style="display: table-cell; white-space: nowrap; line-height: 1.5; max-width: 100px; text-align: start;"><span class="nodeLabel"></span></div></foreignObject></g><g class="label attribute-type" transform="translate(-109.296875, -375.375)" style=""><foreignObject width="30.25" height="24"><div xmlns="http://www.w3.org/1999/xhtml" style="display: table-cell; white-space: nowrap; line-height: 1.5; max-width: 130px; text-align: start;"><span class="nodeLabel"><p>float</p></span></div></foreignObject></g><g class="label attribute-name" transform="translate(-45.171875, -375.375)" style=""><foreignObject width="30.25" height="24"><div xmlns="http://www.w3.org/1999/xhtml" style="display: table-cell; white-space: nowrap; line-height: 1.5; max-width: 129px; text-align: start;"><span class="nodeLabel"><p>total</p></span></div></foreignObject></g><g class="label attribute-keys" transform="translate(134.296875, -375.375)" style=""><foreignObject width="0" height="0"><div xmlns="http://www.w3.org/1999/xhtml" style="display: table-cell; white-space: nowrap; line-height: 1.5; max-width: 100px; text-align: start;"><span class="nodeLabel"></span></div></foreignObject></g><g class="label attribute-comment" transform="translate(134.296875, -375.375)" style=""><foreignObject width="0" height="0"><div xmlns="http://www.w3.org/1999/xhtml" style="display: table-cell; white-space: nowrap; line-height: 1.5; max-width: 100px; text-align: start;"><span class="nodeLabel"></span></div></foreignObject></g><g class="label attribute-type" transform="translate(-109.296875, -332.625)" style=""><foreignObject width="30.25" height="24"><div xmlns="http://www.w3.org/1999/xhtml" style="display: table-cell; white-space: nowrap; line-height: 1.5; max-width: 130px; text-align: start;"><span class="nodeLabel"><p>float</p></span></div></foreignObject></g><g class="label attribute-name" transform="translate(-45.171875, -332.625)" style=""><foreignObject width="53.34375" height="24"><div xmlns="http://www.w3.org/1999/xhtml" style="display: table-cell; white-space: nowrap; line-height: 1.5; max-width: 151px; text-align: start;"><span class="nodeLabel"><p>primary</p></span></div></foreignObject></g><g class="label attribute-keys" transform="translate(134.296875, -332.625)" style=""><foreignObject width="0" height="0"><div xmlns="http://www.w3.org/1999/xhtml" style="display: table-cell; white-space: nowrap; line-height: 1.5; max-width: 100px; text-align: start;"><span class="nodeLabel"></span></div></foreignObject></g><g class="label attribute-comment" transform="translate(134.296875, -332.625)" style=""><foreignObject width="0" height="0"><div xmlns="http://www.w3.org/1999/xhtml" style="display: table-cell; white-space: nowrap; line-height: 1.5; max-width: 100px; text-align: start;"><span class="nodeLabel"></span></div></foreignObject></g><g class="label attribute-type" transform="translate(-109.296875, -289.875)" style=""><foreignObject width="30.25" height="24"><div xmlns="http://www.w3.org/1999/xhtml" style="display: table-cell; white-space: nowrap; line-height: 1.5; max-width: 130px; text-align: start;"><span class="nodeLabel"><p>float</p></span></div></foreignObject></g><g class="label attribute-name" transform="translate(-45.171875, -289.875)" style=""><foreignObject width="73.828125" height="24"><div xmlns="http://www.w3.org/1999/xhtml" style="display: table-cell; white-space: nowrap; line-height: 1.5; max-width: 165px; text-align: start;"><span class="nodeLabel"><p>secondary</p></span></div></foreignObject></g><g class="label attribute-keys" transform="translate(134.296875, -289.875)" style=""><foreignObject width="0" height="0"><div xmlns="http://www.w3.org/1999/xhtml" style="display: table-cell; white-space: nowrap; line-height: 1.5; max-width: 100px; text-align: start;"><span class="nodeLabel"></span></div></foreignObject></g><g class="label attribute-comment" transform="translate(134.296875, -289.875)" style=""><foreignObject width="0" height="0"><div xmlns="http://www.w3.org/1999/xhtml" style="display: table-cell; white-space: nowrap; line-height: 1.5; max-width: 100px; text-align: start;"><span class="nodeLabel"></span></div></foreignObject></g><g class="label attribute-type" transform="translate(-109.296875, -247.125)" style=""><foreignObject width="30.25" height="24"><div xmlns="http://www.w3.org/1999/xhtml" style="display: table-cell; white-space: nowrap; line-height: 1.5; max-width: 130px; text-align: start;"><span class="nodeLabel"><p>float</p></span></div></foreignObject></g><g class="label attribute-name" transform="translate(-45.171875, -247.125)" style=""><foreignObject width="38.25" height="24"><div xmlns="http://www.w3.org/1999/xhtml" style="display: table-cell; white-space: nowrap; line-height: 1.5; max-width: 135px; text-align: start;"><span class="nodeLabel"><p>suppl</p></span></div></foreignObject></g><g class="label attribute-keys" transform="translate(134.296875, -247.125)" style=""><foreignObject width="0" height="0"><div xmlns="http://www.w3.org/1999/xhtml" style="display: table-cell; white-space: nowrap; line-height: 1.5; max-width: 100px; text-align: start;"><span class="nodeLabel"></span></div></foreignObject></g><g class="label attribute-comment" transform="translate(134.296875, -247.125)" style=""><foreignObject width="0" height="0"><div xmlns="http://www.w3.org/1999/xhtml" style="display: table-cell; white-space: nowrap; line-height: 1.5; max-width: 100px; text-align: start;"><span class="nodeLabel"></span></div></foreignObject></g><g class="label attribute-type" transform="translate(-109.296875, -204.375)" style=""><foreignObject width="30.25" height="24"><div xmlns="http://www.w3.org/1999/xhtml" style="display: table-cell; white-space: nowrap; line-height: 1.5; max-width: 130px; text-align: start;"><span class="nodeLabel"><p>float</p></span></div></foreignObject></g><g class="label attribute-name" transform="translate(-45.171875, -204.375)" style=""><foreignObject width="26.703125" height="24"><div xmlns="http://www.w3.org/1999/xhtml" style="display: table-cell; white-space: nowrap; line-height: 1.5; max-width: 124px; text-align: start;"><span class="nodeLabel"><p>dup</p></span></div></foreignObject></g><g class="label attribute-keys" transform="translate(134.296875, -204.375)" style=""><foreignObject width="0" height="0"><div xmlns="http://www.w3.org/1999/xhtml" style="display: table-cell; white-space: nowrap; line-height: 1.5; max-width: 100px; text-align: start;"><span class="nodeLabel"></span></div></foreignObject></g><g class="label attribute-comment" transform="translate(134.296875, -204.375)" style=""><foreignObject width="0" height="0"><div xmlns="http://www.w3.org/1999/xhtml" style="display: table-cell; white-space: nowrap; line-height: 1.5; max-width: 100px; text-align: start;"><span class="nodeLabel"></span></div></foreignObject></g><g class="label attribute-type" transform="translate(-109.296875, -161.625)" style=""><foreignObject width="30.25" height="24"><div xmlns="http://www.w3.org/1999/xhtml" style="display: table-cell; white-space: nowrap; line-height: 1.5; max-width: 130px; text-align: start;"><span class="nodeLabel"><p>float</p></span></div></foreignObject></g><g class="label attribute-name" transform="translate(-45.171875, -161.625)" style=""><foreignObject width="88.9375" height="24"><div xmlns="http://www.w3.org/1999/xhtml" style="display: table-cell; white-space: nowrap; line-height: 1.5; max-width: 183px; text-align: start;"><span class="nodeLabel"><p>primary_dup</p></span></div></foreignObject></g><g class="label attribute-keys" transform="translate(134.296875, -161.625)" style=""><foreignObject width="0" height="0"><div xmlns="http://www.w3.org/1999/xhtml" style="display: table-cell; white-space: nowrap; line-height: 1.5; max-width: 100px; text-align: start;"><span class="nodeLabel"></span></div></foreignObject></g><g class="label attribute-comment" transform="translate(134.296875, -161.625)" style=""><foreignObject width="0" height="0"><div xmlns="http://www.w3.org/1999/xhtml" style="display: table-cell; white-space: nowrap; line-height: 1.5; max-width: 100px; text-align: start;"><span class="nodeLabel"></span></div></foreignObject></g><g class="label attribute-type" transform="translate(-109.296875, -118.875)" style=""><foreignObject width="30.25" height="24"><div xmlns="http://www.w3.org/1999/xhtml" style="display: table-cell; white-space: nowrap; line-height: 1.5; max-width: 130px; text-align: start;"><span class="nodeLabel"><p>float</p></span></div></foreignObject></g><g class="label attribute-name" transform="translate(-45.171875, -118.875)" style=""><foreignObject width="57.828125" height="24"><div xmlns="http://www.w3.org/1999/xhtml" style="display: table-cell; white-space: nowrap; line-height: 1.5; max-width: 151px; text-align: start;"><span class="nodeLabel"><p>mapped</p></span></div></foreignObject></g><g class="label attribute-keys" transform="translate(134.296875, -118.875)" style=""><foreignObject width="0" height="0"><div xmlns="http://www.w3.org/1999/xhtml" style="display: table-cell; white-space: nowrap; line-height: 1.5; max-width: 100px; text-align: start;"><span class="nodeLabel"></span></div></foreignObject></g><g class="label attribute-comment" transform="translate(134.296875, -118.875)" style=""><foreignObject width="0" height="0"><div xmlns="http://www.w3.org/1999/xhtml" style="display: table-cell; white-space: nowrap; line-height: 1.5; max-width: 100px; text-align: start;"><span class="nodeLabel"></span></div></foreignObject></g><g class="label attribute-type" transform="translate(-109.296875, -76.125)" style=""><foreignObject width="30.25" height="24"><div xmlns="http://www.w3.org/1999/xhtml" style="display: table-cell; white-space: nowrap; line-height: 1.5; max-width: 130px; text-align: start;"><span class="nodeLabel"><p>float</p></span></div></foreignObject></g><g class="label attribute-name" transform="translate(-45.171875, -76.125)" style=""><foreignObject width="93.359375" height="24"><div xmlns="http://www.w3.org/1999/xhtml" style="display: table-cell; white-space: nowrap; line-height: 1.5; max-width: 186px; text-align: start;"><span class="nodeLabel"><p>primary_map</p></span></div></foreignObject></g><g class="label attribute-keys" transform="translate(134.296875, -76.125)" style=""><foreignObject width="0" height="0"><div xmlns="http://www.w3.org/1999/xhtml" style="display: table-cell; white-space: nowrap; line-height: 1.5; max-width: 100px; text-align: start;"><span class="nodeLabel"></span></div></foreignObject></g><g class="label attribute-comment" transform="translate(134.296875, -76.125)" style=""><foreignObject width="0" height="0"><div xmlns="http://www.w3.org/1999/xhtml" style="display: table-cell; white-space: nowrap; line-height: 1.5; max-width: 100px; text-align: start;"><span class="nodeLabel"></span></div></foreignObject></g><g class="label attribute-type" transform="translate(-109.296875, -33.375)" style=""><foreignObject width="30.25" height="24"><div xmlns="http://www.w3.org/1999/xhtml" style="display: table-cell; white-space: nowrap; line-height: 1.5; max-width: 130px; text-align: start;"><span class="nodeLabel"><p>float</p></span></div></foreignObject></g><g class="label attribute-name" transform="translate(-45.171875, -33.375)" style=""><foreignObject width="100.53125" height="24"><div xmlns="http://www.w3.org/1999/xhtml" style="display: table-cell; white-space: nowrap; line-height: 1.5; max-width: 190px; text-align: start;"><span class="nodeLabel"><p>paired_in_seq</p></span></div></foreignObject></g><g class="label attribute-keys" transform="translate(134.296875, -33.375)" style=""><foreignObject width="0" height="0"><div xmlns="http://www.w3.org/1999/xhtml" style="display: table-cell; white-space: nowrap; line-height: 1.5; max-width: 100px; text-align: start;"><span class="nodeLabel"></span></div></foreignObject></g><g class="label attribute-comment" transform="translate(134.296875, -33.375)" style=""><foreignObject width="0" height="0"><div xmlns="http://www.w3.org/1999/xhtml" style="display: table-cell; white-space: nowrap; line-height: 1.5; max-width: 100px; text-align: start;"><span class="nodeLabel"></span></div></foreignObject></g><g class="label attribute-type" transform="translate(-109.296875, 9.375)" style=""><foreignObject width="30.25" height="24"><div xmlns="http://www.w3.org/1999/xhtml" style="display: table-cell; white-space: nowrap; line-height: 1.5; max-width: 130px; text-align: start;"><span class="nodeLabel"><p>float</p></span></div></foreignObject></g><g class="label attribute-name" transform="translate(-45.171875, 9.375)" style=""><foreignObject width="40.921875" height="24"><div xmlns="http://www.w3.org/1999/xhtml" style="display: table-cell; white-space: nowrap; line-height: 1.5; max-width: 136px; text-align: start;"><span class="nodeLabel"><p>read1</p></span></div></foreignObject></g><g class="label attribute-keys" transform="translate(134.296875, 9.375)" style=""><foreignObject width="0" height="0"><div xmlns="http://www.w3.org/1999/xhtml" style="display: table-cell; white-space: nowrap; line-height: 1.5; max-width: 100px; text-align: start;"><span class="nodeLabel"></span></div></foreignObject></g><g class="label attribute-comment" transform="translate(134.296875, 9.375)" style=""><foreignObject width="0" height="0"><div xmlns="http://www.w3.org/1999/xhtml" style="display: table-cell; white-space: nowrap; line-height: 1.5; max-width: 100px; text-align: start;"><span class="nodeLabel"></span></div></foreignObject></g><g class="label attribute-type" transform="translate(-109.296875, 52.125)" style=""><foreignObject width="30.25" height="24"><div xmlns="http://www.w3.org/1999/xhtml" style="display: table-cell; white-space: nowrap; line-height: 1.5; max-width: 130px; text-align: start;"><span class="nodeLabel"><p>float</p></span></div></foreignObject></g><g class="label attribute-name" transform="translate(-45.171875, 52.125)" style=""><foreignObject width="40.921875" height="24"><div xmlns="http://www.w3.org/1999/xhtml" style="display: table-cell; white-space: nowrap; line-height: 1.5; max-width: 136px; text-align: start;"><span class="nodeLabel"><p>read2</p></span></div></foreignObject></g><g class="label attribute-keys" transform="translate(134.296875, 52.125)" style=""><foreignObject width="0" height="0"><div xmlns="http://www.w3.org/1999/xhtml" style="display: table-cell; white-space: nowrap; line-height: 1.5; max-width: 100px; text-align: start;"><span class="nodeLabel"></span></div></foreignObject></g><g class="label attribute-comment" transform="translate(134.296875, 52.125)" style=""><foreignObject width="0" height="0"><div xmlns="http://www.w3.org/1999/xhtml" style="display: table-cell; white-space: nowrap; line-height: 1.5; max-width: 100px; text-align: start;"><span class="nodeLabel"></span></div></foreignObject></g><g class="label attribute-type" transform="translate(-109.296875, 94.875)" style=""><foreignObject width="30.25" height="24"><div xmlns="http://www.w3.org/1999/xhtml" style="display: table-cell; white-space: nowrap; line-height: 1.5; max-width: 130px; text-align: start;"><span class="nodeLabel"><p>float</p></span></div></foreignObject></g><g class="label attribute-name" transform="translate(-45.171875, 94.875)" style=""><foreignObject width="81.828125" height="24"><div xmlns="http://www.w3.org/1999/xhtml" style="display: table-cell; white-space: nowrap; line-height: 1.5; max-width: 175px; text-align: start;"><span class="nodeLabel"><p>proper_pair</p></span></div></foreignObject></g><g class="label attribute-keys" transform="translate(134.296875, 94.875)" style=""><foreignObject width="0" height="0"><div xmlns="http://www.w3.org/1999/xhtml" style="display: table-cell; white-space: nowrap; line-height: 1.5; max-width: 100px; text-align: start;"><span class="nodeLabel"></span></div></foreignObject></g><g class="label attribute-comment" transform="translate(134.296875, 94.875)" style=""><foreignObject width="0" height="0"><div xmlns="http://www.w3.org/1999/xhtml" style="display: table-cell; white-space: nowrap; line-height: 1.5; max-width: 100px; text-align: start;"><span class="nodeLabel"></span></div></foreignObject></g><g class="label attribute-type" transform="translate(-109.296875, 137.625)" style=""><foreignObject width="30.25" height="24"><div xmlns="http://www.w3.org/1999/xhtml" style="display: table-cell; white-space: nowrap; line-height: 1.5; max-width: 130px; text-align: start;"><span class="nodeLabel"><p>float</p></span></div></foreignObject></g><g class="label attribute-name" transform="translate(-45.171875, 137.625)" style=""><foreignObject width="71.171875" height="24"><div xmlns="http://www.w3.org/1999/xhtml" style="display: table-cell; white-space: nowrap; line-height: 1.5; max-width: 164px; text-align: start;"><span class="nodeLabel"><p>both_map</p></span></div></foreignObject></g><g class="label attribute-keys" transform="translate(134.296875, 137.625)" style=""><foreignObject width="0" height="0"><div xmlns="http://www.w3.org/1999/xhtml" style="display: table-cell; white-space: nowrap; line-height: 1.5; max-width: 100px; text-align: start;"><span class="nodeLabel"></span></div></foreignObject></g><g class="label attribute-comment" transform="translate(134.296875, 137.625)" style=""><foreignObject width="0" height="0"><div xmlns="http://www.w3.org/1999/xhtml" style="display: table-cell; white-space: nowrap; line-height: 1.5; max-width: 100px; text-align: start;"><span class="nodeLabel"></span></div></foreignObject></g><g class="label attribute-type" transform="translate(-109.296875, 180.375)" style=""><foreignObject width="30.25" height="24"><div xmlns="http://www.w3.org/1999/xhtml" style="display: table-cell; white-space: nowrap; line-height: 1.5; max-width: 130px; text-align: start;"><span class="nodeLabel"><p>float</p></span></div></foreignObject></g><g class="label attribute-name" transform="translate(-45.171875, 180.375)" style=""><foreignObject width="72.046875" height="24"><div xmlns="http://www.w3.org/1999/xhtml" style="display: table-cell; white-space: nowrap; line-height: 1.5; max-width: 165px; text-align: start;"><span class="nodeLabel"><p>singletons</p></span></div></foreignObject></g><g class="label attribute-keys" transform="translate(134.296875, 180.375)" style=""><foreignObject width="0" height="0"><div xmlns="http://www.w3.org/1999/xhtml" style="display: table-cell; white-space: nowrap; line-height: 1.5; max-width: 100px; text-align: start;"><span class="nodeLabel"></span></div></foreignObject></g><g class="label attribute-comment" transform="translate(134.296875, 180.375)" style=""><foreignObject width="0" height="0"><div xmlns="http://www.w3.org/1999/xhtml" style="display: table-cell; white-space: nowrap; line-height: 1.5; max-width: 100px; text-align: start;"><span class="nodeLabel"></span></div></foreignObject></g><g class="label attribute-type" transform="translate(-109.296875, 223.125)" style=""><foreignObject width="30.25" height="24"><div xmlns="http://www.w3.org/1999/xhtml" style="display: table-cell; white-space: nowrap; line-height: 1.5; max-width: 130px; text-align: start;"><span class="nodeLabel"><p>float</p></span></div></foreignObject></g><g class="label attribute-name" transform="translate(-45.171875, 223.125)" style=""><foreignObject width="96.65625" height="24"><div xmlns="http://www.w3.org/1999/xhtml" style="display: table-cell; white-space: nowrap; line-height: 1.5; max-width: 190px; text-align: start;"><span class="nodeLabel"><p>matemap_diff</p></span></div></foreignObject></g><g class="label attribute-keys" transform="translate(134.296875, 223.125)" style=""><foreignObject width="0" height="0"><div xmlns="http://www.w3.org/1999/xhtml" style="display: table-cell; white-space: nowrap; line-height: 1.5; max-width: 100px; text-align: start;"><span class="nodeLabel"></span></div></foreignObject></g><g class="label attribute-comment" transform="translate(134.296875, 223.125)" style=""><foreignObject width="0" height="0"><div xmlns="http://www.w3.org/1999/xhtml" style="display: table-cell; white-space: nowrap; line-height: 1.5; max-width: 100px; text-align: start;"><span class="nodeLabel"></span></div></foreignObject></g><g class="label attribute-type" transform="translate(-109.296875, 265.875)" style=""><foreignObject width="30.25" height="24"><div xmlns="http://www.w3.org/1999/xhtml" style="display: table-cell; white-space: nowrap; line-height: 1.5; max-width: 130px; text-align: start;"><span class="nodeLabel"><p>float</p></span></div></foreignObject></g><g class="label attribute-name" transform="translate(-45.171875, 265.875)" style=""><foreignObject width="154.46875" height="24"><div xmlns="http://www.w3.org/1999/xhtml" style="display: table-cell; white-space: nowrap; line-height: 1.5; max-width: 241px; text-align: start;"><span class="nodeLabel"><p>matemap_diff_mapq5</p></span></div></foreignObject></g><g class="label attribute-keys" transform="translate(134.296875, 265.875)" style=""><foreignObject width="0" height="0"><div xmlns="http://www.w3.org/1999/xhtml" style="display: table-cell; white-space: nowrap; line-height: 1.5; max-width: 100px; text-align: start;"><span class="nodeLabel"></span></div></foreignObject></g><g class="label attribute-comment" transform="translate(134.296875, 265.875)" style=""><foreignObject width="0" height="0"><div xmlns="http://www.w3.org/1999/xhtml" style="display: table-cell; white-space: nowrap; line-height: 1.5; max-width: 100px; text-align: start;"><span class="nodeLabel"></span></div></foreignObject></g><g class="label attribute-type" transform="translate(-109.296875, 308.625)" style=""><foreignObject width="30.25" height="24"><div xmlns="http://www.w3.org/1999/xhtml" style="display: table-cell; white-space: nowrap; line-height: 1.5; max-width: 130px; text-align: start;"><span class="nodeLabel"><p>float</p></span></div></foreignObject></g><g class="label attribute-name" transform="translate(-45.171875, 308.625)" style=""><foreignObject width="88.0625" height="24"><div xmlns="http://www.w3.org/1999/xhtml" style="display: table-cell; white-space: nowrap; line-height: 1.5; max-width: 179px; text-align: start;"><span class="nodeLabel"><p>mapped_pct</p></span></div></foreignObject></g><g class="label attribute-keys" transform="translate(134.296875, 308.625)" style=""><foreignObject width="0" height="0"><div xmlns="http://www.w3.org/1999/xhtml" style="display: table-cell; white-space: nowrap; line-height: 1.5; max-width: 100px; text-align: start;"><span class="nodeLabel"></span></div></foreignObject></g><g class="label attribute-comment" transform="translate(134.296875, 308.625)" style=""><foreignObject width="0" height="0"><div xmlns="http://www.w3.org/1999/xhtml" style="display: table-cell; white-space: nowrap; line-height: 1.5; max-width: 100px; text-align: start;"><span class="nodeLabel"></span></div></foreignObject></g><g class="label attribute-type" transform="translate(-109.296875, 351.375)" style=""><foreignObject width="30.25" height="24"><div xmlns="http://www.w3.org/1999/xhtml" style="display: table-cell; white-space: nowrap; line-height: 1.5; max-width: 130px; text-align: start;"><span class="nodeLabel"><p>float</p></span></div></foreignObject></g><g class="label attribute-name" transform="translate(-45.171875, 351.375)" style=""><foreignObject width="123.609375" height="24"><div xmlns="http://www.w3.org/1999/xhtml" style="display: table-cell; white-space: nowrap; line-height: 1.5; max-width: 214px; text-align: start;"><span class="nodeLabel"><p>primary_map_pct</p></span></div></foreignObject></g><g class="label attribute-keys" transform="translate(134.296875, 351.375)" style=""><foreignObject width="0" height="0"><div xmlns="http://www.w3.org/1999/xhtml" style="display: table-cell; white-space: nowrap; line-height: 1.5; max-width: 100px; text-align: start;"><span class="nodeLabel"></span></div></foreignObject></g><g class="label attribute-comment" transform="translate(134.296875, 351.375)" style=""><foreignObject width="0" height="0"><div xmlns="http://www.w3.org/1999/xhtml" style="display: table-cell; white-space: nowrap; line-height: 1.5; max-width: 100px; text-align: start;"><span class="nodeLabel"></span></div></foreignObject></g><g class="label attribute-type" transform="translate(-109.296875, 394.125)" style=""><foreignObject width="30.25" height="24"><div xmlns="http://www.w3.org/1999/xhtml" style="display: table-cell; white-space: nowrap; line-height: 1.5; max-width: 130px; text-align: start;"><span class="nodeLabel"><p>float</p></span></div></foreignObject></g><g class="label attribute-name" transform="translate(-45.171875, 394.125)" style=""><foreignObject width="112.078125" height="24"><div xmlns="http://www.w3.org/1999/xhtml" style="display: table-cell; white-space: nowrap; line-height: 1.5; max-width: 203px; text-align: start;"><span class="nodeLabel"><p>proper_pair_pct</p></span></div></foreignObject></g><g class="label attribute-keys" transform="translate(134.296875, 394.125)" style=""><foreignObject width="0" height="0"><div xmlns="http://www.w3.org/1999/xhtml" style="display: table-cell; white-space: nowrap; line-height: 1.5; max-width: 100px; text-align: start;"><span class="nodeLabel"></span></div></foreignObject></g><g class="label attribute-comment" transform="translate(134.296875, 394.125)" style=""><foreignObject width="0" height="0"><div xmlns="http://www.w3.org/1999/xhtml" style="display: table-cell; white-space: nowrap; line-height: 1.5; max-width: 100px; text-align: start;"><span class="nodeLabel"></span></div></foreignObject></g><g class="label attribute-type" transform="translate(-109.296875, 436.875)" style=""><foreignObject width="30.25" height="24"><div xmlns="http://www.w3.org/1999/xhtml" style="display: table-cell; white-space: nowrap; line-height: 1.5; max-width: 130px; text-align: start;"><span class="nodeLabel"><p>float</p></span></div></foreignObject></g><g class="label attribute-name" transform="translate(-45.171875, 436.875)" style=""><foreignObject width="102.296875" height="24"><div xmlns="http://www.w3.org/1999/xhtml" style="display: table-cell; white-space: nowrap; line-height: 1.5; max-width: 193px; text-align: start;"><span class="nodeLabel"><p>singletons_pct</p></span></div></foreignObject></g><g class="label attribute-keys" transform="translate(134.296875, 436.875)" style=""><foreignObject width="0" height="0"><div xmlns="http://www.w3.org/1999/xhtml" style="display: table-cell; white-space: nowrap; line-height: 1.5; max-width: 100px; text-align: start;"><span class="nodeLabel"></span></div></foreignObject></g><g class="label attribute-comment" transform="translate(134.296875, 436.875)" style=""><foreignObject width="0" height="0"><div xmlns="http://www.w3.org/1999/xhtml" style="display: table-cell; white-space: nowrap; line-height: 1.5; max-width: 100px; text-align: start;"><span class="nodeLabel"></span></div></foreignObject></g><g class="divider"><path d="M-121.796875 -427.5 C-47.503847902878036 -427.5, 26.78917919424393 -427.5, 121.796875 -427.5 M-121.796875 -427.5 C-32.19785270789271 -427.5, 57.401169584214585 -427.5, 121.796875 -427.5" stroke="#9370DB" stroke-width="1.3" fill="none" stroke-dasharray="0 0"/></g><g class="divider"><path d="M-57.671875 -427.5 C-57.671875 -173.03527572829458, -57.671875 81.42944854341084, -57.671875 470.25 M-57.671875 -427.5 C-57.671875 -201.53055785163244, -57.671875 24.438884296735125, -57.671875 470.25" stroke="#9370DB" stroke-width="1.3" fill="none" stroke-dasharray="0 0"/></g><g class="divider"><path d="M-121.796875 -427.5 C-52.48319180184144 -427.5, 16.830491396317115 -427.5, 121.796875 -427.5 M-121.796875 -427.5 C-69.38269138205118 -427.5, -16.968507764102355 -427.5, 121.796875 -427.5" stroke="#9370DB" stroke-width="1.3" fill="none" stroke-dasharray="0 0"/></g></g></g></g></g></svg>