<svg id="my-svg" width="100%" xmlns="http://www.w3.org/2000/svg" xmlns:xlink="http://www.w3.org/1999/xlink" class="erDiagram" style="max-width: 1134.97px; background-color: white;" viewBox="0 0 1134.96875 187" role="graphics-document document" aria-roledescription="er"><style>#my-svg{font-family:"trebuchet ms",verdana,arial,sans-serif;font-size:16px;fill:#333;}@keyframes edge-animation-frame{from{stroke-dashoffset:0;}}@keyframes dash{to{stroke-dashoffset:0;}}#my-svg .edge-animation-slow{stroke-dasharray:9,5!important;stroke-dashoffset:900;animation:dash 50s linear infinite;stroke-linecap:round;}#my-svg .edge-animation-fast{stroke-dasharray:9,5!important;stroke-dashoffset:900;animation:dash 20s linear infinite;stroke-linecap:round;}#my-svg .error-icon{fill:#552222;}#my-svg .error-text{fill:#552222;stroke:#552222;}#my-svg .edge-thickness-normal{stroke-width:1px;}#my-svg .edge-thickness-thick{stroke-width:3.5px;}#my-svg .edge-pattern-solid{stroke-dasharray:0;}#my-svg .edge-thickness-invisible{stroke-width:0;fill:none;}#my-svg .edge-pattern-dashed{stroke-dasharray:3;}#my-svg .edge-pattern-dotted{stroke-dasharray:2;}#my-svg .marker{fill:#333333;stroke:#333333;}#my-svg .marker.cross{stroke:#333333;}#my-svg svg{font-family:"trebuchet ms",verdana,arial,sans-serif;font-size:16px;}#my-svg p{margin:0;}#my-svg .entityBox{fill:#ECECFF;stroke:#9370DB;}#my-svg .relationshipLabelBox{fill:hsl(80, 100%, 96.2745098039%);opacity:0.7;background-color:hsl(80, 100%, 96.2745098039%);}#my-svg .relationshipLabelBox rect{opacity:0.5;}#my-svg .labelBkg{background-color:rgba(248.6666666666, 255, 235.9999999999, 0.5);}#my-svg .edgeLabel .label{fill:#9370DB;font-size:14px;}#my-svg .label{font-family:"trebuchet ms",verdana,arial,sans-serif;color:#333;}#my-svg .edge-pattern-dashed{stroke-dasharray:8,8;}#my-svg .node rect,#my-svg .node circle,#my-svg .node ellipse,#my-svg .node polygon{fill:#ECECFF;stroke:#9370DB;stroke-width:1px;}#my-svg .relationshipLine{stroke:#333333;stroke-width:1;fill:none;}#my-svg .marker{fill:none!important;stroke:#333333!important;stroke-width:1;}#my-svg .edgeLabel{background-color:rgba(232,232,232, 0.8);}#my-svg .edgeLabel .label rect{fill:rgba(232,232,232, 0.8);}#my-svg .edgeLabel .label text{fill:#333;}#my-svg :root{--mermaid-font-family:"trebuchet ms",verdana,arial,sans-serif;}</style><g><defs><marker id="my-svg_er-onlyOneStart" class="marker onlyOne er" refX="0" refY="9" markerWidth="18" markerHeight="18" orient="auto"><path d="M9,0 L9,18 M15,0 L15,18"/></marker></defs><defs><marker id="my-svg_er-onlyOneEnd" class="marker onlyOne er" refX="18" refY="9" markerWidth="18" markerHeight="18" orient="auto"><path d="M3,0 L3,18 M9,0 L9,18"/></marker></defs><defs><marker id="my-svg_er-zeroOrOneStart" class="marker zeroOrOne er" refX="0" refY="9" markerWidth="30" markerHeight="18" orient="auto"><circle fill="white" cx="21" cy="9" r="6"/><path d="M9,0 L9,18"/></marker></defs><defs><marker id="my-svg_er-zeroOrOneEnd" class="marker zeroOrOne er" refX="30" refY="9" markerWidth="30" markerHeight="18" orient="auto"><circle fill="white" cx="9" cy="9" r="6"/><path d="M21,0 L21,18"/></marker></defs><defs><marker id="my-svg_er-oneOrMoreStart" class="marker oneOrMore er" refX="18" refY="18" markerWidth="45" markerHeight="36" orient="auto"><path d="M0,18 Q 18,0 36,18 Q 18,36 0,18 M42,9 L42,27"/></marker></defs><defs><marker id="my-svg_er-oneOrMoreEnd" class="marker oneOrMore er" refX="27" refY="18" markerWidth="45" markerHeight="36" orient="auto"><path d="M3,9 L3,27 M9,18 Q27,0 45,18 Q27,36 9,18"/></marker></defs><defs><marker id="my-svg_er-zeroOrMoreStart" class="marker zeroOrMore er" refX="18" refY="18" markerWidth="57" markerHeight="36" orient="auto"><circle fill="white" cx="48" cy="18" r="6"/><path d="M0,18 Q18,0 36,18 Q18,36 0,18"/></marker></defs><defs><marker id="my-svg_er-zeroOrMoreEnd" class="marker zeroOrMore er" refX="39" refY="18" markerWidth="57" markerHeight="36" orient="auto"><circle fill="white" cx="9" cy="18" r="6"/><path d="M21,18 Q39,0 57,18 Q39,36 21,18"/></marker></defs><g class="root"><g class="clusters"/><g class="edgePaths"/><g class="edgeLabels"/><g class="nodes"><g class="node default" id="entity-RawAllocation-0" transform="translate(86.3671875, 93.5)"><g style=""><path d="M-78.3671875 -85.5 L78.3671875 -85.5 L78.3671875 85.5 L-78.3671875 85.5" stroke="none" stroke-width="0" fill="#ECECFF"/><path d="M-78.3671875 -85.5 C-23.031215462766504 -85.5, 32.30475657446699 -85.5, 78.3671875 -85.5 M-78.3671875 -85.5 C-34.34563454572792 -85.5, 9.675918408544163 -85.5, 78.3671875 -85.5 M78.3671875 -85.5 C78.3671875 -32.02185507741153, 78.3671875 21.45628984517694, 78.3671875 85.5 M78.3671875 -85.5 C78.3671875 -26.354828244204988, 78.3671875 32.790343511590024, 78.3671875 85.5 M78.3671875 85.5 C41.139473159725114 85.5, 3.9117588194502275 85.5, -78.3671875 85.5 M78.3671875 85.5 C36.62604324546972 85.5, -5.115101009060567 85.5, -78.3671875 85.5 M-78.3671875 85.5 C-78.3671875 17.163341244883313, -78.3671875 -51.173317510233375, -78.3671875 -85.5 M-78.3671875 85.5 C-78.3671875 22.260499156770024, -78.3671875 -40.97900168645995, -78.3671875 -85.5" stroke="#9370DB" stroke-width="1.3" fill="none" stroke-dasharray="0 0"/></g><g style="" class="row-rect-odd"><path d="M-78.3671875 -42.75 L78.3671875 -42.75 L78.3671875 0 L-78.3671875 0" stroke="none" stroke-width="0" fill="hsl(240, 100%, 100%)"/><path d="M-78.3671875 -42.75 C-43.92771715026272 -42.75, -9.488246800525445 -42.75, 78.3671875 -42.75 M-78.3671875 -42.75 C-42.206637120866624 -42.75, -6.046086741733248 -42.75, 78.3671875 -42.75 M78.3671875 -42.75 C78.3671875 -33.25235743988852, 78.3671875 -23.754714879777044, 78.3671875 0 M78.3671875 -42.75 C78.3671875 -31.20611018586186, 78.3671875 -19.66222037172372, 78.3671875 0 M78.3671875 0 C20.870490758829618 0, -36.626205982340764 0, -78.3671875 0 M78.3671875 0 C42.14462034024912 0, 5.922053180498239 0, -78.3671875 0 M-78.3671875 0 C-78.3671875 -9.59418182871147, -78.3671875 -19.18836365742294, -78.3671875 -42.75 M-78.3671875 0 C-78.3671875 -15.007504620804557, -78.3671875 -30.015009241609114, -78.3671875 -42.75" stroke="#9370DB" stroke-width="1.3" fill="none" stroke-dasharray="0 0"/></g><g style="" class="row-rect-even"><path d="M-78.3671875 0 L78.3671875 0 L78.3671875 42.75 L-78.3671875 42.75" stroke="none" stroke-width="0" fill="hsl(240, 100%, 97.2745098039%)"/><path d="M-78.3671875 0 C-28.401280374891876 0, 21.56462675021625 0, 78.3671875 0 M-78.3671875 0 C-26.51953835209423 0, 25.32811079581154 0, 78.3671875 0 M78.3671875 0 C78.3671875 10.404256746985704, 78.3671875 20.808513493971407, 78.3671875 42.75 M78.3671875 0 C78.3671875 16.0723873425794, 78.3671875 32.1447746851588, 78.3671875 42.75 M78.3671875 42.75 C17.86441285010922 42.75, -42.63836179978156 42.75, -78.3671875 42.75 M78.3671875 42.75 C45.733064905610384 42.75, 13.098942311220767 42.75, -78.3671875 42.75 M-78.3671875 42.75 C-78.3671875 27.55198210914164, -78.3671875 12.353964218283277, -78.3671875 0 M-78.3671875 42.75 C-78.3671875 33.88022031894028, -78.3671875 25.010440637880567, -78.3671875 0" stroke="#9370DB" stroke-width="1.3" fill="none" stroke-dasharray="0 0"/></g><g style="" class="row-rect-odd"><path d="M-78.3671875 42.75 L78.3671875 42.75 L78.3671875 85.5 L-78.3671875 85.5" stroke="none" stroke-width="0" fill="hsl(240, 100%, 100%)"/><path d="M-78.3671875 42.75 C-26.874765982223956 42.75, 24.61765553555209 42.75, 78.3671875 42.75 M-78.3671875 42.75 C-46.832871350335495 42.75, -15.298555200670997 42.75, 78.3671875 42.75 M78.3671875 42.75 C78.3671875 52.09765062473798, 78.3671875 61.44530124947596, 78.3671875 85.5 M78.3671875 42.75 C78.3671875 54.6685219697558, 78.3671875 66.5870439395116, 78.3671875 85.5 M78.3671875 85.5 C38.29791157171652 85.5, -1.7713643565669628 85.5, -78.3671875 85.5 M78.3671875 85.5 C41.104338506426494 85.5, 3.841489512852988 85.5, -78.3671875 85.5 M-78.3671875 85.5 C-78.3671875 73.02611267055951, -78.3671875 60.552225341119026, -78.3671875 42.75 M-78.3671875 85.5 C-78.3671875 69.29194022494562, -78.3671875 53.083880449891225, -78.3671875 42.75" stroke="#9370DB" stroke-width="1.3" fill="none" stroke-dasharray="0 0"/></g><g class="label name" transform="translate(-50.6953125, -76.125)" style=""><foreignObject width="101.390625" height="24"><div xmlns="http://www.w3.org/1999/xhtml" style="display: table-cell; white-space: nowrap; line-height: 1.5; max-width: 197px; text-align: start;"><span class="nodeLabel"><p>RawAllocation</p></span></div></foreignObject></g><g class="label attribute-type" transform="translate(-65.8671875, -33.375)" style=""><foreignObject width="39.125" height="24"><div xmlns="http://www.w3.org/1999/xhtml" style="display: table-cell; white-space: nowrap; line-height: 1.5; max-width: 136px; text-align: start;"><span class="nodeLabel"><p>string</p></span></div></foreignObject></g><g class="label attribute-name" transform="translate(-1.7421875, -33.375)" style=""><foreignObject width="65.828125" height="24"><div xmlns="http://www.w3.org/1999/xhtml" style="display: table-cell; white-space: nowrap; line-height: 1.5; max-width: 159px; text-align: start;"><span class="nodeLabel"><p>signature</p></span></div></foreignObject></g><g class="label attribute-keys" transform="translate(90.8671875, -33.375)" style=""><foreignObject width="0" height="0"><div xmlns="http://www.w3.org/1999/xhtml" style="display: table-cell; white-space: nowrap; line-height: 1.5; max-width: 100px; text-align: start;"><span class="nodeLabel"></span></div></foreignObject></g><g class="label attribute-comment" transform="translate(90.8671875, -33.375)" style=""><foreignObject width="0" height="0"><div xmlns="http://www.w3.org/1999/xhtml" style="display: table-cell; white-space: nowrap; line-height: 1.5; max-width: 100px; text-align: start;"><span class="nodeLabel"></span></div></foreignObject></g><g class="label attribute-type" transform="translate(-65.8671875, 9.375)" style=""><foreignObject width="30.25" height="24"><div xmlns="http://www.w3.org/1999/xhtml" style="display: table-cell; white-space: nowrap; line-height: 1.5; max-width: 130px; text-align: start;"><span class="nodeLabel"><p>float</p></span></div></foreignObject></g><g class="label attribute-name" transform="translate(-1.7421875, 9.375)" style=""><foreignObject width="67.609375" height="24"><div xmlns="http://www.w3.org/1999/xhtml" style="display: table-cell; white-space: nowrap; line-height: 1.5; max-width: 163px; text-align: start;"><span class="nodeLabel"><p>allocation</p></span></div></foreignObject></g><g class="label attribute-keys" transform="translate(90.8671875, 9.375)" style=""><foreignObject width="0" height="0"><div xmlns="http://www.w3.org/1999/xhtml" style="display: table-cell; white-space: nowrap; line-height: 1.5; max-width: 100px; text-align: start;"><span class="nodeLabel"></span></div></foreignObject></g><g class="label attribute-comment" transform="translate(90.8671875, 9.375)" style=""><foreignObject width="0" height="0"><div xmlns="http://www.w3.org/1999/xhtml" style="display: table-cell; white-space: nowrap; line-height: 1.5; max-width: 100px; text-align: start;"><span class="nodeLabel"></span></div></foreignObject></g><g class="label attribute-type" transform="translate(-65.8671875, 52.125)" style=""><foreignObject width="30.25" height="24"><div xmlns="http://www.w3.org/1999/xhtml" style="display: table-cell; white-space: nowrap; line-height: 1.5; max-width: 130px; text-align: start;"><span class="nodeLabel"><p>float</p></span></div></foreignObject></g><g class="label attribute-name" transform="translate(-1.7421875, 52.125)" style=""><foreignObject width="53.375" height="24"><div xmlns="http://www.w3.org/1999/xhtml" style="display: table-cell; white-space: nowrap; line-height: 1.5; max-width: 148px; text-align: start;"><span class="nodeLabel"><p>percent</p></span></div></foreignObject></g><g class="label attribute-keys" transform="translate(90.8671875, 52.125)" style=""><foreignObject width="0" height="0"><div xmlns="http://www.w3.org/1999/xhtml" style="display: table-cell; white-space: nowrap; line-height: 1.5; max-width: 100px; text-align: start;"><span class="nodeLabel"></span></div></foreignObject></g><g class="label attribute-comment" transform="translate(90.8671875, 52.125)" style=""><foreignObject width="0" height="0"><div xmlns="http://www.w3.org/1999/xhtml" style="display: table-cell; white-space: nowrap; line-height: 1.5; max-width: 100px; text-align: start;"><span class="nodeLabel"></span></div></foreignObject></g><g class="divider"><path d="M-78.3671875 -42.75 C-39.70509970180061 -42.75, -1.0430119036012258 -42.75, 78.3671875 -42.75 M-78.3671875 -42.75 C-36.394234264792246 -42.75, 5.578718970415508 -42.75, 78.3671875 -42.75" stroke="#9370DB" stroke-width="1.3" fill="none" stroke-dasharray="0 0"/></g><g class="divider"><path d="M-14.2421875 -42.75 C-14.2421875 -15.131200426435118, -14.2421875 12.487599147129764, -14.2421875 85.5 M-14.2421875 -42.75 C-14.2421875 -1.542227319568319, -14.2421875 39.66554536086336, -14.2421875 85.5" stroke="#9370DB" stroke-width="1.3" fill="none" stroke-dasharray="0 0"/></g><g class="divider"><path d="M-78.3671875 -42.75 C-46.402681454652225 -42.75, -14.43817540930445 -42.75, 78.3671875 -42.75 M-78.3671875 -42.75 C-31.19235516567226 -42.75, 15.982477168655478 -42.75, 78.3671875 -42.75" stroke="#9370DB" stroke-width="1.3" fill="none" stroke-dasharray="0 0"/></g></g><g class="node default" id="entity-TidyAllocation-1" transform="translate(383.1015625, 93.5)"><g style=""><path d="M-78.3671875 -85.5 L78.3671875 -85.5 L78.3671875 85.5 L-78.3671875 85.5" stroke="none" stroke-width="0" fill="#ECECFF"/><path d="M-78.3671875 -85.5 C-22.04340375208968 -85.5, 34.28037999582064 -85.5, 78.3671875 -85.5 M-78.3671875 -85.5 C-32.80895783387497 -85.5, 12.74927183225006 -85.5, 78.3671875 -85.5 M78.3671875 -85.5 C78.3671875 -36.584845527251424, 78.3671875 12.330308945497151, 78.3671875 85.5 M78.3671875 -85.5 C78.3671875 -26.341048544618403, 78.3671875 32.817902910763195, 78.3671875 85.5 M78.3671875 85.5 C20.382946161965066 85.5, -37.60129517606987 85.5, -78.3671875 85.5 M78.3671875 85.5 C33.948636923971975 85.5, -10.46991365205605 85.5, -78.3671875 85.5 M-78.3671875 85.5 C-78.3671875 23.023099167684926, -78.3671875 -39.45380166463015, -78.3671875 -85.5 M-78.3671875 85.5 C-78.3671875 34.54297588544833, -78.3671875 -16.414048229103344, -78.3671875 -85.5" stroke="#9370DB" stroke-width="1.3" fill="none" stroke-dasharray="0 0"/></g><g style="" class="row-rect-odd"><path d="M-78.3671875 -42.75 L78.3671875 -42.75 L78.3671875 0 L-78.3671875 0" stroke="none" stroke-width="0" fill="hsl(240, 100%, 100%)"/><path d="M-78.3671875 -42.75 C-31.66639754189366 -42.75, 15.034392416212683 -42.75, 78.3671875 -42.75 M-78.3671875 -42.75 C-40.09703647345656 -42.75, -1.8268854469131242 -42.75, 78.3671875 -42.75 M78.3671875 -42.75 C78.3671875 -27.55738964492791, 78.3671875 -12.364779289855818, 78.3671875 0 M78.3671875 -42.75 C78.3671875 -26.74271920771046, 78.3671875 -10.735438415420923, 78.3671875 0 M78.3671875 0 C20.35583494721095 0, -37.6555176055781 0, -78.3671875 0 M78.3671875 0 C45.50493662739906 0, 12.642685754798123 0, -78.3671875 0 M-78.3671875 0 C-78.3671875 -14.05889311563681, -78.3671875 -28.11778623127362, -78.3671875 -42.75 M-78.3671875 0 C-78.3671875 -15.587342820610061, -78.3671875 -31.174685641220123, -78.3671875 -42.75" stroke="#9370DB" stroke-width="1.3" fill="none" stroke-dasharray="0 0"/></g><g style="" class="row-rect-even"><path d="M-78.3671875 0 L78.3671875 0 L78.3671875 42.75 L-78.3671875 42.75" stroke="none" stroke-width="0" fill="hsl(240, 100%, 97.2745098039%)"/><path d="M-78.3671875 0 C-38.02353642110386 0, 2.320114657792274 0, 78.3671875 0 M-78.3671875 0 C-20.30652614724614 0, 37.75413520550772 0, 78.3671875 0 M78.3671875 0 C78.3671875 9.06044050114661, 78.3671875 18.12088100229322, 78.3671875 42.75 M78.3671875 0 C78.3671875 13.099474185180512, 78.3671875 26.198948370361023, 78.3671875 42.75 M78.3671875 42.75 C43.07782569011951 42.75, 7.788463880239021 42.75, -78.3671875 42.75 M78.3671875 42.75 C28.612667606413588 42.75, -21.141852287172824 42.75, -78.3671875 42.75 M-78.3671875 42.75 C-78.3671875 28.538357596181704, -78.3671875 14.326715192363409, -78.3671875 0 M-78.3671875 42.75 C-78.3671875 31.372803103343394, -78.3671875 19.995606206686784, -78.3671875 0" stroke="#9370DB" stroke-width="1.3" fill="none" stroke-dasharray="0 0"/></g><g style="" class="row-rect-odd"><path d="M-78.3671875 42.75 L78.3671875 42.75 L78.3671875 85.5 L-78.3671875 85.5" stroke="none" stroke-width="0" fill="hsl(240, 100%, 100%)"/><path d="M-78.3671875 42.75 C-27.422505311991998 42.75, 23.522176876016005 42.75, 78.3671875 42.75 M-78.3671875 42.75 C-18.24880720161223 42.75, 41.86957309677554 42.75, 78.3671875 42.75 M78.3671875 42.75 C78.3671875 52.594529055213286, 78.3671875 62.439058110426565, 78.3671875 85.5 M78.3671875 42.75 C78.3671875 54.926672924867816, 78.3671875 67.10334584973563, 78.3671875 85.5 M78.3671875 85.5 C29.78833438378053 85.5, -18.79051873243894 85.5, -78.3671875 85.5 M78.3671875 85.5 C32.8800520763856 85.5, -12.607083347228794 85.5, -78.3671875 85.5 M-78.3671875 85.5 C-78.3671875 74.78180883814781, -78.3671875 64.06361767629562, -78.3671875 42.75 M-78.3671875 85.5 C-78.3671875 75.79029867854138, -78.3671875 66.08059735708277, -78.3671875 42.75" stroke="#9370DB" stroke-width="1.3" fill="none" stroke-dasharray="0 0"/></g><g class="label name" transform="translate(-49.5078125, -76.125)" style=""><foreignObject width="99.015625" height="24"><div xmlns="http://www.w3.org/1999/xhtml" style="display: table-cell; white-space: nowrap; line-height: 1.5; max-width: 197px; text-align: start;"><span class="nodeLabel"><p>TidyAllocation</p></span></div></foreignObject></g><g class="label attribute-type" transform="translate(-65.8671875, -33.375)" style=""><foreignObject width="39.125" height="24"><div xmlns="http://www.w3.org/1999/xhtml" style="display: table-cell; white-space: nowrap; line-height: 1.5; max-width: 136px; text-align: start;"><span class="nodeLabel"><p>string</p></span></div></foreignObject></g><g class="label attribute-name" transform="translate(-1.7421875, -33.375)" style=""><foreignObject width="65.828125" height="24"><div xmlns="http://www.w3.org/1999/xhtml" style="display: table-cell; white-space: nowrap; line-height: 1.5; max-width: 159px; text-align: start;"><span class="nodeLabel"><p>signature</p></span></div></foreignObject></g><g class="label attribute-keys" transform="translate(90.8671875, -33.375)" style=""><foreignObject width="0" height="0"><div xmlns="http://www.w3.org/1999/xhtml" style="display: table-cell; white-space: nowrap; line-height: 1.5; max-width: 100px; text-align: start;"><span class="nodeLabel"></span></div></foreignObject></g><g class="label attribute-comment" transform="translate(90.8671875, -33.375)" style=""><foreignObject width="0" height="0"><div xmlns="http://www.w3.org/1999/xhtml" style="display: table-cell; white-space: nowrap; line-height: 1.5; max-width: 100px; text-align: start;"><span class="nodeLabel"></span></div></foreignObject></g><g class="label attribute-type" transform="translate(-65.8671875, 9.375)" style=""><foreignObject width="30.25" height="24"><div xmlns="http://www.w3.org/1999/xhtml" style="display: table-cell; white-space: nowrap; line-height: 1.5; max-width: 130px; text-align: start;"><span class="nodeLabel"><p>float</p></span></div></foreignObject></g><g class="label attribute-name" transform="translate(-1.7421875, 9.375)" style=""><foreignObject width="67.609375" height="24"><div xmlns="http://www.w3.org/1999/xhtml" style="display: table-cell; white-space: nowrap; line-height: 1.5; max-width: 163px; text-align: start;"><span class="nodeLabel"><p>allocation</p></span></div></foreignObject></g><g class="label attribute-keys" transform="translate(90.8671875, 9.375)" style=""><foreignObject width="0" height="0"><div xmlns="http://www.w3.org/1999/xhtml" style="display: table-cell; white-space: nowrap; line-height: 1.5; max-width: 100px; text-align: start;"><span class="nodeLabel"></span></div></foreignObject></g><g class="label attribute-comment" transform="translate(90.8671875, 9.375)" style=""><foreignObject width="0" height="0"><div xmlns="http://www.w3.org/1999/xhtml" style="display: table-cell; white-space: nowrap; line-height: 1.5; max-width: 100px; text-align: start;"><span class="nodeLabel"></span></div></foreignObject></g><g class="label attribute-type" transform="translate(-65.8671875, 52.125)" style=""><foreignObject width="30.25" height="24"><div xmlns="http://www.w3.org/1999/xhtml" style="display: table-cell; white-space: nowrap; line-height: 1.5; max-width: 130px; text-align: start;"><span class="nodeLabel"><p>float</p></span></div></foreignObject></g><g class="label attribute-name" transform="translate(-1.7421875, 52.125)" style=""><foreignObject width="53.375" height="24"><div xmlns="http://www.w3.org/1999/xhtml" style="display: table-cell; white-space: nowrap; line-height: 1.5; max-width: 148px; text-align: start;"><span class="nodeLabel"><p>percent</p></span></div></foreignObject></g><g class="label attribute-keys" transform="translate(90.8671875, 52.125)" style=""><foreignObject width="0" height="0"><div xmlns="http://www.w3.org/1999/xhtml" style="display: table-cell; white-space: nowrap; line-height: 1.5; max-width: 100px; text-align: start;"><span class="nodeLabel"></span></div></foreignObject></g><g class="label attribute-comment" transform="translate(90.8671875, 52.125)" style=""><foreignObject width="0" height="0"><div xmlns="http://www.w3.org/1999/xhtml" style="display: table-cell; white-space: nowrap; line-height: 1.5; max-width: 100px; text-align: start;"><span class="nodeLabel"></span></div></foreignObject></g><g class="divider"><path d="M-78.3671875 -42.75 C-25.04075735395041 -42.75, 28.285672792099177 -42.75, 78.3671875 -42.75 M-78.3671875 -42.75 C-45.22113053087041 -42.75, -12.075073561740822 -42.75, 78.3671875 -42.75" stroke="#9370DB" stroke-width="1.3" fill="none" stroke-dasharray="0 0"/></g><g class="divider"><path d="M-14.2421875 -42.75 C-14.2421875 -14.784042928041526, -14.2421875 13.181914143916948, -14.2421875 85.5 M-14.2421875 -42.75 C-14.2421875 -8.770720678892559, -14.2421875 25.208558642214882, -14.2421875 85.5" stroke="#9370DB" stroke-width="1.3" fill="none" stroke-dasharray="0 0"/></g><g class="divider"><path d="M-78.3671875 -42.75 C-24.80703919646814 -42.75, 28.75310910706372 -42.75, 78.3671875 -42.75 M-78.3671875 -42.75 C-21.223416160925694 -42.75, 35.92035517814861 -42.75, 78.3671875 -42.75" stroke="#9370DB" stroke-width="1.3" fill="none" stroke-dasharray="0 0"/></g></g><g class="node default" id="entity-RawSnvcounts-2" transform="translate(696.7265625, 93.5)"><g style=""><path d="M-95.2578125 -64.125 L95.2578125 -64.125 L95.2578125 64.125 L-95.2578125 64.125" stroke="none" stroke-width="0" fill="#ECECFF"/><path d="M-95.2578125 -64.125 C-50.710247630875585 -64.125, -6.162682761751171 -64.125, 95.2578125 -64.125 M-95.2578125 -64.125 C-56.8238286173769 -64.125, -18.389844734753794 -64.125, 95.2578125 -64.125 M95.2578125 -64.125 C95.2578125 -20.920614787418998, 95.2578125 22.283770425162004, 95.2578125 64.125 M95.2578125 -64.125 C95.2578125 -24.963499531058055, 95.2578125 14.19800093788389, 95.2578125 64.125 M95.2578125 64.125 C21.55594163471217 64.125, -52.14592923057566 64.125, -95.2578125 64.125 M95.2578125 64.125 C53.05243497456987 64.125, 10.84705744913974 64.125, -95.2578125 64.125 M-95.2578125 64.125 C-95.2578125 33.12777667959119, -95.2578125 2.130553359182379, -95.2578125 -64.125 M-95.2578125 64.125 C-95.2578125 33.73369920903765, -95.2578125 3.3423984180753123, -95.2578125 -64.125" stroke="#9370DB" stroke-width="1.3" fill="none" stroke-dasharray="0 0"/></g><g style="" class="row-rect-odd"><path d="M-95.2578125 -21.375 L95.2578125 -21.375 L95.2578125 21.375 L-95.2578125 21.375" stroke="none" stroke-width="0" fill="hsl(240, 100%, 100%)"/><path d="M-95.2578125 -21.375 C-33.884553008313794 -21.375, 27.48870648337241 -21.375, 95.2578125 -21.375 M-95.2578125 -21.375 C-41.428335012350175 -21.375, 12.40114247529965 -21.375, 95.2578125 -21.375 M95.2578125 -21.375 C95.2578125 -9.491070070675113, 95.2578125 2.392859858649775, 95.2578125 21.375 M95.2578125 -21.375 C95.2578125 -6.594817117351882, 95.2578125 8.185365765296236, 95.2578125 21.375 M95.2578125 21.375 C57.126598298777 21.375, 18.995384097553995 21.375, -95.2578125 21.375 M95.2578125 21.375 C41.07967972795083 21.375, -13.098453044098335 21.375, -95.2578125 21.375 M-95.2578125 21.375 C-95.2578125 11.087468971946898, -95.2578125 0.799937943893795, -95.2578125 -21.375 M-95.2578125 21.375 C-95.2578125 4.546397660541508, -95.2578125 -12.282204678916983, -95.2578125 -21.375" stroke="#9370DB" stroke-width="1.3" fill="none" stroke-dasharray="0 0"/></g><g style="" class="row-rect-even"><path d="M-95.2578125 21.375 L95.2578125 21.375 L95.2578125 64.125 L-95.2578125 64.125" stroke="none" stroke-width="0" fill="hsl(240, 100%, 97.2745098039%)"/><path d="M-95.2578125 21.375 C-23.30322580449686 21.375, 48.65136089100628 21.375, 95.2578125 21.375 M-95.2578125 21.375 C-39.33116074514028 21.375, 16.59549100971944 21.375, 95.2578125 21.375 M95.2578125 21.375 C95.2578125 38.16030465556853, 95.2578125 54.94560931113706, 95.2578125 64.125 M95.2578125 21.375 C95.2578125 34.013334617712744, 95.2578125 46.651669235425494, 95.2578125 64.125 M95.2578125 64.125 C54.53086023583396 64.125, 13.803907971667925 64.125, -95.2578125 64.125 M95.2578125 64.125 C36.51148449337426 64.125, -22.234843513251477 64.125, -95.2578125 64.125 M-95.2578125 64.125 C-95.2578125 50.544441125882315, -95.2578125 36.96388225176463, -95.2578125 21.375 M-95.2578125 64.125 C-95.2578125 50.95064346244481, -95.2578125 37.77628692488962, -95.2578125 21.375" stroke="#9370DB" stroke-width="1.3" fill="none" stroke-dasharray="0 0"/></g><g class="label name" transform="translate(-53.359375, -54.75)" style=""><foreignObject width="106.71875" height="24"><div xmlns="http://www.w3.org/1999/xhtml" style="display: table-cell; white-space: nowrap; line-height: 1.5; max-width: 196px; text-align: start;"><span class="nodeLabel"><p>RawSnvcounts</p></span></div></foreignObject></g><g class="label attribute-type" transform="translate(-82.7578125, -12)" style=""><foreignObject width="39.125" height="24"><div xmlns="http://www.w3.org/1999/xhtml" style="display: table-cell; white-space: nowrap; line-height: 1.5; max-width: 136px; text-align: start;"><span class="nodeLabel"><p>string</p></span></div></foreignObject></g><g class="label attribute-name" transform="translate(-8.8359375, -12)" style=""><foreignObject width="91.59375" height="24"><div xmlns="http://www.w3.org/1999/xhtml" style="display: table-cell; white-space: nowrap; line-height: 1.5; max-width: 184px; text-align: start;"><span class="nodeLabel"><p>BucketName</p></span></div></foreignObject></g><g class="label attribute-keys" transform="translate(107.7578125, -12)" style=""><foreignObject width="0" height="0"><div xmlns="http://www.w3.org/1999/xhtml" style="display: table-cell; white-space: nowrap; line-height: 1.5; max-width: 100px; text-align: start;"><span class="nodeLabel"></span></div></foreignObject></g><g class="label attribute-comment" transform="translate(107.7578125, -12)" style=""><foreignObject width="0" height="0"><div xmlns="http://www.w3.org/1999/xhtml" style="display: table-cell; white-space: nowrap; line-height: 1.5; max-width: 100px; text-align: start;"><span class="nodeLabel"></span></div></foreignObject></g><g class="label attribute-type" transform="translate(-82.7578125, 30.75)" style=""><foreignObject width="48.921875" height="24"><div xmlns="http://www.w3.org/1999/xhtml" style="display: table-cell; white-space: nowrap; line-height: 1.5; max-width: 145px; text-align: start;"><span class="nodeLabel"><p>integer</p></span></div></foreignObject></g><g class="label attribute-name" transform="translate(-8.8359375, 30.75)" style=""><foreignObject width="39.140625" height="24"><div xmlns="http://www.w3.org/1999/xhtml" style="display: table-cell; white-space: nowrap; line-height: 1.5; max-width: 136px; text-align: start;"><span class="nodeLabel"><p>count</p></span></div></foreignObject></g><g class="label attribute-keys" transform="translate(107.7578125, 30.75)" style=""><foreignObject width="0" height="0"><div xmlns="http://www.w3.org/1999/xhtml" style="display: table-cell; white-space: nowrap; line-height: 1.5; max-width: 100px; text-align: start;"><span class="nodeLabel"></span></div></foreignObject></g><g class="label attribute-comment" transform="translate(107.7578125, 30.75)" style=""><foreignObject width="0" height="0"><div xmlns="http://www.w3.org/1999/xhtml" style="display: table-cell; white-space: nowrap; line-height: 1.5; max-width: 100px; text-align: start;"><span class="nodeLabel"></span></div></foreignObject></g><g class="divider"><path d="M-95.2578125 -21.375 C-25.886570993169855 -21.375, 43.48467051366029 -21.375, 95.2578125 -21.375 M-95.2578125 -21.375 C-42.639161785020704 -21.375, 9.979488929958592 -21.375, 95.2578125 -21.375" stroke="#9370DB" stroke-width="1.3" fill="none" stroke-dasharray="0 0"/></g><g class="divider"><path d="M-21.3359375 -21.375 C-21.3359375 -0.8655800554938438, -21.3359375 19.643839889012312, -21.3359375 64.125 M-21.3359375 -21.375 C-21.3359375 -1.310460732985991, -21.3359375 18.754078534028018, -21.3359375 64.125" stroke="#9370DB" stroke-width="1.3" fill="none" stroke-dasharray="0 0"/></g><g class="divider"><path d="M-95.2578125 -21.375 C-47.47169799146404 -21.375, 0.3144165170719191 -21.375, 95.2578125 -21.375 M-95.2578125 -21.375 C-34.333532899746714 -21.375, 26.59074670050657 -21.375, 95.2578125 -21.375" stroke="#9370DB" stroke-width="1.3" fill="none" stroke-dasharray="0 0"/></g></g><g class="node default" id="entity-TidySnvcounts-3" transform="translate(1029.4765625, 93.5)"><g style=""><path d="M-97.4921875 -64.125 L97.4921875 -64.125 L97.4921875 64.125 L-97.4921875 64.125" stroke="none" stroke-width="0" fill="#ECECFF"/><path d="M-97.4921875 -64.125 C-47.44942576280755 -64.125, 2.5933359743848996 -64.125, 97.4921875 -64.125 M-97.4921875 -64.125 C-22.56820860703843 -64.125, 52.35577028592314 -64.125, 97.4921875 -64.125 M97.4921875 -64.125 C97.4921875 -32.644922416327844, 97.4921875 -1.1648448326556817, 97.4921875 64.125 M97.4921875 -64.125 C97.4921875 -16.58627276752786, 97.4921875 30.95245446494428, 97.4921875 64.125 M97.4921875 64.125 C43.58258974991544 64.125, -10.327008000169116 64.125, -97.4921875 64.125 M97.4921875 64.125 C37.371566020408444 64.125, -22.74905545918311 64.125, -97.4921875 64.125 M-97.4921875 64.125 C-97.4921875 22.102128257287774, -97.4921875 -19.920743485424453, -97.4921875 -64.125 M-97.4921875 64.125 C-97.4921875 13.69856763353922, -97.4921875 -36.72786473292156, -97.4921875 -64.125" stroke="#9370DB" stroke-width="1.3" fill="none" stroke-dasharray="0 0"/></g><g style="" class="row-rect-odd"><path d="M-97.4921875 -21.375 L97.4921875 -21.375 L97.4921875 21.375 L-97.4921875 21.375" stroke="none" stroke-width="0" fill="hsl(240, 100%, 100%)"/><path d="M-97.4921875 -21.375 C-21.882830037180085 -21.375, 53.72652742563983 -21.375, 97.4921875 -21.375 M-97.4921875 -21.375 C-20.17787199278814 -21.375, 57.13644351442372 -21.375, 97.4921875 -21.375 M97.4921875 -21.375 C97.4921875 -8.378848527205314, 97.4921875 4.617302945589373, 97.4921875 21.375 M97.4921875 -21.375 C97.4921875 -12.337144337783192, 97.4921875 -3.299288675566384, 97.4921875 21.375 M97.4921875 21.375 C40.97714526611462 21.375, -15.537896967770763 21.375, -97.4921875 21.375 M97.4921875 21.375 C48.9607752487884 21.375, 0.42936299757680274 21.375, -97.4921875 21.375 M-97.4921875 21.375 C-97.4921875 12.811541093019308, -97.4921875 4.248082186038616, -97.4921875 -21.375 M-97.4921875 21.375 C-97.4921875 5.440191057180909, -97.4921875 -10.494617885638181, -97.4921875 -21.375" stroke="#9370DB" stroke-width="1.3" fill="none" stroke-dasharray="0 0"/></g><g style="" class="row-rect-even"><path d="M-97.4921875 21.375 L97.4921875 21.375 L97.4921875 64.125 L-97.4921875 64.125" stroke="none" stroke-width="0" fill="hsl(240, 100%, 97.2745098039%)"/><path d="M-97.4921875 21.375 C-43.10628266387517 21.375, 11.27962217224966 21.375, 97.4921875 21.375 M-97.4921875 21.375 C-48.6508677015559 21.375, 0.19045209688819398 21.375, 97.4921875 21.375 M97.4921875 21.375 C97.4921875 35.49291846232482, 97.4921875 49.61083692464965, 97.4921875 64.125 M97.4921875 21.375 C97.4921875 37.25491158712079, 97.4921875 53.134823174241575, 97.4921875 64.125 M97.4921875 64.125 C50.90429159343172 64.125, 4.316395686863444 64.125, -97.4921875 64.125 M97.4921875 64.125 C49.76998455153651 64.125, 2.0477816030730196 64.125, -97.4921875 64.125 M-97.4921875 64.125 C-97.4921875 49.87265793638608, -97.4921875 35.62031587277216, -97.4921875 21.375 M-97.4921875 64.125 C-97.4921875 49.37731561130909, -97.4921875 34.62963122261819, -97.4921875 21.375" stroke="#9370DB" stroke-width="1.3" fill="none" stroke-dasharray="0 0"/></g><g class="label name" transform="translate(-52.171875, -54.75)" style=""><foreignObject width="104.34375" height="24"><div xmlns="http://www.w3.org/1999/xhtml" style="display: table-cell; white-space: nowrap; line-height: 1.5; max-width: 196px; text-align: start;"><span class="nodeLabel"><p>TidySnvcounts</p></span></div></foreignObject></g><g class="label attribute-type" transform="translate(-84.9921875, -12)" style=""><foreignObject width="39.125" height="24"><div xmlns="http://www.w3.org/1999/xhtml" style="display: table-cell; white-space: nowrap; line-height: 1.5; max-width: 136px; text-align: start;"><span class="nodeLabel"><p>string</p></span></div></foreignObject></g><g class="label attribute-name" transform="translate(-11.0703125, -12)" style=""><foreignObject width="96.0625" height="24"><div xmlns="http://www.w3.org/1999/xhtml" style="display: table-cell; white-space: nowrap; line-height: 1.5; max-width: 196px; text-align: start;"><span class="nodeLabel"><p>bucket_name</p></span></div></foreignObject></g><g class="label attribute-keys" transform="translate(109.9921875, -12)" style=""><foreignObject width="0" height="0"><div xmlns="http://www.w3.org/1999/xhtml" style="display: table-cell; white-space: nowrap; line-height: 1.5; max-width: 100px; text-align: start;"><span class="nodeLabel"></span></div></foreignObject></g><g class="label attribute-comment" transform="translate(109.9921875, -12)" style=""><foreignObject width="0" height="0"><div xmlns="http://www.w3.org/1999/xhtml" style="display: table-cell; white-space: nowrap; line-height: 1.5; max-width: 100px; text-align: start;"><span class="nodeLabel"></span></div></foreignObject></g><g class="label attribute-type" transform="translate(-84.9921875, 30.75)" style=""><foreignObject width="48.921875" height="24"><div xmlns="http://www.w3.org/1999/xhtml" style="display: table-cell; white-space: nowrap; line-height: 1.5; max-width: 145px; text-align: start;"><span class="nodeLabel"><p>integer</p></span></div></foreignObject></g><g class="label attribute-name" transform="translate(-11.0703125, 30.75)" style=""><foreignObject width="39.140625" height="24"><div xmlns="http://www.w3.org/1999/xhtml" style="display: table-cell; white-space: nowrap; line-height: 1.5; max-width: 136px; text-align: start;"><span class="nodeLabel"><p>count</p></span></div></foreignObject></g><g class="label attribute-keys" transform="translate(109.9921875, 30.75)" style=""><foreignObject width="0" height="0"><div xmlns="http://www.w3.org/1999/xhtml" style="display: table-cell; white-space: nowrap; line-height: 1.5; max-width: 100px; text-align: start;"><span class="nodeLabel"></span></div></foreignObject></g><g class="label attribute-comment" transform="translate(109.9921875, 30.75)" style=""><foreignObject width="0" height="0"><div xmlns="http://www.w3.org/1999/xhtml" style="display: table-cell; white-space: nowrap; line-height: 1.5; max-width: 100px; text-align: start;"><span class="nodeLabel"></span></div></foreignObject></g><g class="divider"><path d="M-97.4921875 -21.375 C-41.500522916721266 -21.375, 14.491141666557468 -21.375, 97.4921875 -21.375 M-97.4921875 -21.375 C-22.20675854699641 -21.375, 53.07867040600718 -21.375, 97.4921875 -21.375" stroke="#9370DB" stroke-width="1.3" fill="none" stroke-dasharray="0 0"/></g><g class="divider"><path d="M-23.5703125 -21.375 C-23.5703125 9.680392340943001, -23.5703125 40.735784681886, -23.5703125 64.125 M-23.5703125 -21.375 C-23.5703125 7.592490336137967, -23.5703125 36.559980672275934, -23.5703125 64.125" stroke="#9370DB" stroke-width="1.3" fill="none" stroke-dasharray="0 0"/></g><g class="divider"><path d="M-97.4921875 -21.375 C-22.884775564632633 -21.375, 51.72263637073473 -21.375, 97.4921875 -21.375 M-97.4921875 -21.375 C-22.400290767902746 -21.375, 52.69160596419451 -21.375, 97.4921875 -21.375" stroke="#9370DB" stroke-width="1.3" fill="none" stroke-dasharray="0 0"/></g></g></g></g></g></svg>