<svg id="my-svg" width="100%" xmlns="http://www.w3.org/2000/svg" xmlns:xlink="http://www.w3.org/1999/xlink" class="erDiagram" style="max-width: 1134.97px; background-color: white;" viewBox="0 0 1134.96875 187" role="graphics-document document" aria-roledescription="er"><style>#my-svg{font-family:"trebuchet ms",verdana,arial,sans-serif;font-size:16px;fill:#333;}@keyframes edge-animation-frame{from{stroke-dashoffset:0;}}@keyframes dash{to{stroke-dashoffset:0;}}#my-svg .edge-animation-slow{stroke-dasharray:9,5!important;stroke-dashoffset:900;animation:dash 50s linear infinite;stroke-linecap:round;}#my-svg .edge-animation-fast{stroke-dasharray:9,5!important;stroke-dashoffset:900;animation:dash 20s linear infinite;stroke-linecap:round;}#my-svg .error-icon{fill:#552222;}#my-svg .error-text{fill:#552222;stroke:#552222;}#my-svg .edge-thickness-normal{stroke-width:1px;}#my-svg .edge-thickness-thick{stroke-width:3.5px;}#my-svg .edge-pattern-solid{stroke-dasharray:0;}#my-svg .edge-thickness-invisible{stroke-width:0;fill:none;}#my-svg .edge-pattern-dashed{stroke-dasharray:3;}#my-svg .edge-pattern-dotted{stroke-dasharray:2;}#my-svg .marker{fill:#333333;stroke:#333333;}#my-svg .marker.cross{stroke:#333333;}#my-svg svg{font-family:"trebuchet ms",verdana,arial,sans-serif;font-size:16px;}#my-svg p{margin:0;}#my-svg .entityBox{fill:#ECECFF;stroke:#9370DB;}#my-svg .relationshipLabelBox{fill:hsl(80, 100%, 96.2745098039%);opacity:0.7;background-color:hsl(80, 100%, 96.2745098039%);}#my-svg .relationshipLabelBox rect{opacity:0.5;}#my-svg .labelBkg{background-color:rgba(248.6666666666, 255, 235.9999999999, 0.5);}#my-svg .edgeLabel .label{fill:#9370DB;font-size:14px;}#my-svg .label{font-family:"trebuchet ms",verdana,arial,sans-serif;color:#333;}#my-svg .edge-pattern-dashed{stroke-dasharray:8,8;}#my-svg .node rect,#my-svg .node circle,#my-svg .node ellipse,#my-svg .node polygon{fill:#ECECFF;stroke:#9370DB;stroke-width:1px;}#my-svg .relationshipLine{stroke:#333333;stroke-width:1;fill:none;}#my-svg .marker{fill:none!important;stroke:#333333!important;stroke-width:1;}#my-svg :root{--mermaid-font-family:"trebuchet ms",verdana,arial,sans-serif;}</style><g><defs><marker id="my-svg_er-onlyOneStart" class="marker onlyOne er" refX="0" refY="9" markerWidth="18" markerHeight="18" orient="auto"><path d="M9,0 L9,18 M15,0 L15,18"/></marker></defs><defs><marker id="my-svg_er-onlyOneEnd" class="marker onlyOne er" refX="18" refY="9" markerWidth="18" markerHeight="18" orient="auto"><path d="M3,0 L3,18 M9,0 L9,18"/></marker></defs><defs><marker id="my-svg_er-zeroOrOneStart" class="marker zeroOrOne er" refX="0" refY="9" markerWidth="30" markerHeight="18" orient="auto"><circle fill="white" cx="21" cy="9" r="6"/><path d="M9,0 L9,18"/></marker></defs><defs><marker id="my-svg_er-zeroOrOneEnd" class="marker zeroOrOne er" refX="30" refY="9" markerWidth="30" markerHeight="18" orient="auto"><circle fill="white" cx="9" cy="9" r="6"/><path d="M21,0 L21,18"/></marker></defs><defs><marker id="my-svg_er-oneOrMoreStart" class="marker oneOrMore er" refX="18" refY="18" markerWidth="45" markerHeight="36" orient="auto"><path d="M0,18 Q 18,0 36,18 Q 18,36 0,18 M42,9 L42,27"/></marker></defs><defs><marker id="my-svg_er-oneOrMoreEnd" class="marker oneOrMore er" refX="27" refY="18" markerWidth="45" markerHeight="36" orient="auto"><path d="M3,9 L3,27 M9,18 Q27,0 45,18 Q27,36 9,18"/></marker></defs><defs><marker id="my-svg_er-zeroOrMoreStart" class="marker zeroOrMore er" refX="18" refY="18" markerWidth="57" markerHeight="36" orient="auto"><circle fill="white" cx="48" cy="18" r="6"/><path d="M0,18 Q18,0 36,18 Q18,36 0,18"/></marker></defs><defs><marker id="my-svg_er-zeroOrMoreEnd" class="marker zeroOrMore er" refX="39" refY="18" markerWidth="57" markerHeight="36" orient="auto"><circle fill="white" cx="9" cy="18" r="6"/><path d="M21,18 Q39,0 57,18 Q39,36 21,18"/></marker></defs><g class="root"><g class="clusters"/><g class="edgePaths"/><g class="edgeLabels"/><g class="nodes"><g class="node default" id="entity-RawAllocation-0" transform="translate(86.3671875, 93.5)"><g style=""><path d="M-78.3671875 -85.5 L78.3671875 -85.5 L78.3671875 85.5 L-78.3671875 85.5" stroke="none" stroke-width="0" fill="#ECECFF"/><path d="M-78.3671875 -85.5 C-16.28524878639535 -85.5, 45.7966899272093 -85.5, 78.3671875 -85.5 M-78.3671875 -85.5 C-26.92950193302579 -85.5, 24.50818363394842 -85.5, 78.3671875 -85.5 M78.3671875 -85.5 C78.3671875 -36.68060666994502, 78.3671875 12.138786660109957, 78.3671875 85.5 M78.3671875 -85.5 C78.3671875 -29.305571582878684, 78.3671875 26.88885683424263, 78.3671875 85.5 M78.3671875 85.5 C19.326754193691272 85.5, -39.713679112617456 85.5, -78.3671875 85.5 M78.3671875 85.5 C21.290358407063636 85.5, -35.78647068587273 85.5, -78.3671875 85.5 M-78.3671875 85.5 C-78.3671875 32.48012414158745, -78.3671875 -20.539751716825094, -78.3671875 -85.5 M-78.3671875 85.5 C-78.3671875 50.762116238365614, -78.3671875 16.02423247673123, -78.3671875 -85.5" stroke="#9370DB" stroke-width="1.3" fill="none" stroke-dasharray="0 0"/></g><g style="" class="row-rect-odd"><path d="M-78.3671875 -42.75 L78.3671875 -42.75 L78.3671875 0 L-78.3671875 0" stroke="none" stroke-width="0" fill="hsl(240, 100%, 100%)"/><path d="M-78.3671875 -42.75 C-22.358003991060727 -42.75, 33.651179517878546 -42.75, 78.3671875 -42.75 M-78.3671875 -42.75 C-33.53804731851404 -42.75, 11.291092862971922 -42.75, 78.3671875 -42.75 M78.3671875 -42.75 C78.3671875 -27.447015945224102, 78.3671875 -12.144031890448208, 78.3671875 0 M78.3671875 -42.75 C78.3671875 -33.00549036313054, 78.3671875 -23.260980726261078, 78.3671875 0 M78.3671875 0 C17.69738236464059 0, -42.97242277071882 0, -78.3671875 0 M78.3671875 0 C46.7965515682732 0, 15.225915636546404 0, -78.3671875 0 M-78.3671875 0 C-78.3671875 -12.313769077516273, -78.3671875 -24.627538155032546, -78.3671875 -42.75 M-78.3671875 0 C-78.3671875 -12.397260925016923, -78.3671875 -24.794521850033846, -78.3671875 -42.75" stroke="#9370DB" stroke-width="1.3" fill="none" stroke-dasharray="0 0"/></g><g style="" class="row-rect-even"><path d="M-78.3671875 0 L78.3671875 0 L78.3671875 42.75 L-78.3671875 42.75" stroke="none" stroke-width="0" fill="hsl(240, 100%, 97.2745098039%)"/><path d="M-78.3671875 0 C-37.71510839781809 0, 2.936970704363816 0, 78.3671875 0 M-78.3671875 0 C-46.65578973299522 0, -14.944391965990434 0, 78.3671875 0 M78.3671875 0 C78.3671875 9.432622749186097, 78.3671875 18.865245498372193, 78.3671875 42.75 M78.3671875 0 C78.3671875 12.411414297311996, 78.3671875 24.822828594623992, 78.3671875 42.75 M78.3671875 42.75 C44.13056840301564 42.75, 9.893949306031274 42.75, -78.3671875 42.75 M78.3671875 42.75 C43.66684544483342 42.75, 8.96650338966684 42.75, -78.3671875 42.75 M-78.3671875 42.75 C-78.3671875 34.11792361603432, -78.3671875 25.485847232068643, -78.3671875 0 M-78.3671875 42.75 C-78.3671875 27.339381708690233, -78.3671875 11.928763417380466, -78.3671875 0" stroke="#9370DB" stroke-width="1.3" fill="none" stroke-dasharray="0 0"/></g><g style="" class="row-rect-odd"><path d="M-78.3671875 42.75 L78.3671875 42.75 L78.3671875 85.5 L-78.3671875 85.5" stroke="none" stroke-width="0" fill="hsl(240, 100%, 100%)"/><path d="M-78.3671875 42.75 C-21.53300587093466 42.75, 35.30117575813068 42.75, 78.3671875 42.75 M-78.3671875 42.75 C-23.057789775844142 42.75, 32.251607948311715 42.75, 78.3671875 42.75 M78.3671875 42.75 C78.3671875 58.64888619416135, 78.3671875 74.5477723883227, 78.3671875 85.5 M78.3671875 42.75 C78.3671875 59.10564382169771, 78.3671875 75.46128764339542, 78.3671875 85.5 M78.3671875 85.5 C44.157841057142925 85.5, 9.948494614285849 85.5, -78.3671875 85.5 M78.3671875 85.5 C31.78630201168763 85.5, -14.794583476624737 85.5, -78.3671875 85.5 M-78.3671875 85.5 C-78.3671875 69.99133026348053, -78.3671875 54.482660526961055, -78.3671875 42.75 M-78.3671875 85.5 C-78.3671875 75.53440219662865, -78.3671875 65.5688043932573, -78.3671875 42.75" stroke="#9370DB" stroke-width="1.3" fill="none" stroke-dasharray="0 0"/></g><g class="label name" transform="translate(-50.6953125, -76.125)" style=""><foreignObject width="101.390625" height="24"><div xmlns="http://www.w3.org/1999/xhtml" style="display: table-cell; white-space: nowrap; line-height: 1.5; max-width: 197px; text-align: start;"><span class="nodeLabel"><p>RawAllocation</p></span></div></foreignObject></g><g class="label attribute-type" transform="translate(-65.8671875, -33.375)" style=""><foreignObject width="39.125" height="24"><div xmlns="http://www.w3.org/1999/xhtml" style="display: table-cell; white-space: nowrap; line-height: 1.5; max-width: 136px; text-align: start;"><span class="nodeLabel"><p>string</p></span></div></foreignObject></g><g class="label attribute-name" transform="translate(-1.7421875, -33.375)" style=""><foreignObject width="65.828125" height="24"><div xmlns="http://www.w3.org/1999/xhtml" style="display: table-cell; white-space: nowrap; line-height: 1.5; max-width: 159px; text-align: start;"><span class="nodeLabel"><p>signature</p></span></div></foreignObject></g><g class="label attribute-keys" transform="translate(90.8671875, -33.375)" style=""><foreignObject width="0" height="0"><div xmlns="http://www.w3.org/1999/xhtml" style="display: table-cell; white-space: nowrap; line-height: 1.5; max-width: 100px; text-align: start;"><span class="nodeLabel"></span></div></foreignObject></g><g class="label attribute-comment" transform="translate(90.8671875, -33.375)" style=""><foreignObject width="0" height="0"><div xmlns="http://www.w3.org/1999/xhtml" style="display: table-cell; white-space: nowrap; line-height: 1.5; max-width: 100px; text-align: start;"><span class="nodeLabel"></span></div></foreignObject></g><g class="label attribute-type" transform="translate(-65.8671875, 9.375)" style=""><foreignObject width="30.25" height="24"><div xmlns="http://www.w3.org/1999/xhtml" style="display: table-cell; white-space: nowrap; line-height: 1.5; max-width: 130px; text-align: start;"><span class="nodeLabel"><p>float</p></span></div></foreignObject></g><g class="label attribute-name" transform="translate(-1.7421875, 9.375)" style=""><foreignObject width="67.609375" height="24"><div xmlns="http://www.w3.org/1999/xhtml" style="display: table-cell; white-space: nowrap; line-height: 1.5; max-width: 163px; text-align: start;"><span class="nodeLabel"><p>allocation</p></span></div></foreignObject></g><g class="label attribute-keys" transform="translate(90.8671875, 9.375)" style=""><foreignObject width="0" height="0"><div xmlns="http://www.w3.org/1999/xhtml" style="display: table-cell; white-space: nowrap; line-height: 1.5; max-width: 100px; text-align: start;"><span class="nodeLabel"></span></div></foreignObject></g><g class="label attribute-comment" transform="translate(90.8671875, 9.375)" style=""><foreignObject width="0" height="0"><div xmlns="http://www.w3.org/1999/xhtml" style="display: table-cell; white-space: nowrap; line-height: 1.5; max-width: 100px; text-align: start;"><span class="nodeLabel"></span></div></foreignObject></g><g class="label attribute-type" transform="translate(-65.8671875, 52.125)" style=""><foreignObject width="30.25" height="24"><div xmlns="http://www.w3.org/1999/xhtml" style="display: table-cell; white-space: nowrap; line-height: 1.5; max-width: 130px; text-align: start;"><span class="nodeLabel"><p>float</p></span></div></foreignObject></g><g class="label attribute-name" transform="translate(-1.7421875, 52.125)" style=""><foreignObject width="53.375" height="24"><div xmlns="http://www.w3.org/1999/xhtml" style="display: table-cell; white-space: nowrap; line-height: 1.5; max-width: 148px; text-align: start;"><span class="nodeLabel"><p>percent</p></span></div></foreignObject></g><g class="label attribute-keys" transform="translate(90.8671875, 52.125)" style=""><foreignObject width="0" height="0"><div xmlns="http://www.w3.org/1999/xhtml" style="display: table-cell; white-space: nowrap; line-height: 1.5; max-width: 100px; text-align: start;"><span class="nodeLabel"></span></div></foreignObject></g><g class="label attribute-comment" transform="translate(90.8671875, 52.125)" style=""><foreignObject width="0" height="0"><div xmlns="http://www.w3.org/1999/xhtml" style="display: table-cell; white-space: nowrap; line-height: 1.5; max-width: 100px; text-align: start;"><span class="nodeLabel"></span></div></foreignObject></g><g class="divider"><path d="M-78.3671875 -42.75 C-27.191584018869186 -42.75, 23.984019462261628 -42.75, 78.3671875 -42.75 M-78.3671875 -42.75 C-32.7042747207414 -42.75, 12.958638058517195 -42.75, 78.3671875 -42.75" stroke="#9370DB" stroke-width="1.3" fill="none" stroke-dasharray="0 0"/></g><g class="divider"><path d="M-14.2421875 -42.75 C-14.2421875 -3.8875720846800803, -14.2421875 34.97485583063984, -14.2421875 85.5 M-14.2421875 -42.75 C-14.2421875 -14.219030270419054, -14.2421875 14.311939459161891, -14.2421875 85.5" stroke="#9370DB" stroke-width="1.3" fill="none" stroke-dasharray="0 0"/></g><g class="divider"><path d="M-78.3671875 -42.75 C-31.48063332692118 -42.75, 15.405920846157642 -42.75, 78.3671875 -42.75 M-78.3671875 -42.75 C-44.65479684731976 -42.75, -10.942406194639517 -42.75, 78.3671875 -42.75" stroke="#9370DB" stroke-width="1.3" fill="none" stroke-dasharray="0 0"/></g></g><g class="node default" id="entity-TidyAllocation-1" transform="translate(383.1015625, 93.5)"><g style=""><path d="M-78.3671875 -85.5 L78.3671875 -85.5 L78.3671875 85.5 L-78.3671875 85.5" stroke="none" stroke-width="0" fill="#ECECFF"/><path d="M-78.3671875 -85.5 C-23.226036506836664 -85.5, 31.915114486326672 -85.5, 78.3671875 -85.5 M-78.3671875 -85.5 C-34.903397522371264 -85.5, 8.560392455257471 -85.5, 78.3671875 -85.5 M78.3671875 -85.5 C78.3671875 -28.268548832303445, 78.3671875 28.96290233539311, 78.3671875 85.5 M78.3671875 -85.5 C78.3671875 -42.16623508910507, 78.3671875 1.1675298217898558, 78.3671875 85.5 M78.3671875 85.5 C18.202818289465363 85.5, -41.961550921069275 85.5, -78.3671875 85.5 M78.3671875 85.5 C36.070859523282465 85.5, -6.22546845343507 85.5, -78.3671875 85.5 M-78.3671875 85.5 C-78.3671875 29.520536851000948, -78.3671875 -26.458926297998104, -78.3671875 -85.5 M-78.3671875 85.5 C-78.3671875 45.186155624051494, -78.3671875 4.872311248102989, -78.3671875 -85.5" stroke="#9370DB" stroke-width="1.3" fill="none" stroke-dasharray="0 0"/></g><g style="" class="row-rect-odd"><path d="M-78.3671875 -42.75 L78.3671875 -42.75 L78.3671875 0 L-78.3671875 0" stroke="none" stroke-width="0" fill="hsl(240, 100%, 100%)"/><path d="M-78.3671875 -42.75 C-39.05047450083484 -42.75, 0.2662384983303241 -42.75, 78.3671875 -42.75 M-78.3671875 -42.75 C-19.134959918252775 -42.75, 40.09726766349445 -42.75, 78.3671875 -42.75 M78.3671875 -42.75 C78.3671875 -31.44217483954889, 78.3671875 -20.13434967909778, 78.3671875 0 M78.3671875 -42.75 C78.3671875 -31.781266800371874, 78.3671875 -20.812533600743752, 78.3671875 0 M78.3671875 0 C45.575927069219134 0, 12.784666638438267 0, -78.3671875 0 M78.3671875 0 C42.70352967489746 0, 7.03987184979492 0, -78.3671875 0 M-78.3671875 0 C-78.3671875 -12.987898047547198, -78.3671875 -25.975796095094395, -78.3671875 -42.75 M-78.3671875 0 C-78.3671875 -13.37619267122352, -78.3671875 -26.75238534244704, -78.3671875 -42.75" stroke="#9370DB" stroke-width="1.3" fill="none" stroke-dasharray="0 0"/></g><g style="" class="row-rect-even"><path d="M-78.3671875 0 L78.3671875 0 L78.3671875 42.75 L-78.3671875 42.75" stroke="none" stroke-width="0" fill="hsl(240, 100%, 97.2745098039%)"/><path d="M-78.3671875 0 C-42.612290750328356 0, -6.857394000656711 0, 78.3671875 0 M-78.3671875 0 C-28.202291941052636 0, 21.96260361789473 0, 78.3671875 0 M78.3671875 0 C78.3671875 11.949539405573045, 78.3671875 23.89907881114609, 78.3671875 42.75 M78.3671875 0 C78.3671875 12.095356142237293, 78.3671875 24.190712284474586, 78.3671875 42.75 M78.3671875 42.75 C24.29461100101601 42.75, -29.777965497967983 42.75, -78.3671875 42.75 M78.3671875 42.75 C37.84828714749866 42.75, -2.670613205002681 42.75, -78.3671875 42.75 M-78.3671875 42.75 C-78.3671875 28.517505153466804, -78.3671875 14.285010306933607, -78.3671875 0 M-78.3671875 42.75 C-78.3671875 28.840608731828304, -78.3671875 14.931217463656612, -78.3671875 0" stroke="#9370DB" stroke-width="1.3" fill="none" stroke-dasharray="0 0"/></g><g style="" class="row-rect-odd"><path d="M-78.3671875 42.75 L78.3671875 42.75 L78.3671875 85.5 L-78.3671875 85.5" stroke="none" stroke-width="0" fill="hsl(240, 100%, 100%)"/><path d="M-78.3671875 42.75 C-17.5121326178838 42.75, 43.3429222642324 42.75, 78.3671875 42.75 M-78.3671875 42.75 C-31.352090723766686 42.75, 15.663006052466628 42.75, 78.3671875 42.75 M78.3671875 42.75 C78.3671875 58.61980153827492, 78.3671875 74.48960307654984, 78.3671875 85.5 M78.3671875 42.75 C78.3671875 57.960567562913326, 78.3671875 73.17113512582665, 78.3671875 85.5 M78.3671875 85.5 C31.828851015456628 85.5, -14.709485469086744 85.5, -78.3671875 85.5 M78.3671875 85.5 C41.68923988045703 85.5, 5.011292260914061 85.5, -78.3671875 85.5 M-78.3671875 85.5 C-78.3671875 71.06219595515417, -78.3671875 56.624391910308326, -78.3671875 42.75 M-78.3671875 85.5 C-78.3671875 73.97696661824216, -78.3671875 62.453933236484325, -78.3671875 42.75" stroke="#9370DB" stroke-width="1.3" fill="none" stroke-dasharray="0 0"/></g><g class="label name" transform="translate(-49.5078125, -76.125)" style=""><foreignObject width="99.015625" height="24"><div xmlns="http://www.w3.org/1999/xhtml" style="display: table-cell; white-space: nowrap; line-height: 1.5; max-width: 197px; text-align: start;"><span class="nodeLabel"><p>TidyAllocation</p></span></div></foreignObject></g><g class="label attribute-type" transform="translate(-65.8671875, -33.375)" style=""><foreignObject width="39.125" height="24"><div xmlns="http://www.w3.org/1999/xhtml" style="display: table-cell; white-space: nowrap; line-height: 1.5; max-width: 136px; text-align: start;"><span class="nodeLabel"><p>string</p></span></div></foreignObject></g><g class="label attribute-name" transform="translate(-1.7421875, -33.375)" style=""><foreignObject width="65.828125" height="24"><div xmlns="http://www.w3.org/1999/xhtml" style="display: table-cell; white-space: nowrap; line-height: 1.5; max-width: 159px; text-align: start;"><span class="nodeLabel"><p>signature</p></span></div></foreignObject></g><g class="label attribute-keys" transform="translate(90.8671875, -33.375)" style=""><foreignObject width="0" height="0"><div xmlns="http://www.w3.org/1999/xhtml" style="display: table-cell; white-space: nowrap; line-height: 1.5; max-width: 100px; text-align: start;"><span class="nodeLabel"></span></div></foreignObject></g><g class="label attribute-comment" transform="translate(90.8671875, -33.375)" style=""><foreignObject width="0" height="0"><div xmlns="http://www.w3.org/1999/xhtml" style="display: table-cell; white-space: nowrap; line-height: 1.5; max-width: 100px; text-align: start;"><span class="nodeLabel"></span></div></foreignObject></g><g class="label attribute-type" transform="translate(-65.8671875, 9.375)" style=""><foreignObject width="30.25" height="24"><div xmlns="http://www.w3.org/1999/xhtml" style="display: table-cell; white-space: nowrap; line-height: 1.5; max-width: 130px; text-align: start;"><span class="nodeLabel"><p>float</p></span></div></foreignObject></g><g class="label attribute-name" transform="translate(-1.7421875, 9.375)" style=""><foreignObject width="67.609375" height="24"><div xmlns="http://www.w3.org/1999/xhtml" style="display: table-cell; white-space: nowrap; line-height: 1.5; max-width: 163px; text-align: start;"><span class="nodeLabel"><p>allocation</p></span></div></foreignObject></g><g class="label attribute-keys" transform="translate(90.8671875, 9.375)" style=""><foreignObject width="0" height="0"><div xmlns="http://www.w3.org/1999/xhtml" style="display: table-cell; white-space: nowrap; line-height: 1.5; max-width: 100px; text-align: start;"><span class="nodeLabel"></span></div></foreignObject></g><g class="label attribute-comment" transform="translate(90.8671875, 9.375)" style=""><foreignObject width="0" height="0"><div xmlns="http://www.w3.org/1999/xhtml" style="display: table-cell; white-space: nowrap; line-height: 1.5; max-width: 100px; text-align: start;"><span class="nodeLabel"></span></div></foreignObject></g><g class="label attribute-type" transform="translate(-65.8671875, 52.125)" style=""><foreignObject width="30.25" height="24"><div xmlns="http://www.w3.org/1999/xhtml" style="display: table-cell; white-space: nowrap; line-height: 1.5; max-width: 130px; text-align: start;"><span class="nodeLabel"><p>float</p></span></div></foreignObject></g><g class="label attribute-name" transform="translate(-1.7421875, 52.125)" style=""><foreignObject width="53.375" height="24"><div xmlns="http://www.w3.org/1999/xhtml" style="display: table-cell; white-space: nowrap; line-height: 1.5; max-width: 148px; text-align: start;"><span class="nodeLabel"><p>percent</p></span></div></foreignObject></g><g class="label attribute-keys" transform="translate(90.8671875, 52.125)" style=""><foreignObject width="0" height="0"><div xmlns="http://www.w3.org/1999/xhtml" style="display: table-cell; white-space: nowrap; line-height: 1.5; max-width: 100px; text-align: start;"><span class="nodeLabel"></span></div></foreignObject></g><g class="label attribute-comment" transform="translate(90.8671875, 52.125)" style=""><foreignObject width="0" height="0"><div xmlns="http://www.w3.org/1999/xhtml" style="display: table-cell; white-space: nowrap; line-height: 1.5; max-width: 100px; text-align: start;"><span class="nodeLabel"></span></div></foreignObject></g><g class="divider"><path d="M-78.3671875 -42.75 C-34.09228117167016 -42.75, 10.182625156659682 -42.75, 78.3671875 -42.75 M-78.3671875 -42.75 C-23.437457455769135 -42.75, 31.49227258846173 -42.75, 78.3671875 -42.75" stroke="#9370DB" stroke-width="1.3" fill="none" stroke-dasharray="0 0"/></g><g class="divider"><path d="M-14.2421875 -42.75 C-14.2421875 3.383545197163457, -14.2421875 49.517090394326914, -14.2421875 85.5 M-14.2421875 -42.75 C-14.2421875 -5.936759014263586, -14.2421875 30.876481971472828, -14.2421875 85.5" stroke="#9370DB" stroke-width="1.3" fill="none" stroke-dasharray="0 0"/></g><g class="divider"><path d="M-78.3671875 -42.75 C-22.423159458785868 -42.75, 33.520868582428264 -42.75, 78.3671875 -42.75 M-78.3671875 -42.75 C-44.45127274727484 -42.75, -10.535357994549685 -42.75, 78.3671875 -42.75" stroke="#9370DB" stroke-width="1.3" fill="none" stroke-dasharray="0 0"/></g></g><g class="node default" id="entity-RawSnvcounts-2" transform="translate(696.7265625, 93.5)"><g style=""><path d="M-95.2578125 -64.125 L95.2578125 -64.125 L95.2578125 64.125 L-95.2578125 64.125" stroke="none" stroke-width="0" fill="#ECECFF"/><path d="M-95.2578125 -64.125 C-53.23146563785905 -64.125, -11.205118775718105 -64.125, 95.2578125 -64.125 M-95.2578125 -64.125 C-48.730386602407464 -64.125, -2.2029607048149273 -64.125, 95.2578125 -64.125 M95.2578125 -64.125 C95.2578125 -13.84913927015895, 95.2578125 36.4267214596821, 95.2578125 64.125 M95.2578125 -64.125 C95.2578125 -29.195826320560045, 95.2578125 5.733347358879911, 95.2578125 64.125 M95.2578125 64.125 C25.713068589330504 64.125, -43.83167532133899 64.125, -95.2578125 64.125 M95.2578125 64.125 C36.68664248151502 64.125, -21.884527536969955 64.125, -95.2578125 64.125 M-95.2578125 64.125 C-95.2578125 26.073056291285212, -95.2578125 -11.978887417429576, -95.2578125 -64.125 M-95.2578125 64.125 C-95.2578125 26.571895925328292, -95.2578125 -10.981208149343416, -95.2578125 -64.125" stroke="#9370DB" stroke-width="1.3" fill="none" stroke-dasharray="0 0"/></g><g style="" class="row-rect-odd"><path d="M-95.2578125 -21.375 L95.2578125 -21.375 L95.2578125 21.375 L-95.2578125 21.375" stroke="none" stroke-width="0" fill="hsl(240, 100%, 100%)"/><path d="M-95.2578125 -21.375 C-47.06076251429058 -21.375, 1.1362874714188393 -21.375, 95.2578125 -21.375 M-95.2578125 -21.375 C-19.203828776505887 -21.375, 56.850154946988226 -21.375, 95.2578125 -21.375 M95.2578125 -21.375 C95.2578125 -11.459127961757986, 95.2578125 -1.5432559235159715, 95.2578125 21.375 M95.2578125 -21.375 C95.2578125 -11.337679711254758, 95.2578125 -1.3003594225095156, 95.2578125 21.375 M95.2578125 21.375 C44.0087634993645 21.375, -7.2402855012710035 21.375, -95.2578125 21.375 M95.2578125 21.375 C56.433343658315096 21.375, 17.60887481663019 21.375, -95.2578125 21.375 M-95.2578125 21.375 C-95.2578125 8.77591530797375, -95.2578125 -3.8231693840524983, -95.2578125 -21.375 M-95.2578125 21.375 C-95.2578125 11.81744204779242, -95.2578125 2.259884095584841, -95.2578125 -21.375" stroke="#9370DB" stroke-width="1.3" fill="none" stroke-dasharray="0 0"/></g><g style="" class="row-rect-even"><path d="M-95.2578125 21.375 L95.2578125 21.375 L95.2578125 64.125 L-95.2578125 64.125" stroke="none" stroke-width="0" fill="hsl(240, 100%, 97.2745098039%)"/><path d="M-95.2578125 21.375 C-44.50443231849001 21.375, 6.248947863019978 21.375, 95.2578125 21.375 M-95.2578125 21.375 C-24.81773899696819 21.375, 45.62233450606362 21.375, 95.2578125 21.375 M95.2578125 21.375 C95.2578125 37.69076034040138, 95.2578125 54.00652068080277, 95.2578125 64.125 M95.2578125 21.375 C95.2578125 35.2183248358992, 95.2578125 49.061649671798406, 95.2578125 64.125 M95.2578125 64.125 C34.61568469393993 64.125, -26.026443112120134 64.125, -95.2578125 64.125 M95.2578125 64.125 C29.26810578453049 64.125, -36.72160093093902 64.125, -95.2578125 64.125 M-95.2578125 64.125 C-95.2578125 48.934753363710755, -95.2578125 33.744506727421516, -95.2578125 21.375 M-95.2578125 64.125 C-95.2578125 54.494280329535336, -95.2578125 44.86356065907067, -95.2578125 21.375" stroke="#9370DB" stroke-width="1.3" fill="none" stroke-dasharray="0 0"/></g><g class="label name" transform="translate(-53.359375, -54.75)" style=""><foreignObject width="106.71875" height="24"><div xmlns="http://www.w3.org/1999/xhtml" style="display: table-cell; white-space: nowrap; line-height: 1.5; max-width: 196px; text-align: start;"><span class="nodeLabel"><p>RawSnvcounts</p></span></div></foreignObject></g><g class="label attribute-type" transform="translate(-82.7578125, -12)" style=""><foreignObject width="39.125" height="24"><div xmlns="http://www.w3.org/1999/xhtml" style="display: table-cell; white-space: nowrap; line-height: 1.5; max-width: 136px; text-align: start;"><span class="nodeLabel"><p>string</p></span></div></foreignObject></g><g class="label attribute-name" transform="translate(-8.8359375, -12)" style=""><foreignObject width="91.59375" height="24"><div xmlns="http://www.w3.org/1999/xhtml" style="display: table-cell; white-space: nowrap; line-height: 1.5; max-width: 184px; text-align: start;"><span class="nodeLabel"><p>BucketName</p></span></div></foreignObject></g><g class="label attribute-keys" transform="translate(107.7578125, -12)" style=""><foreignObject width="0" height="0"><div xmlns="http://www.w3.org/1999/xhtml" style="display: table-cell; white-space: nowrap; line-height: 1.5; max-width: 100px; text-align: start;"><span class="nodeLabel"></span></div></foreignObject></g><g class="label attribute-comment" transform="translate(107.7578125, -12)" style=""><foreignObject width="0" height="0"><div xmlns="http://www.w3.org/1999/xhtml" style="display: table-cell; white-space: nowrap; line-height: 1.5; max-width: 100px; text-align: start;"><span class="nodeLabel"></span></div></foreignObject></g><g class="label attribute-type" transform="translate(-82.7578125, 30.75)" style=""><foreignObject width="48.921875" height="24"><div xmlns="http://www.w3.org/1999/xhtml" style="display: table-cell; white-space: nowrap; line-height: 1.5; max-width: 145px; text-align: start;"><span class="nodeLabel"><p>integer</p></span></div></foreignObject></g><g class="label attribute-name" transform="translate(-8.8359375, 30.75)" style=""><foreignObject width="39.140625" height="24"><div xmlns="http://www.w3.org/1999/xhtml" style="display: table-cell; white-space: nowrap; line-height: 1.5; max-width: 136px; text-align: start;"><span class="nodeLabel"><p>count</p></span></div></foreignObject></g><g class="label attribute-keys" transform="translate(107.7578125, 30.75)" style=""><foreignObject width="0" height="0"><div xmlns="http://www.w3.org/1999/xhtml" style="display: table-cell; white-space: nowrap; line-height: 1.5; max-width: 100px; text-align: start;"><span class="nodeLabel"></span></div></foreignObject></g><g class="label attribute-comment" transform="translate(107.7578125, 30.75)" style=""><foreignObject width="0" height="0"><div xmlns="http://www.w3.org/1999/xhtml" style="display: table-cell; white-space: nowrap; line-height: 1.5; max-width: 100px; text-align: start;"><span class="nodeLabel"></span></div></foreignObject></g><g class="divider"><path d="M-95.2578125 -21.375 C-47.100202001892384 -21.375, 1.0574084962152313 -21.375, 95.2578125 -21.375 M-95.2578125 -21.375 C-45.19838693164808 -21.375, 4.861038636703839 -21.375, 95.2578125 -21.375" stroke="#9370DB" stroke-width="1.3" fill="none" stroke-dasharray="0 0"/></g><g class="divider"><path d="M-21.3359375 -21.375 C-21.3359375 12.343143442934668, -21.3359375 46.061286885869336, -21.3359375 64.125 M-21.3359375 -21.375 C-21.3359375 11.918500504597652, -21.3359375 45.212001009195305, -21.3359375 64.125" stroke="#9370DB" stroke-width="1.3" fill="none" stroke-dasharray="0 0"/></g><g class="divider"><path d="M-95.2578125 -21.375 C-52.53197439432092 -21.375, -9.806136288641838 -21.375, 95.2578125 -21.375 M-95.2578125 -21.375 C-56.554417588032 -21.375, -17.851022676064005 -21.375, 95.2578125 -21.375" stroke="#9370DB" stroke-width="1.3" fill="none" stroke-dasharray="0 0"/></g></g><g class="node default" id="entity-TidySnvcounts-3" transform="translate(1029.4765625, 93.5)"><g style=""><path d="M-97.4921875 -64.125 L97.4921875 -64.125 L97.4921875 64.125 L-97.4921875 64.125" stroke="none" stroke-width="0" fill="#ECECFF"/><path d="M-97.4921875 -64.125 C-27.390563699506572 -64.125, 42.711060100986856 -64.125, 97.4921875 -64.125 M-97.4921875 -64.125 C-50.7740422524203 -64.125, -4.0558970048406024 -64.125, 97.4921875 -64.125 M97.4921875 -64.125 C97.4921875 -16.598688214373134, 97.4921875 30.927623571253733, 97.4921875 64.125 M97.4921875 -64.125 C97.4921875 -20.23294713824584, 97.4921875 23.65910572350832, 97.4921875 64.125 M97.4921875 64.125 C44.90574274124204 64.125, -7.680702017515927 64.125, -97.4921875 64.125 M97.4921875 64.125 C35.68423318254699 64.125, -26.12372113490602 64.125, -97.4921875 64.125 M-97.4921875 64.125 C-97.4921875 31.425909260750686, -97.4921875 -1.2731814784986284, -97.4921875 -64.125 M-97.4921875 64.125 C-97.4921875 37.5420628238345, -97.4921875 10.959125647669005, -97.4921875 -64.125" stroke="#9370DB" stroke-width="1.3" fill="none" stroke-dasharray="0 0"/></g><g style="" class="row-rect-odd"><path d="M-97.4921875 -21.375 L97.4921875 -21.375 L97.4921875 21.375 L-97.4921875 21.375" stroke="none" stroke-width="0" fill="hsl(240, 100%, 100%)"/><path d="M-97.4921875 -21.375 C-21.13713185501929 -21.375, 55.21792378996142 -21.375, 97.4921875 -21.375 M-97.4921875 -21.375 C-37.06155782956621 -21.375, 23.369071840867576 -21.375, 97.4921875 -21.375 M97.4921875 -21.375 C97.4921875 -9.16511744553042, 97.4921875 3.04476510893916, 97.4921875 21.375 M97.4921875 -21.375 C97.4921875 -11.183425508794857, 97.4921875 -0.9918510175897133, 97.4921875 21.375 M97.4921875 21.375 C42.082706907904715 21.375, -13.32677368419057 21.375, -97.4921875 21.375 M97.4921875 21.375 C35.03549265275179 21.375, -27.421202194496416 21.375, -97.4921875 21.375 M-97.4921875 21.375 C-97.4921875 7.537567427364992, -97.4921875 -6.299865145270015, -97.4921875 -21.375 M-97.4921875 21.375 C-97.4921875 7.879107164858455, -97.4921875 -5.61678567028309, -97.4921875 -21.375" stroke="#9370DB" stroke-width="1.3" fill="none" stroke-dasharray="0 0"/></g><g style="" class="row-rect-even"><path d="M-97.4921875 21.375 L97.4921875 21.375 L97.4921875 64.125 L-97.4921875 64.125" stroke="none" stroke-width="0" fill="hsl(240, 100%, 97.2745098039%)"/><path d="M-97.4921875 21.375 C-51.620264840043525 21.375, -5.74834218008705 21.375, 97.4921875 21.375 M-97.4921875 21.375 C-50.18182884855823 21.375, -2.871470197116466 21.375, 97.4921875 21.375 M97.4921875 21.375 C97.4921875 37.472715854903726, 97.4921875 53.570431709807444, 97.4921875 64.125 M97.4921875 21.375 C97.4921875 30.98949829994638, 97.4921875 40.60399659989276, 97.4921875 64.125 M97.4921875 64.125 C23.67808935151254 64.125, -50.13600879697492 64.125, -97.4921875 64.125 M97.4921875 64.125 C21.10497250824477 64.125, -55.28224248351046 64.125, -97.4921875 64.125 M-97.4921875 64.125 C-97.4921875 49.32034847016632, -97.4921875 34.515696940332646, -97.4921875 21.375 M-97.4921875 64.125 C-97.4921875 50.76394977051625, -97.4921875 37.4028995410325, -97.4921875 21.375" stroke="#9370DB" stroke-width="1.3" fill="none" stroke-dasharray="0 0"/></g><g class="label name" transform="translate(-52.171875, -54.75)" style=""><foreignObject width="104.34375" height="24"><div xmlns="http://www.w3.org/1999/xhtml" style="display: table-cell; white-space: nowrap; line-height: 1.5; max-width: 196px; text-align: start;"><span class="nodeLabel"><p>TidySnvcounts</p></span></div></foreignObject></g><g class="label attribute-type" transform="translate(-84.9921875, -12)" style=""><foreignObject width="39.125" height="24"><div xmlns="http://www.w3.org/1999/xhtml" style="display: table-cell; white-space: nowrap; line-height: 1.5; max-width: 136px; text-align: start;"><span class="nodeLabel"><p>string</p></span></div></foreignObject></g><g class="label attribute-name" transform="translate(-11.0703125, -12)" style=""><foreignObject width="96.0625" height="24"><div xmlns="http://www.w3.org/1999/xhtml" style="display: table-cell; white-space: nowrap; line-height: 1.5; max-width: 196px; text-align: start;"><span class="nodeLabel"><p>bucket_name</p></span></div></foreignObject></g><g class="label attribute-keys" transform="translate(109.9921875, -12)" style=""><foreignObject width="0" height="0"><div xmlns="http://www.w3.org/1999/xhtml" style="display: table-cell; white-space: nowrap; line-height: 1.5; max-width: 100px; text-align: start;"><span class="nodeLabel"></span></div></foreignObject></g><g class="label attribute-comment" transform="translate(109.9921875, -12)" style=""><foreignObject width="0" height="0"><div xmlns="http://www.w3.org/1999/xhtml" style="display: table-cell; white-space: nowrap; line-height: 1.5; max-width: 100px; text-align: start;"><span class="nodeLabel"></span></div></foreignObject></g><g class="label attribute-type" transform="translate(-84.9921875, 30.75)" style=""><foreignObject width="48.921875" height="24"><div xmlns="http://www.w3.org/1999/xhtml" style="display: table-cell; white-space: nowrap; line-height: 1.5; max-width: 145px; text-align: start;"><span class="nodeLabel"><p>integer</p></span></div></foreignObject></g><g class="label attribute-name" transform="translate(-11.0703125, 30.75)" style=""><foreignObject width="39.140625" height="24"><div xmlns="http://www.w3.org/1999/xhtml" style="display: table-cell; white-space: nowrap; line-height: 1.5; max-width: 136px; text-align: start;"><span class="nodeLabel"><p>count</p></span></div></foreignObject></g><g class="label attribute-keys" transform="translate(109.9921875, 30.75)" style=""><foreignObject width="0" height="0"><div xmlns="http://www.w3.org/1999/xhtml" style="display: table-cell; white-space: nowrap; line-height: 1.5; max-width: 100px; text-align: start;"><span class="nodeLabel"></span></div></foreignObject></g><g class="label attribute-comment" transform="translate(109.9921875, 30.75)" style=""><foreignObject width="0" height="0"><div xmlns="http://www.w3.org/1999/xhtml" style="display: table-cell; white-space: nowrap; line-height: 1.5; max-width: 100px; text-align: start;"><span class="nodeLabel"></span></div></foreignObject></g><g class="divider"><path d="M-97.4921875 -21.375 C-26.127722357637808 -21.375, 45.236742784724385 -21.375, 97.4921875 -21.375 M-97.4921875 -21.375 C-48.21632622049829 -21.375, 1.059535059003423 -21.375, 97.4921875 -21.375" stroke="#9370DB" stroke-width="1.3" fill="none" stroke-dasharray="0 0"/></g><g class="divider"><path d="M-23.5703125 -21.375 C-23.5703125 0.5185585272855171, -23.5703125 22.412117054571034, -23.5703125 64.125 M-23.5703125 -21.375 C-23.5703125 9.665392442771385, -23.5703125 40.70578488554277, -23.5703125 64.125" stroke="#9370DB" stroke-width="1.3" fill="none" stroke-dasharray="0 0"/></g><g class="divider"><path d="M-97.4921875 -21.375 C-40.761785869575746 -21.375, 15.968615760848508 -21.375, 97.4921875 -21.375 M-97.4921875 -21.375 C-43.06549334482344 -21.375, 11.361200810353125 -21.375, 97.4921875 -21.375" stroke="#9370DB" stroke-width="1.3" fill="none" stroke-dasharray="0 0"/></g></g></g></g></g></svg>